<?xml version="1.0" standalone="no"?>
<!DOCTYPE svg PUBLIC "-//W3C//DTD SVG 1.1//EN" "http://www.w3.org/Graphics/SVG/1.1/DTD/svg11.dtd" >
<svg xmlns="http://www.w3.org/2000/svg">
<metadata>
This is a custom SVG font generated by IcoMoon.

</metadata>
<defs>
<font id="icomoon" horiz-adv-x="512" >
<font-face units-per-em="512" ascent="480" descent="-32" />
<missing-glyph horiz-adv-x="512" />
<glyph class="hidden" unicode="&#xf000;" d="M0,480L 512 -32L0 -32 z" horiz-adv-x="0" />
<glyph unicode="&#xe000;" d="M 224.512,298.144c 53.28,0, 96.512,40.672, 96.512,90.944C 320.992,439.296, 277.792,480, 224.512,480S 128,439.296, 128,389.088
			C 128,338.848, 171.232,298.144, 224.512,298.144z M 300.16,291.84C 278.88,277.12, 252.864,268.128, 224.512,268.128c-28.48,0-54.56,9.056-75.872,23.872
			C 62.016,273.344,0,223.584,0,164.992l0-129.44 c0-8.576, 7.2-15.552, 16-15.552l 32,0 c 8.8,0, 16,6.304, 16,14.048c0,4.48,0,100.928,0,100.928
			c0,8.32, 4.768,4.992, 10.688,4.992c 5.888,0, 10.656-4.512, 10.656-9.984l 0.16-89.984c 0.448-5.184, 4.8-42.208, 10.272-43.296
			c0,0, 33.28-28.672, 128.224-28.672c 95.616,0, 128.224,28.672, 128.224,28.672c 5.472,1.056, 9.856,38.080, 10.272,43.296l 0.16,89.984
			c0,5.504, 4.768,9.984, 10.688,9.984c 5.888,0, 10.656-4.512, 10.656-9.984c0,0,0-91.456,0-95.936c0-7.744, 7.2-14.048, 16-14.048l 32,0 
			c 8.8,0, 16,7.008, 16,15.552L 448,164.992 C 448,223.424, 386.304,273.056, 300.16,291.84z" data-tags="user-16" />
<glyph unicode="&#xe001;" d="M 383.984,288c0-139.664-162.464-303.696-169.376-310.608C 208.368-28.864, 200.192-31.984, 192-31.984s-16.368,3.12-22.624,9.376
	C 162.448-15.712 0,148.352 0,288c0,105.888, 86.128,192, 192,192S 383.984,393.872, 383.984,288z M 192,192c 53.008,0, 96,42.976, 96,96s-42.992,96-96,96
	s-96-42.976-96-96S 138.992,192, 192,192z" data-tags="pin-32" />
<glyph unicode="&#xe002;" d="M0,480l 384-224.032L0,32.032L0,480 z" data-tags="triangle-right-large" />
<glyph unicode="&#xe003;" d="M 384,32.032L0,255.968L 384,480L 384,32.032 z" data-tags="triangle-left-large" />
<glyph unicode="&#xe004;" d="M0,480l 192-256.192L 384,480L0,480 z" data-tags="triangle-down" />
<glyph unicode="&#xe005;" d="M 512-16c0-2.752-0.704-5.483-2.112-7.936C 507.051-28.907, 501.739-32, 496-32L 16-32 c-5.76,0-11.051,3.093-13.888,8.064
	C 0.704-21.483,0-18.752,0-16c0,2.816, 0.747,5.611, 2.219,8.128L 160,260.352L 160,384 l 192,0 l0-123.648 l 157.781-268.224
	C 511.253-10.389, 512-13.184, 512-16z M 384,416L 384,464 C 384,472.789, 376.789,480, 368,480L 144,480 C 135.211,480, 128,472.789, 128,464L 128,416 L 384,416 z" data-tags="research-24" />
<glyph unicode="&#xe006;" d="M 480.256,355.136c-10.88,17.984-24.288,35.584-40.672,51.904c-16.608,16.448-34.496,29.984-52.8,40.8L 418.944,480c0,0, 46.528,0, 69.824-23.264
	C 512,433.44, 512,386.912, 512,386.912L 480.256,355.136z M 193.6,64.384L 96.384,64.384 L 96.384,161.6 l 11.68,11.68c 19.776-9.28, 39.392-22.464, 57.088-40.16
	c 17.696-17.664, 30.848-37.344, 40.16-57.088L 193.6,64.384z M 453.376,328.256l-220-224.16c-11.36,18.816-25.344,37.152-42.496,54.176
	C 173.536,175.488, 154.848,189.632, 135.712,200.928l 224.576,220.448c 18.912-8.928, 37.728-21.472, 54.656-38.432S 444.448,347.232, 453.376,328.256z M 64,416l0-383.968 l 384,0 
	L 448,192 l 64,63.968l0-241.44 C 512-11.168, 491.2-32, 465.472-32L 46.528-32 C 20.832-32,0-11.168,0,14.528L0,433.44 C0,459.168, 20.832,480, 46.528,480L 288,480 L 224,416L 64,416 z" data-tags="new-16" />
<glyph unicode="&#xe007;" d="M 459.093,263.552c-8.704,1.259-18.005,9.152-20.715,17.515l-12.992,31.573c-4.117,7.787-3.115,19.968, 2.133,26.987l 21.12,28.117
	c 5.248,7.040, 4.843,18.197-1.003,24.789l-23.125,23.168c-6.635,5.803-17.749,6.229-24.832,0.96l-28.075-21.099
	c-7.040-5.269-19.157-6.251-26.965-2.155l-31.573,13.013c-8.427,2.667-16.299,11.989-17.493,20.693l-4.992,34.752
	c-1.216,8.725-9.408,16.597-18.133,17.536C 272.405,479.424, 266.965,480, 256,480c-10.987,0-16.427-0.576-16.427-0.576
	c-8.747-0.917-16.939-8.811-18.155-17.536l-4.992-34.752c-1.237-8.704-9.088-18.027-17.493-20.693l-31.573-13.013
	C 159.573,389.312, 147.435,390.293, 140.416,395.563L 112.299,416.661c-7.040,5.291-18.197,4.864-24.789-0.96L 64.363,392.533
	c-5.803-6.613-6.251-17.749-0.981-24.789L 84.459,339.627c 5.291-7.019, 6.251-19.179, 2.176-26.987L 73.6,281.067
	c-2.667-8.384-11.989-16.256-20.715-17.515L 18.133,258.603c-8.704-1.259-16.576-9.429-17.515-18.197c0,0-0.576-5.419-0.576-16.405
	c0-10.965, 0.576-16.427, 0.576-16.427c 0.917-8.747, 8.811-16.939, 17.515-18.176l 34.752-4.949c 8.725-1.237, 18.048-9.131, 20.715-17.493l 13.056-31.573
	c 4.075-7.787, 3.115-19.968-2.176-26.965l-21.077-28.117c-5.291-7.040-6.549-16.597-2.816-21.205c 3.733-4.608, 14.421-16.043, 14.464-16.085
	c 0.021-0.043, 3.627-3.328, 8-7.339c 4.373-4.011, 22.229-9.579, 29.269-4.309l 28.117,21.099c 7.040,5.269, 19.157,6.229, 26.965,2.133l 31.573-12.992
	c 8.405-2.688, 16.277-11.989, 17.493-20.715l 4.992-34.752c 1.216-8.725, 9.408-16.619, 18.155-17.536c0,0, 5.44-0.555, 16.427-0.555
	c 10.965,0, 16.405,0.555, 16.405,0.555c 8.725,0.917, 16.917,8.811, 18.133,17.536l 4.992,34.752c 1.216,8.725, 9.088,18.027, 17.493,20.715l 31.573,13.013
	c 7.787,4.096, 19.925,3.115, 26.965-2.133l 28.117-21.12c 7.083-5.269, 18.219-4.843, 24.832,0.981l 23.083,23.125
	c 5.824,6.635, 6.251,17.792, 1.003,24.832l-21.12,28.117c-5.248,6.997-6.251,19.157-2.133,26.965l 12.992,31.573
	c 2.709,8.384, 11.989,16.277, 20.715,17.493l 34.752,4.949c 8.747,1.237, 16.576,9.408, 17.536,18.176c0,0, 0.576,5.461, 0.576,16.427
	c0,10.987-0.576,16.405-0.576,16.405c-0.96,8.768-8.789,16.939-17.536,18.197L 459.093,263.552z M 256,160.021c-35.349,0-64,28.629-64,64
	c0,35.349, 28.651,64, 64,64c 35.328,0, 63.957-28.672, 63.957-64C 319.957,188.651, 291.328,160.021, 256,160.021z" data-tags="gear-24" />
<glyph unicode="&#xe008;" d="M 512-16c0-8.8-7.2-16-16-16l-480,0 C 7.2-32,0-24.8,0-16l0,96 C0,88.8, 7.2,96, 16,96l 480,0 
	c 8.8,0, 16-7.2, 16-16L 512-16 z M 512,272C 512,280.8, 504.8,288, 496,288l-480,0 C 7.2,288,0,280.8,0,272l0-96 C0,167.2, 7.2,160, 16,160l 480,0 
	c 8.8,0, 16,7.2, 16,16L 512,272 z M 512,464C 512,472.8, 504.8,480, 496,480l-480,0 C 7.2,480,0,472.8,0,464l0-96 C0,359.2, 7.2,352, 16,352l 480,0 
	C 504.8,352, 512,359.2, 512,368L 512,464 z" data-tags="list-16" />
<glyph unicode="&#xe009;" d="M 448,384l0-384 c0-17.664-14.336-32-32-32l-384,0 C 14.336-32,0-17.664,0,0l0,384 C0,401.664, 14.336,416, 32,416L 64,416 L 64,448 C 64,465.664, 78.336,480, 96,480
	S 128,465.664, 128,448L 128,416 l 64,0 L 192,448 C 192,465.664, 206.336,480, 224,480S 256,465.664, 256,448L 256,416 l 64,0 L 320,448 C 320,465.664, 334.336,480, 352,480S 384,465.664, 384,448L 384,416 l 32,0 
	C 433.664,416, 448,401.664, 448,384z M 384,288L 64,288 l0-32 l 320,0 L 384,288 z M 384,192L 64,192 L 64,160 l 320,0 L 384,192 z M 384,96L 64,96 l0-32 l 320,0 L 384,96 z" data-tags="tasks-24" />
<glyph unicode="&#xe00a;" d="M0,0C0-17.664, 14.336-32, 32-32l 384,0 c 17.664,0, 32,14.336, 32,32L 448,288 L0,288 L0,0 z M 128,160l 64,0 l0,64 l 64,0 l0-64 l 64,0 l0-64 l-64,0 l0-64 L 192,32 l0,64 L 128,96 L 128,160 z M 448,384l0-64 L0,320 
	l0,64 C0,401.664, 14.336,416, 32,416L 64,416 L 64,448 C 64,465.664, 78.336,480, 96,480S 128,465.664, 128,448L 128,416 l 192,0 L 320,448 C 320,465.664, 334.336,480, 352,480S 384,465.664, 384,448L 384,416 l 32,0 
	C 433.664,416, 448,401.664, 448,384z" data-tags="events-24" />
<glyph unicode="&#xe00b;" d="M 448,256c0-8.32-3.264-16.512-9.376-22.624l-160-160C 272.64,67.36, 264.48,64, 256,64c-8.512,0-16.64,3.36-22.624,9.376l-160,160
	C 67.264,239.488, 64,247.68, 64,256c0,4.128, 0.8,8.288, 2.432,12.256C 71.392,280.192, 83.072,288, 96,288l 80,0 L 176,448 c0,17.696, 14.336,32, 32,32l 96,0 c 17.696,0, 32-14.304, 32-32
	l0-160 L 416,288 c 12.928,0, 24.64-7.808, 29.568-19.744C 447.2,264.288, 448,260.128, 448,256z M 448,32L 64,32 l0,128 L0,160 l0-128 c0-35.328, 28.672-64, 64-64l 384,0 c 35.328,0, 64,28.672, 64,64l0,128 
	l-64,0 L 448,32 z" data-tags="download-16" />
<glyph unicode="&#xe00c;" d="M 407.828,326.006l 35.958,35.584c 6.282,6.203, 6.282,16.404,0,22.607l-22.882,22.626c-6.282,6.203-16.581,6.203-22.863,0l-35.958-35.564
	c-29.637,21.937-64.906,36.844-103.247,42.279L 258.836,463.872 C 258.836,472.655, 251.51,479.862, 242.629,479.862l-32.354,0 c-8.881,0-16.187-7.207-16.187-15.99l0-50.314 
	C 84.362,398.021,0,304.679,0,191.862C0,68.155, 101.396-32.138, 226.462-32.138S 452.923,68.155, 452.923,191.862C 452.923,242.176, 436.126,288.61, 407.828,326.006z M 177.94,189.617
	c0,26.506, 21.721,48.010, 48.522,48.010c 15.99,0, 30.090-7.7, 38.951-19.456l 140.465-12.623c 8.33-0.748, 14.69-7.68, 14.69-15.931
	c0-8.29-6.361-15.202-14.69-15.97l-140.465-12.623c-8.842-11.796-22.961-19.417-38.951-19.417C 199.66,141.607, 177.94,163.072, 177.94,189.617z" horiz-adv-x="472.615" data-tags="dashboard-24" />
<glyph unicode="&#xe00d;" d="M 256,480C 114.624,480,0,365.408,0,224.032C0,82.624, 114.624-32, 256-32c 141.376,0, 256,114.624, 256,256.032C 512,365.408, 397.376,480, 256,480z M 421.44,276.064
			l-183.648-183.616c-3.744-3.744-9.856-3.744-13.568,0l-27.136,27.392c-3.712,3.776-9.856,9.952-13.568,13.696L 120.352,199.936
			C 118.496,201.792, 117.504,204.416, 117.504,206.88c0,2.496, 0.992,4.864, 2.848,6.752l 27.68,24.96c 1.888,1.92, 4.384,2.816, 6.848,2.816
			c 2.432-0.032, 4.864-0.992, 6.72-2.816l 62.624-63.936c 3.744-3.808, 9.824-3.808, 13.568,0l 142.944,142.56c 3.712,3.744, 9.856,3.744, 13.568,0
			l 27.168-27.456C 425.184,286.016, 425.184,279.84, 421.44,276.064z" data-tags="check-round-16" />
<glyph unicode="&#xe00e;" d="M 496,480C 504.789,480, 512,472.789, 512,464l0-480 c0-8.811-7.211-16-16-16l-96,0 C 391.211-32, 384-24.811, 384-16L 384,464 
	C 384,472.789, 391.211,480, 400,480L 496,480 z M 208,352C 199.211,352, 192,344.789, 192,336l0-352 C 192-24.811, 199.211-32, 208-32l 96,0 
	c 8.789,0, 16,7.189, 16,16L 320,336 C 320,344.789, 312.789,352, 304,352L 208,352 z M 16,224C 7.211,224,0,216.789,0,208l0-224 
	C0-24.811, 7.211-32, 16-32l 96,0 C 120.789-32, 128-24.811, 128-16l0,224 C 128,216.789, 120.789,224, 112,224L 16,224 z" data-tags="analysis-24" />
<glyph unicode="&#xe00f;" d="M 472.128,325.152l-267.392-267.392c-5.472-5.504-14.4-5.504-19.776,0l-39.52,39.872
	c-5.408,5.536-14.368,14.528-19.776,19.936L 33.664,214.272c-2.688,2.72-4.16,6.56-4.16,10.112c0,3.616, 1.472,7.104, 4.16,9.856l 40.288,36.352
	c 2.752,2.784, 6.4,4.096, 9.984,4.096c 3.552-0.032, 7.104-1.408, 9.792-4.096l 91.232-93.12c 5.44-5.568, 14.304-5.568, 19.776,0l 208.192,207.616
	c 5.344,5.472, 14.336,5.472, 19.744,0l 39.552-39.968C 477.632,339.648, 477.632,330.656, 472.128,325.152z" data-tags="check" />
<glyph unicode="&#xe010;" d="M 228.928,84.032l 144.64-113.248c 2.368-1.888, 3.808-2.816, 5.184-2.816c 4,0, 5.248,2.752, 5.248,7.264l0,107.2 
	C 384,89.984, 388.992,96, 395.68,96l 52.576,0 c 63.744,0, 63.68,30.72, 63.68,30.72L 511.936,446.752 c0,0,0,33.28-63.936,33.28L 64.032,480.032 c-64,0-64-33.28-64-33.28L 0.032,126.72 
	c0,0-0.032-30.72, 64.224-30.72l 128,0 C 192.256,96, 219.040,95.264, 228.928,84.032z" data-tags="chat-16" />
<glyph unicode="&#xe012;" d="M 448-16.192L 256,240l-192-256L 448-16.192z" data-tags="triangle-up copia 2" />
<glyph unicode="&#xe013;" d="M 351.936,409.504l-0.064-0.032c-0.448,0.32-0.8,0.768-1.312,1.12c-14.592,10.016-34.496,6.304-44.512-8.352
			c-9.984-14.656-6.24-34.656, 8.32-44.672C 314.752,357.248, 315.136,357.12, 315.488,356.928L 315.36,356.704C 356.8,327.68, 384,279.456, 384,224.832
			c0-88.768-71.648-160.736-160-160.736s-160,71.968-160,160.736C 64,279.456, 91.2,327.68, 132.64,356.704L 132.512,356.928c 0.352,0.192, 0.736,0.32, 1.12,0.608
			c 14.592,10.016, 18.304,30.016, 8.32,44.672C 131.936,416.864, 112.032,420.608, 97.44,410.56C 96.96,410.208, 96.576,409.792, 96.096,409.44L 96.064,409.504
			C 38.048,368.8,0,301.344,0,224.832c0-124.288, 100.288-225.088, 224-225.088s 224,100.8, 224,225.088C 448,301.344, 409.952,368.8, 351.936,409.504z M 224,192
			c 17.696,0, 32,14.304, 32,32L 256,447.968 C 256,465.664, 241.696,480, 224,480C 206.336,480, 192,465.664, 192,447.968L 192,224 C 192,206.304, 206.336,192, 224,192z" data-tags="power-16" />
<glyph unicode="&#xe011;" d="M 437.024,405.024c-99.968,100-262.048,99.968-362.048,0c-99.968-99.936-99.968-262.048, 0.032-362.016
			c 99.968-99.968, 262.048-99.968, 362.016-0.032C 537.024,142.944, 537.024,305.056, 437.024,405.024z M 373.6,154.528
			c 13.76-13.76, 14.112-35.648, 0.864-48.928c-13.28-13.28-35.2-12.864-48.896,0.864L 256.032,175.968L 186.24,106.176
			c-13.76-13.728-35.648-14.112-48.896-0.864c-13.28,13.28-12.864,35.2, 0.832,48.928L 208,224.032L 138.176,293.856
			C 124.448,307.552, 124.064,329.44, 137.344,342.72C 150.592,356, 172.512,355.616, 186.24,341.888l 69.792-69.792l 69.536,69.536
			c 13.728,13.728, 35.616,14.112, 48.896,0.832c 13.248-13.28, 12.864-35.168-0.864-48.896L 304.096,224.032L 373.6,154.528z" data-tags="cross-circle-16" />
<glyph unicode="&#xe014;" d="M 131.456,352l 10.667,32l 227.755,0 l 10.667-32L 131.456,352 z M 120.789,320L 110.123,288l 291.755,0 l-10.667,32L 120.789,320 z M 510.357,266.133l-64,192
	C 442.005,471.189, 429.781,480, 416,480l-320,0 C 82.219,480, 69.995,471.189, 65.643,458.133l-64-192C 0.555,262.848,0,259.435,0,256l0-256 C0-17.664, 14.336-32, 32-32
	l 448,0 c 17.664,0, 32,14.336, 32,32l0,256 C 512,259.435, 511.467,262.848, 510.357,266.133z M 119.061,416l 273.877,0 l 53.333-160L 65.728,256 L 119.061,416z" data-tags="results-24" />
<glyph unicode="&#xe015;" d="M0,0C0-17.664, 14.336-32, 32-32l 384,0 c 17.664,0, 32,14.336, 32,32L 448,288 L0,288 L0,0 z M 137.365,150.635c 12.501,12.501, 32.747,12.501, 45.248,0
	l 23.808-23.808l 89.472,102.272c 11.627,13.291, 31.851,14.635, 45.163,3.008c 13.291-11.627, 14.635-31.851, 3.008-45.163l-112-128
	c-5.824-6.656-14.165-10.603-23.019-10.901C 208.704,48, 208.363,48, 208,48c-8.469,0-16.619,3.371-22.635,9.365l-48,48
	C 124.885,117.867, 124.885,138.133, 137.365,150.635z M 448,384l0-64 L0,320 l0,64 C0,401.664, 14.336,416, 32,416L 64,416 L 64,448 C 64,465.664, 78.336,480, 96,480S 128,465.664, 128,448L 128,416 l 192,0 L 320,448 
	C 320,465.664, 334.336,480, 352,480S 384,465.664, 384,448L 384,416 l 32,0 C 433.664,416, 448,401.664, 448,384z" data-tags="tasks-24-new" />
<glyph unicode="&#xe016;" d="M 199.43,480L 37.030,480 c-20.416,0-37.037-16.762-37.037-37.344l0-345.696 l 24.403,36.96
		l 24.691-37.056l 23.078,37.056l 25.069-37.056l 24.218,37.056l 24.314-37.056l 24.211,37.056l 24.314-37.056l 24.218,37.056l 24.314-37.056l 24.314,37.056l 27.066-37.056
		l0-0.864 l 0.186,0 L 294.387,384.243 L 199.43,384.243 L 199.43,480 z M 237.414,202.291c0-5.261-4.269-9.574-9.491-9.574L 66.477,192.717 c-5.222,0-9.498,4.314-9.498,9.574l0,9.581 
		c0,5.267, 4.275,9.574, 9.498,9.574l 161.446,0 c 5.222,0, 9.491-4.307, 9.491-9.574L 237.414,202.291 z M 237.414,259.75c0-5.261-4.269-9.574-9.491-9.574
		L 66.477,250.176 c-5.222,0-9.498,4.314-9.498,9.574l0,9.581 c0,5.267, 4.275,9.574, 9.498,9.574l 161.446,0 c 5.222,0, 9.491-4.307, 9.491-9.574L 237.414,259.75 z
		 M 227.923,336.358c 5.222,0, 9.491-4.314, 9.491-9.574l0-9.581 c0-5.261-4.269-9.574-9.491-9.574L 66.477,307.629 c-5.222,0-9.498,4.314-9.498,9.574
		l0,9.581 c0,5.261, 4.275,9.574, 9.498,9.574L 227.923,336.358 z M 218.426,470.426l0-67.034 l 66.477,0 L 218.426,470.426zM 218.426,470.426l0-67.034 l 66.477,0 L 218.426,470.426zM 218.426,470.426l0-67.034 l 66.477,0 L 218.426,470.426z" data-tags="Page" />
<glyph unicode="&#xe017;" d="M 236.333,480c 72.493,0, 131.264-58.381, 131.264-130.394c0-72.013-58.771-130.4-131.264-130.4S 105.069,277.594, 105.069,349.606
		C 105.069,421.619, 163.84,480, 236.333,480zM 238.157,371.066c 58.669,0, 106.227-47.245, 106.227-105.536c0-58.278-47.565-105.523-106.227-105.523s-106.234,47.245-106.234,105.523
		C 131.923,323.821, 179.494,371.066, 238.157,371.066zM 357.030,359.808c 50.246,0, 90.963-40.467, 90.963-90.374c0-49.901-40.723-90.355-90.963-90.355
		c-50.253,0-90.97,40.454-90.97,90.355C 266.061,319.341, 306.784,359.808, 357.030,359.808zM 103.782,372.026c 57.318,0, 103.782-46.163, 103.782-103.104c0-56.947-46.47-103.098-103.782-103.098
		c-57.318,0-103.782,46.15-103.782,103.098C 0,325.869, 46.464,372.026, 103.782,372.026zM 122.893,436.71c 39.277,0, 71.117-31.629, 71.117-70.662c0-39.008-31.84-70.65-71.117-70.65
		c-39.277,0-71.123,31.635-71.123,70.65C 51.776,405.082, 83.616,436.71, 122.893,436.71z" data-tags="Cloud" />
<glyph unicode="&#xe018;" d="M 393.846,288c0-139.658-166.617-303.714-173.745-310.646C 213.74-28.849, 205.292-32, 196.923-32c-8.409,0-16.817,3.151-23.198,9.354
	C 166.617-15.714,0,148.342,0,288C0,393.846, 88.32,480, 196.923,480S 393.846,393.846, 393.846,288z M 196.923,192c 54.39,0, 98.462,42.988, 98.462,96s-44.071,96-98.462,96
	c-54.37,0-98.462-42.988-98.462-96S 142.553,192, 196.923,192z" horiz-adv-x="472.615" data-tags="venues" />
<glyph unicode="&#xe019;" d="M 443.2,426.24c 6.677-6.677, 6.677-17.621,0-24.32l-133.888-133.739c-6.677-6.677-6.677-17.621,0-24.341l 133.824-133.781
	c 6.677-6.699, 6.677-17.621,0-24.32l-48.747-48.576c-6.699-6.656-17.664-6.656-24.363,0l-133.781,133.781c-6.677,6.656-17.664,6.656-24.341,0
	l-133.888-133.696c-6.677-6.677-17.664-6.677-24.341,0l-48.683,48.64c-6.677,6.656-6.677,17.621,0,24.299l 133.931,133.739
	c 6.677,6.656, 6.677,17.621,0,24.32L 5.12,402.069c-6.677,6.699-6.677,17.664,0,24.32l 48.725,48.597c 6.677,6.677, 17.643,6.677, 24.341-0.021
	l 133.781-133.76c 6.699-6.72, 17.664-6.72, 24.341-0.021l 133.888,133.696c 6.656,6.656, 17.643,6.656, 24.341,0L 443.2,426.24z" data-tags="cross-24" />
<glyph unicode="&#xe01a;" d="M 83.034,480c 22.708,0, 41.126-18.543, 41.126-41.403c0-22.867-18.418-41.403-41.126-41.403c-22.715,0-41.126,18.536-41.126,41.403
	C 41.915,461.457, 60.326,480, 83.034,480zM 83.041,387.944C 37.272,387.944,-3.411,367.568,-3.411,367.568l 5.085-179.408c0-11.319, 9.105-20.48, 20.342-20.48c 0.969,0, 1.882,0.152, 2.795,0.304
	L 37.272-11.52c0-11.319, 8.268-20.48, 19.504-20.48s 19.504,9.161, 19.504,20.48L 76.281,159.765 l 10.171,0 L 86.452-11.52 c0-11.319, 9.936-20.48, 21.179-20.48
	c 11.236,0, 20.757,9.161, 20.757,20.48l 12.669,179.504c 0.913-0.152, 1.937-0.304, 2.899-0.304c 11.236,0, 20.397,9.161, 20.397,20.48l 5.113,179.456
	C 169.465,367.616, 128.81,387.944, 83.041,387.944z M 93.212,239.36l-10.171-10.24l-10.171,10.24l 5.085,122.88l-5.085,10.233c0,0,0,5.12, 10.171,5.12
	s 10.171-5.12, 10.171-5.12L 88.126,362.24L 93.212,239.36z" horiz-adv-x="166.054" data-tags="male-pictogram" />
<glyph unicode="&#xe01b;" d="M 162.56,325.030l-5.231,0 l 60.824-188.727l-57.96,0 l-22.625-168.296l-32.643,0 l-22.68,168.296L 24.278,136.296 l 60.824,188.727l-5.784,0 L 21.082,204.675
	L-3.134,213.179l 72.773,172.343l 37.597,0 l 1.764,7.279c-29.122,1.778-45.582,9.043-50.813,27.648c 6.718-0.782, 20.701,7.549, 21.912,15.374
	c0,0.221,0,0.221,0,0.221L 80.1,438.542 C 80.1,461.402, 98.546,480, 121.434,480c 22.189,0, 40.628-18.598, 40.628-41.458l0-2.498 c0,0,0,0,0-0.221
	c 1.488-7.832, 14.917-16.156, 21.905-15.374c-5.224-18.598-21.414-25.87-50.806-27.648l 1.75-7.279l 37.604,0 l 72.773-172.343l-24.216-8.496
	L 162.56,325.030z" horiz-adv-x="242.162" data-tags="female-pictogram" />
<glyph unicode="&#xe01c;" d="M 181.333,480l 54.421-54.421L 108.8,298.667l 126.955-126.912L 181.333,117.333L0,298.667L 181.333,480z" data-tags="arrow-previous" />
<glyph unicode="&#xe01d;" d="M 54.421,117.333L0,171.755L 126.976,298.667L0,425.579L 54.421,480l 181.333-181.333L 54.421,117.333z" data-tags="arrow-next" />
<glyph unicode="&#xe01e;" d="M 384,480L 42.667,480 C 19.115,480,0,460.885,0,437.333l0-426.667 c0-23.552, 19.115-42.667, 42.667-42.667l 341.333,0 c 23.552,0, 42.667,19.115, 42.667,42.667L 426.667,437.333 
			C 426.667,460.885, 407.552,480, 384,480z M 234.667,106.667c0-5.888-4.8-10.667-10.667-10.667l-149.333,0 C 68.779,96, 64,100.779, 64,106.667l0,21.333 C 64,133.888, 68.779,138.667, 74.667,138.667l 149.333,0 
			c 5.867,0, 10.667-4.779, 10.667-10.667L 234.667,106.667 z M 362.667,192c0-5.888-4.8-10.667-10.667-10.667l-277.333,0 C 68.779,181.333, 64,186.112, 64,192l0,21.333 C 64,219.221, 68.779,224, 74.667,224
			l 277.333,0 c 5.867,0, 10.667-4.779, 10.667-10.667L 362.667,192 z M 362.667,277.333c0-5.888-4.8-10.667-10.667-10.667l-277.333,0 C 68.779,266.667, 64,271.445, 64,277.333l0,21.333 C 64,304.555, 68.779,309.333, 74.667,309.333l 277.333,0 
			C 357.867,309.333, 362.667,304.555, 362.667,298.667L 362.667,277.333 z M 362.667,362.667C 362.667,356.779, 357.867,352, 352,352l-277.333,0 C 68.779,352, 64,356.779, 64,362.667l0,21.333 C 64,389.888, 68.779,394.667, 74.667,394.667l 277.333,0 
			C 357.867,394.667, 362.667,389.888, 362.667,384L 362.667,362.667 z" data-tags="document-24" />
<glyph unicode="&#xe01f;" d="M 256,479.979C 114.667,479.979, 0.064,365.376, 0.064,224c0-141.397, 114.603-256, 255.936-256c 141.355,0, 255.957,114.603, 255.957,256
			C 511.957,365.376, 397.376,479.979, 256,479.979z M 350.123,123.52l-7.467-7.445c-6.208-6.229-16.661-6.528-23.211-0.64l-96.405,84.373
			c-6.571,5.867-11.541,17.899-11.115,26.667l 8.939,152.192C 221.333,387.477, 228.885,394.667, 237.696,394.667l 10.517,0 c 8.811,0, 16.363-7.189, 16.789-16
			l 7.317-126.571c 0.448-8.811, 5.589-21.355, 11.435-27.947l 67.051-77.419C 356.629,140.203, 356.373,129.749, 350.123,123.52z" data-tags="time-24" />
<glyph unicode="&#x20;" horiz-adv-x="256" />
</font>
</defs>
</svg>
