<?xml version="1.0" standalone="no"?>
<!DOCTYPE svg PUBLIC "-//W3C//DTD SVG 1.1//EN" "http://www.w3.org/Graphics/SVG/1.1/DTD/svg11.dtd" >
<svg xmlns="http://www.w3.org/2000/svg">
<metadata>Generated by IcoMoon</metadata>
<defs>
<font id="icomoon" horiz-adv-x="512">
<font-face units-per-em="512" ascent="480" descent="-32" />
<missing-glyph horiz-adv-x="512" />
<glyph unicode="&#x20;" d="" horiz-adv-x="256" />
<glyph unicode="&#xe000;" d="M224.512 298.144c53.28 0 96.512 40.672 96.512 90.944-0.032 50.208-43.232 90.912-96.512 90.912s-96.512-40.704-96.512-90.912c0-50.24 43.232-90.944 96.512-90.944zM300.16 291.84c-21.28-14.72-47.296-23.712-75.648-23.712-28.48 0-54.56 9.056-75.872 23.872-86.624-18.656-148.64-68.416-148.64-127.008v-129.44c0-8.576 7.2-15.552 16-15.552h32c8.8 0 16 6.304 16 14.048 0 4.48 0 100.928 0 100.928 0 8.32 4.768 4.992 10.688 4.992 5.888 0 10.656-4.512 10.656-9.984l0.16-89.984c0.448-5.184 4.8-42.208 10.272-43.296 0 0 33.28-28.672 128.224-28.672 95.616 0 128.224 28.672 128.224 28.672 5.472 1.056 9.856 38.080 10.272 43.296l0.16 89.984c0 5.504 4.768 9.984 10.688 9.984 5.888 0 10.656-4.512 10.656-9.984 0 0 0-91.456 0-95.936 0-7.744 7.2-14.048 16-14.048h32c8.8 0 16 7.008 16 15.552v129.44c0 58.432-61.696 108.064-147.84 126.848z" />
<glyph unicode="&#xe001;" d="M383.984 288c0-139.664-162.464-303.696-169.376-310.608-6.24-6.256-14.416-9.376-22.608-9.376s-16.368 3.12-22.624 9.376c-6.928 6.896-169.376 170.96-169.376 310.608 0 105.888 86.128 192 192 192s191.984-86.128 191.984-192zM192 192c53.008 0 96 42.976 96 96s-42.992 96-96 96-96-42.976-96-96 42.992-96 96-96z" />
<glyph unicode="&#xe002;" d="M0 480l384-224.032-384-223.936v447.968z" />
<glyph unicode="&#xe003;" d="M384 32.032l-384 223.936 384 224.032v-447.968z" />
<glyph unicode="&#xe004;" d="M0 480l192-256.192 192 256.192h-384z" />
<glyph unicode="&#xe005;" d="M512-16c0-2.752-0.704-5.483-2.112-7.936-2.837-4.971-8.149-8.064-13.888-8.064h-480c-5.76 0-11.051 3.093-13.888 8.064-1.408 2.453-2.112 5.184-2.112 7.936 0 2.816 0.747 5.611 2.219 8.128l157.781 268.224v123.648h192v-123.648l157.781-268.224c1.472-2.517 2.219-5.312 2.219-8.128zM384 416v48c0 8.789-7.211 16-16 16h-224c-8.789 0-16-7.211-16-16v-48h256z" />
<glyph unicode="&#xe006;" d="M480.256 355.136c-10.88 17.984-24.288 35.584-40.672 51.904-16.608 16.448-34.496 29.984-52.8 40.8l32.16 32.16c0 0 46.528 0 69.824-23.264 23.232-23.296 23.232-69.824 23.232-69.824l-31.744-31.776zM193.6 64.384h-97.216v97.216l11.68 11.68c19.776-9.28 39.392-22.464 57.088-40.16 17.696-17.664 30.848-37.344 40.16-57.088l-11.712-11.648zM453.376 328.256l-220-224.16c-11.36 18.816-25.344 37.152-42.496 54.176-17.344 17.216-36.032 31.36-55.168 42.656l224.576 220.448c18.912-8.928 37.728-21.472 54.656-38.432s29.504-35.712 38.432-54.688zM64 416v-383.968h384v159.968l64 63.968v-241.44c0-25.696-20.8-46.528-46.528-46.528h-418.944c-25.696 0-46.528 20.832-46.528 46.528v418.912c0 25.728 20.832 46.56 46.528 46.56h241.472l-64-64h-160z" />
<glyph unicode="&#xe007;" d="M459.093 263.552c-8.704 1.259-18.005 9.152-20.715 17.515l-12.992 31.573c-4.117 7.787-3.115 19.968 2.133 26.987l21.12 28.117c5.248 7.040 4.843 18.197-1.003 24.789l-23.125 23.168c-6.635 5.803-17.749 6.229-24.832 0.96l-28.075-21.099c-7.040-5.269-19.157-6.251-26.965-2.155l-31.573 13.013c-8.427 2.667-16.299 11.989-17.493 20.693l-4.992 34.752c-1.216 8.725-9.408 16.597-18.133 17.536-0.043 0.023-5.483 0.599-16.448 0.599-10.987 0-16.427-0.576-16.427-0.576-8.747-0.917-16.939-8.811-18.155-17.536l-4.992-34.752c-1.237-8.704-9.088-18.027-17.493-20.693l-31.573-13.013c-7.787-4.118-19.925-3.137-26.944 2.133l-28.117 21.098c-7.040 5.291-18.197 4.864-24.789-0.96l-23.147-23.168c-5.803-6.613-6.251-17.749-0.981-24.789l21.077-28.117c5.291-7.019 6.251-19.179 2.176-26.987l-13.035-31.573c-2.667-8.384-11.989-16.256-20.715-17.515l-34.752-4.949c-8.704-1.259-16.576-9.429-17.515-18.197 0 0-0.576-5.419-0.576-16.405 0-10.965 0.576-16.427 0.576-16.427 0.917-8.747 8.811-16.939 17.515-18.176l34.752-4.949c8.725-1.237 18.048-9.131 20.715-17.493l13.056-31.573c4.075-7.787 3.115-19.968-2.176-26.965l-21.077-28.117c-5.291-7.040-6.549-16.597-2.816-21.205 3.733-4.608 14.421-16.043 14.464-16.085 0.021-0.043 3.627-3.328 8-7.339 4.373-4.011 22.229-9.579 29.269-4.309l28.117 21.099c7.040 5.269 19.157 6.229 26.965 2.133l31.573-12.992c8.405-2.688 16.277-11.989 17.493-20.715l4.992-34.752c1.216-8.725 9.408-16.619 18.155-17.536 0 0 5.44-0.555 16.427-0.555 10.965 0 16.405 0.555 16.405 0.555 8.725 0.917 16.917 8.811 18.133 17.536l4.992 34.752c1.216 8.725 9.088 18.027 17.493 20.715l31.573 13.013c7.787 4.096 19.925 3.115 26.965-2.133l28.117-21.12c7.083-5.269 18.219-4.843 24.832 0.981l23.083 23.125c5.824 6.635 6.251 17.792 1.003 24.832l-21.12 28.117c-5.248 6.997-6.251 19.157-2.133 26.965l12.992 31.573c2.709 8.384 11.989 16.277 20.715 17.493l34.752 4.949c8.747 1.237 16.576 9.408 17.536 18.176 0 0 0.576 5.461 0.576 16.427 0 10.987-0.576 16.405-0.576 16.405-0.96 8.768-8.789 16.939-17.536 18.197l-34.751 4.949zM256 160.021c-35.349 0-64 28.629-64 64 0 35.349 28.651 64 64 64 35.328 0 63.957-28.672 63.957-64 0-35.37-28.629-64-63.957-64z" />
<glyph unicode="&#xe008;" d="M512-16c0-8.8-7.2-16-16-16h-480c-8.8 0-16 7.2-16 16v96c0 8.8 7.2 16 16 16h480c8.8 0 16-7.2 16-16v-96zM512 272c0 8.8-7.2 16-16 16h-480c-8.8 0-16-7.2-16-16v-96c0-8.8 7.2-16 16-16h480c8.8 0 16 7.2 16 16v96zM512 464c0 8.8-7.2 16-16 16h-480c-8.8 0-16-7.2-16-16v-96c0-8.8 7.2-16 16-16h480c8.8 0 16 7.2 16 16v96z" />
<glyph unicode="&#xe009;" d="M448 384v-384c0-17.664-14.336-32-32-32h-384c-17.664 0-32 14.336-32 32v384c0 17.664 14.336 32 32 32h32v32c0 17.664 14.336 32 32 32s32-14.336 32-32v-32h64v32c0 17.664 14.336 32 32 32s32-14.336 32-32v-32h64v32c0 17.664 14.336 32 32 32s32-14.336 32-32v-32h32c17.664 0 32-14.336 32-32zM384 288h-320v-32h320v32zM384 192h-320v-32h320v32zM384 96h-320v-32h320v32z" />
<glyph unicode="&#xe00a;" d="M0 0c0-17.664 14.336-32 32-32h384c17.664 0 32 14.336 32 32v288h-448v-288zM128 160h64v64h64v-64h64v-64h-64v-64h-64v64h-64v64zM448 384v-64h-448v64c0 17.664 14.336 32 32 32h32v32c0 17.664 14.336 32 32 32s32-14.336 32-32v-32h192v32c0 17.664 14.336 32 32 32s32-14.336 32-32v-32h32c17.664 0 32-14.336 32-32z" />
<glyph unicode="&#xe00b;" d="M448 256c0-8.32-3.264-16.512-9.376-22.624l-160-160c-5.984-6.016-14.144-9.376-22.624-9.376-8.512 0-16.64 3.36-22.624 9.376l-160 160c-6.112 6.112-9.376 14.304-9.376 22.624 0 4.128 0.8 8.288 2.432 12.256 4.96 11.936 16.64 19.744 29.568 19.744h80v160c0 17.696 14.336 32 32 32h96c17.696 0 32-14.304 32-32v-160h80c12.928 0 24.64-7.808 29.568-19.744 1.632-3.968 2.432-8.128 2.432-12.256zM448 32h-384v128h-64v-128c0-35.328 28.672-64 64-64h384c35.328 0 64 28.672 64 64v128h-64v-128z" />
<glyph unicode="&#xe00c;" d="M407.52 326.006l35.958 35.584c6.282 6.203 6.282 16.404 0 22.607l-22.882 22.626c-6.282 6.203-16.581 6.203-22.863 0l-35.958-35.564c-29.637 21.937-64.906 36.844-103.247 42.279l0.001 50.334c0 8.783-7.327 15.99-16.208 15.99h-32.354c-8.881 0-16.187-7.207-16.187-15.99v-50.314c-109.726-15.537-194.088-108.879-194.088-221.696 0-123.707 101.396-224 226.462-224s226.461 100.293 226.461 224c0 50.314-16.797 96.748-45.095 134.144zM177.632 189.617c0 26.506 21.721 48.010 48.522 48.010 15.99 0 30.090-7.7 38.951-19.456l140.465-12.623c8.33-0.748 14.69-7.68 14.69-15.931 0-8.29-6.361-15.202-14.69-15.97l-140.465-12.623c-8.842-11.796-22.961-19.417-38.951-19.417-26.802 0-48.522 21.465-48.522 48.010z" horiz-adv-x="472" />
<glyph unicode="&#xe00d;" d="M256 480c-141.376 0-256-114.592-256-255.968 0-141.408 114.624-256.032 256-256.032 141.376 0 256 114.624 256 256.032 0 141.376-114.624 255.968-256 255.968zM421.44 276.064l-183.648-183.616c-3.744-3.744-9.856-3.744-13.568 0l-27.136 27.392c-3.712 3.776-9.856 9.952-13.568 13.696l-63.168 66.4c-1.856 1.856-2.848 4.48-2.848 6.944 0 2.496 0.992 4.864 2.848 6.752l27.68 24.96c1.888 1.92 4.384 2.816 6.848 2.816 2.432-0.032 4.864-0.992 6.72-2.816l62.624-63.936c3.744-3.808 9.824-3.808 13.568 0l142.944 142.56c3.712 3.744 9.856 3.744 13.568 0l27.168-27.456c3.712-3.744 3.712-9.92-0.032-13.696z" />
<glyph unicode="&#xe00e;" d="M496 480c8.789 0 16-7.211 16-16v-480c0-8.811-7.211-16-16-16h-96c-8.789 0-16 7.189-16 16v480c0 8.789 7.211 16 16 16h96zM208 352c-8.789 0-16-7.211-16-16v-352c0-8.811 7.211-16 16-16h96c8.789 0 16 7.189 16 16v352c0 8.789-7.211 16-16 16h-96zM16 224c-8.789 0-16-7.211-16-16v-224c0-8.811 7.211-16 16-16h96c8.789 0 16 7.189 16 16v224c0 8.789-7.211 16-16 16h-96z" />
<glyph unicode="&#xe00f;" d="M472.128 325.152l-267.392-267.392c-5.472-5.504-14.4-5.504-19.776 0l-39.52 39.872c-5.408 5.536-14.368 14.528-19.776 19.936l-92 96.704c-2.688 2.72-4.16 6.56-4.16 10.112 0 3.616 1.472 7.104 4.16 9.856l40.288 36.352c2.752 2.784 6.4 4.096 9.984 4.096 3.552-0.032 7.104-1.408 9.792-4.096l91.232-93.12c5.44-5.568 14.304-5.568 19.776 0l208.192 207.616c5.344 5.472 14.336 5.472 19.744 0l39.552-39.968c5.408-5.472 5.408-14.464-0.096-19.968z" />
<glyph unicode="&#xe010;" d="M228.928 84.032l144.64-113.248c2.368-1.888 3.808-2.816 5.184-2.816 4 0 5.248 2.752 5.248 7.264v107.2c0 7.552 4.992 13.568 11.68 13.568h52.576c63.744 0 63.68 30.72 63.68 30.72v320.032c0 0 0 33.28-63.936 33.28h-383.968c-64 0-64-33.28-64-33.28v-320.032c0 0-0.032-30.72 64.224-30.72h128c0 0 26.784-0.736 36.672-11.968z" />
<glyph unicode="&#xe011;" d="M437.024 405.024c-99.968 100-262.048 99.968-362.048 0-99.968-99.936-99.968-262.048 0.032-362.016 99.968-99.968 262.048-99.968 362.016-0.032 100 99.968 100 262.080 0 362.048zM373.6 154.528c13.76-13.76 14.112-35.648 0.864-48.928-13.28-13.28-35.2-12.864-48.896 0.864l-69.536 69.504-69.792-69.792c-13.76-13.728-35.648-14.112-48.896-0.864-13.28 13.28-12.864 35.2 0.832 48.928l69.824 69.792-69.824 69.824c-13.728 13.696-14.112 35.584-0.832 48.864 13.248 13.28 35.168 12.896 48.896-0.832l69.792-69.792 69.536 69.536c13.728 13.728 35.616 14.112 48.896 0.832 13.248-13.28 12.864-35.168-0.864-48.896l-69.504-69.536 69.504-69.504z" />
<glyph unicode="&#xe012;" d="M448-16.192l-192 256.192-192-256 384-0.192z" />
<glyph unicode="&#xe013;" d="M351.936 409.504l-0.064-0.032c-0.448 0.32-0.8 0.768-1.312 1.12-14.592 10.016-34.496 6.304-44.512-8.352-9.984-14.656-6.24-34.656 8.32-44.672 0.384-0.32 0.768-0.448 1.12-0.64l-0.128-0.224c41.44-29.024 68.64-77.248 68.64-131.872 0-88.768-71.648-160.736-160-160.736s-160 71.968-160 160.736c0 54.624 27.2 102.848 68.64 131.872l-0.128 0.224c0.352 0.192 0.736 0.32 1.12 0.608 14.592 10.016 18.304 30.016 8.32 44.672-10.016 14.656-29.92 18.4-44.512 8.352-0.48-0.352-0.864-0.768-1.344-1.12l-0.032 0.064c-58.016-40.704-96.064-108.16-96.064-184.672 0-124.288 100.288-225.088 224-225.088s224 100.8 224 225.088c0 76.512-38.048 143.968-96.064 184.672zM224 192c17.696 0 32 14.304 32 32v223.968c0 17.696-14.304 32.032-32 32.032-17.664 0-32-14.336-32-32.032v-223.968c0-17.696 14.336-32 32-32z" />
<glyph unicode="&#xe014;" d="M131.456 352l10.667 32h227.755l10.667-32h-249.089zM120.789 320l-10.666-32h291.755l-10.667 32h-270.422zM510.357 266.133l-64 192c-4.352 13.056-16.576 21.867-30.357 21.867h-320c-13.781 0-26.005-8.811-30.357-21.867l-64-192c-1.088-3.285-1.643-6.698-1.643-10.133v-256c0-17.664 14.336-32 32-32h448c17.664 0 32 14.336 32 32v256c0 3.435-0.533 6.848-1.643 10.133zM119.061 416h273.877l53.333-160h-380.543l53.333 160z" />
<glyph unicode="&#xe015;" d="M0 0c0-17.664 14.336-32 32-32h384c17.664 0 32 14.336 32 32v288h-448v-288zM137.365 150.635c12.501 12.501 32.747 12.501 45.248 0l23.808-23.808 89.472 102.272c11.627 13.291 31.851 14.635 45.163 3.008 13.291-11.627 14.635-31.851 3.008-45.163l-112-128c-5.824-6.656-14.165-10.603-23.019-10.901-0.341-0.043-0.682-0.043-1.045-0.043-8.469 0-16.619 3.371-22.635 9.365l-48 48c-12.48 12.502-12.48 32.768 0 45.27zM448 384v-64h-448v64c0 17.664 14.336 32 32 32h32v32c0 17.664 14.336 32 32 32s32-14.336 32-32v-32h192v32c0 17.664 14.336 32 32 32s32-14.336 32-32v-32h32c17.664 0 32-14.336 32-32z" />
<glyph unicode="&#xe016;" d="M199.43 480h-162.4c-20.416 0-37.037-16.762-37.037-37.344v-345.696l24.403 36.96 24.691-37.056 23.078 37.056 25.069-37.056 24.218 37.056 24.314-37.056 24.211 37.056 24.314-37.056 24.218 37.056 24.314-37.056 24.314 37.056 27.066-37.056v-0.864h0.186l-0.002 288.243h-94.957v95.757zM237.414 202.291c0-5.261-4.269-9.574-9.491-9.574h-161.446c-5.222 0-9.498 4.314-9.498 9.574v9.581c0 5.267 4.275 9.574 9.498 9.574h161.446c5.222 0 9.491-4.307 9.491-9.574v-9.581zM237.414 259.75c0-5.261-4.269-9.574-9.491-9.574h-161.446c-5.222 0-9.498 4.314-9.498 9.574v9.581c0 5.267 4.275 9.574 9.498 9.574h161.446c5.222 0 9.491-4.307 9.491-9.574v-9.581zM227.923 336.358c5.222 0 9.491-4.314 9.491-9.574v-9.581c0-5.261-4.269-9.574-9.491-9.574h-161.446c-5.222 0-9.498 4.314-9.498 9.574v9.581c0 5.261 4.275 9.574 9.498 9.574h161.446zM218.426 470.426v-67.034h66.477l-66.477 67.034zM218.426 470.426v-67.034h66.477l-66.477 67.034zM218.426 470.426v-67.034h66.477l-66.477 67.034z" />
<glyph unicode="&#xe017;" d="M236.333 480c72.493 0 131.264-58.381 131.264-130.394s-58.771-130.4-131.264-130.4-131.264 58.388-131.264 130.4c0 72.013 58.771 130.394 131.264 130.394zM238.157 371.066c58.669 0 106.227-47.245 106.227-105.536 0-58.278-47.565-105.523-106.227-105.523s-106.234 47.245-106.234 105.523c0 58.291 47.571 105.536 106.234 105.536zM357.030 359.808c50.246 0 90.963-40.467 90.963-90.374 0-49.901-40.723-90.355-90.963-90.355-50.253 0-90.97 40.454-90.97 90.355 0.001 49.907 40.724 90.374 90.97 90.374zM103.782 372.026c57.318 0 103.782-46.163 103.782-103.104 0-56.947-46.47-103.098-103.782-103.098-57.318 0-103.782 46.15-103.782 103.098 0 56.947 46.464 103.104 103.782 103.104zM122.893 436.71c39.277 0 71.117-31.629 71.117-70.662 0-39.008-31.84-70.65-71.117-70.65-39.277 0-71.123 31.635-71.123 70.65 0.006 39.034 31.846 70.662 71.123 70.662z" />
<glyph unicode="&#xe018;" d="M393.538 288c0-139.658-166.617-303.714-173.745-310.646-6.36-6.203-14.809-9.354-23.178-9.354-8.409 0-16.817 3.151-23.198 9.354-7.108 6.932-173.725 170.988-173.725 310.646 0 105.846 88.32 192 196.923 192s196.923-86.154 196.923-192zM196.615 192c54.39 0 98.462 42.988 98.462 96s-44.071 96-98.462 96c-54.37 0-98.462-42.988-98.462-96s44.092-96 98.462-96z" horiz-adv-x="472" />
<glyph unicode="&#xe019;" d="M443.2 426.24c6.677-6.677 6.677-17.621 0-24.32l-133.888-133.739c-6.677-6.677-6.677-17.621 0-24.341l133.824-133.781c6.677-6.699 6.677-17.621 0-24.32l-48.747-48.576c-6.699-6.656-17.664-6.656-24.363 0l-133.781 133.781c-6.677 6.656-17.664 6.656-24.341 0l-133.888-133.696c-6.677-6.677-17.664-6.677-24.341 0l-48.683 48.64c-6.677 6.656-6.677 17.621 0 24.299l133.931 133.739c6.677 6.656 6.677 17.621 0 24.32l-133.803 133.823c-6.677 6.699-6.677 17.664 0 24.32l48.725 48.597c6.677 6.677 17.643 6.677 24.341-0.021l133.781-133.76c6.699-6.72 17.664-6.72 24.341-0.021l133.888 133.696c6.656 6.656 17.643 6.656 24.341 0l48.663-48.64z" />
<glyph unicode="&#xe01a;" d="M83.007 480c22.708 0 41.126-18.543 41.126-41.403 0-22.867-18.418-41.403-41.126-41.403-22.715 0-41.126 18.536-41.126 41.403 0.007 22.86 18.418 41.403 41.126 41.403zM83.014 387.944c-45.769 0-86.452-20.376-86.452-20.376l5.085-179.408c0-11.319 9.105-20.48 20.342-20.48 0.969 0 1.882 0.152 2.795 0.304l12.461-179.504c0-11.319 8.268-20.48 19.504-20.48s19.504 9.161 19.504 20.48l0.001 171.285h10.171v-171.285c0-11.319 9.936-20.48 21.179-20.48 11.236 0 20.757 9.161 20.757 20.48l12.669 179.504c0.913-0.152 1.937-0.304 2.899-0.304 11.236 0 20.397 9.161 20.397 20.48l5.113 179.456c-0.001 0-40.656 20.328-86.425 20.328zM93.185 239.36l-10.171-10.24-10.171 10.24 5.085 122.88-5.085 10.233c0 0 0 5.12 10.171 5.12s10.171-5.12 10.171-5.12l-5.086-10.233 5.086-122.88z" horiz-adv-x="166" />
<glyph unicode="&#xe01b;" d="M162.479 325.030h-5.231l60.824-188.727h-57.96l-22.625-168.296h-32.643l-22.68 168.296-57.967-0.007 60.824 188.727h-5.784l-58.236-120.348-24.216 8.504 72.773 172.343h37.597l1.764 7.279c-29.122 1.778-45.582 9.043-50.813 27.648 6.718-0.782 20.701 7.549 21.912 15.374 0 0.221 0 0.221 0 0.221l0.001 2.498c0 22.86 18.446 41.458 41.334 41.458 22.189 0 40.628-18.598 40.628-41.458v-2.498c0 0 0 0 0-0.221 1.488-7.832 14.917-16.156 21.905-15.374-5.224-18.598-21.414-25.87-50.806-27.648l1.75-7.279h37.604l72.773-172.343-24.216-8.496-58.512 120.347z" horiz-adv-x="242" />
<glyph unicode="&#xe01c;" d="M181.333 480l54.421-54.421-126.954-126.912 126.955-126.912-54.422-54.422-181.333 181.334 181.333 181.333z" />
<glyph unicode="&#xe01d;" d="M54.421 117.333l-54.421 54.422 126.976 126.912-126.976 126.912 54.421 54.421 181.333-181.333-181.333-181.334z" />
<glyph unicode="&#xe01e;" d="M384 480h-341.333c-23.552 0-42.667-19.115-42.667-42.667v-426.667c0-23.552 19.115-42.667 42.667-42.667h341.333c23.552 0 42.667 19.115 42.667 42.667v426.667c0 23.552-19.115 42.667-42.667 42.667zM234.667 106.667c0-5.888-4.8-10.667-10.667-10.667h-149.333c-5.888 0-10.667 4.779-10.667 10.667v21.333c0 5.888 4.779 10.667 10.667 10.667h149.333c5.867 0 10.667-4.779 10.667-10.667v-21.333zM362.667 192c0-5.888-4.8-10.667-10.667-10.667h-277.333c-5.888 0-10.667 4.779-10.667 10.667v21.333c0 5.888 4.779 10.667 10.667 10.667h277.333c5.867 0 10.667-4.779 10.667-10.667v-21.333zM362.667 277.333c0-5.888-4.8-10.667-10.667-10.667h-277.333c-5.888 0.001-10.667 4.779-10.667 10.667v21.333c0 5.889 4.779 10.667 10.667 10.667h277.333c5.867 0 10.667-4.778 10.667-10.666v-21.334zM362.667 362.667c0-5.888-4.8-10.667-10.667-10.667h-277.333c-5.888 0-10.667 4.779-10.667 10.667v21.333c0 5.888 4.779 10.667 10.667 10.667h277.333c5.867 0 10.667-4.779 10.667-10.667v-21.333z" />
<glyph unicode="&#xe01f;" d="M204.5 433.92c42.368 0 82.253-16.512 112.23-46.464 29.978-30.003 46.49-69.862 46.49-112.256 0-42.368-16.538-82.253-46.49-112.23s-69.862-46.49-112.23-46.49-82.253 16.538-112.23 46.49-46.49 69.862-46.49 112.23c0 42.394 16.538 82.253 46.49 112.256 29.977 29.978 69.862 46.464 112.23 46.464zM204.5 480c-113.101 0-204.8-91.699-204.8-204.8s91.699-204.8 204.8-204.8 204.8 91.699 204.8 204.8-91.699 204.8-204.8 204.8v0zM283.86 207.181c7.859 0 15.514 4.122 19.712 11.418 6.221 10.854 2.432 24.755-8.448 30.925l-67.917 38.861v100.223c0 12.493-10.138 22.656-22.682 22.656s-22.682-10.138-22.682-22.656l0.001-113.408c0-8.115 4.378-15.642 11.418-19.712l79.386-45.338c3.532-1.996 7.346-2.969 11.212-2.969v0z" horiz-adv-x="409" />
<glyph unicode="&#xe020;" d="M251.328 155.328c3.104-3.136 4.672-7.232 4.672-11.328s-1.568-8.192-4.672-11.328l-84.704-84.672 52.672-52.672c3.072-3.072 4.704-7.136 4.704-11.328 0-2.048-0.416-4.128-1.216-6.112-2.464-5.984-8.32-9.888-14.784-9.888h-192c-8.832 0-16 7.168-16 16v192c0 6.464 3.904 12.32 9.888 14.784 1.984 0.8 4.064 1.216 6.112 1.216 4.16 0 8.256-1.632 11.328-4.672l52.672-52.704 84.672 84.672c3.136 3.136 7.232 4.704 11.328 4.704s8.192-1.568 11.328-4.672l64-64zM496 480h-192c-6.464 0-12.32-3.904-14.784-9.888-0.8-1.952-1.216-4.064-1.216-6.112 0-4.16 1.632-8.256 4.672-11.328l52.704-52.672-84.704-84.672c-3.104-3.136-4.672-7.232-4.672-11.328s1.568-8.192 4.672-11.328l64-64c3.136-3.104 7.232-4.672 11.328-4.672s8.192 1.568 11.328 4.672l84.672 84.704 52.672-52.672c3.072-3.072 7.168-4.704 11.328-4.704 2.048 0 4.128 0.416 6.112 1.216 5.984 2.464 9.888 8.32 9.888 14.784v192c0 8.832-7.168 16-16 16z" />
<glyph unicode="&#xe021;" d="M213.696 480c-118.016 0-213.696-95.659-213.696-213.675s95.68-213.675 213.696-213.675c118.016 0 213.696 95.659 213.696 213.675s-95.68 213.675-213.696 213.675zM320.512 244.971h-85.461v-85.461c0-11.819-9.557-21.376-21.376-21.376-11.797 0-21.376 9.557-21.376 21.376v85.461h-85.44c-11.819 0-21.376 9.557-21.376 21.376s9.557 21.376 21.376 21.376h85.461v85.461c0 11.797 9.579 21.355 21.376 21.355 11.819 0 21.376-9.557 21.376-21.355v-85.461h85.461c11.797 0 21.355-9.557 21.355-21.376s-9.579-21.376-21.376-21.376z" />
<glyph unicode="&#xe022;" d="M160 288c-17.664 0-32-14.304-32-32s14.336-32 32-32 32 14.304 32 32-14.336 32-32 32zM256 192c-17.664 0-32-14.304-32-32s14.336-32 32-32 32 14.304 32 32-14.336 32-32 32zM160 192c-17.664 0-32-14.304-32-32s14.336-32 32-32 32 14.304 32 32-14.336 32-32 32zM448 447.968h-64c0 17.696-14.304 32.032-32 32.032s-32-14.336-32-32.032h-128c0 17.696-14.336 32.032-32 32.032s-32-14.336-32-32.032h-64c-35.328 0-64-28.64-64-63.968v-320c0-35.36 28.672-64 64-64h384c35.328 0 64 28.64 64 64v320c0 35.328-28.672 63.968-64 63.968zM448 64h-384v320h64c0-17.696 14.336-32 32-32s32 14.304 32 32h128c0-17.696 14.304-32 32-32s32 14.304 32 32h64v-320zM352 288c-17.696 0-32-14.304-32-32s14.304-32 32-32 32 14.304 32 32-14.304 32-32 32zM256 288c-17.664 0-32-14.304-32-32s14.336-32 32-32 32 14.304 32 32-14.336 32-32 32zM352 192c-17.696 0-32-14.304-32-32s14.304-32 32-32 32 14.304 32 32-14.304 32-32 32z" />
<glyph unicode="&#xe023;" d="M409.6 160c70.592 0 128 57.44 128 128v64c0 70.56-57.408 128-128 128s-128-57.44-128-128v-64c0-70.56 57.408-128 128-128zM665.6 160c42.336 0 76.768 34.432 76.768 76.8v38.4c0 42.368-34.432 76.8-76.768 76.8s-76.8-34.432-76.8-76.8v-38.4c0-42.368 34.464-76.8 76.8-76.8zM808.576 100.384c-3.296 1.632-81.568 40.416-142.976 40.416-48.416 0-107.232-24.064-131.584-35.104-39.648 12.32-84.192 22.304-124.416 22.304s-84.768-9.984-124.416-22.272c-24.384 11.008-83.2 35.072-131.584 35.072-61.408 0-139.68-38.784-142.976-40.448-6.528-3.232-10.624-9.888-10.624-17.152v-19.2c0-10.592 8.608-19.2 19.2-19.2h137.056c-1.696-4-2.656-8.288-2.656-12.8v-32c0-17.696 14.336-32 32-32h448c17.664 0 32 14.304 32 32v32c0 4.512-0.96 8.8-2.688 12.8h137.088c10.592 0 19.2 8.608 19.2 19.2v19.2c0 7.264-4.096 13.92-10.624 17.184zM153.6 160c42.336 0 76.768 34.432 76.768 76.8v38.4c0 42.368-34.432 76.8-76.768 76.8s-76.8-34.432-76.8-76.8v-38.4c0-42.368 34.464-76.8 76.8-76.8z" horiz-adv-x="832" />
<glyph unicode="&#xe024;" d="M128 288v64c0 70.56 57.44 128 128 128s128-57.44 128-128v-64c0-70.56-57.44-128-128-128s-128 57.44-128 128zM494.304 60.64c-5.504 2.72-135.936 67.36-238.304 67.36s-232.8-64.64-238.304-67.36c-10.848-5.44-17.696-16.512-17.696-28.64v-32c0-17.696 14.304-32 32-32h448c17.696 0 32 14.304 32 32v32c0 12.128-6.848 23.2-17.696 28.64z" />
<glyph unicode="&#xe025;" d="M0 435.136c7.424 6.208 15.488 12.032 24.256 17.472 8.736 5.408 18.112 10.176 28.192 14.304 9.984 4.128 20.8 7.328 32.352 9.6 11.552 2.336 24.064 3.488 37.536 3.488 18.848 0 35.904-2.496 51.072-7.52s28.032-12.192 38.688-21.504c10.656-9.344 18.848-20.608 24.576-33.76s8.608-27.744 8.608-43.84c0-15.456-2.112-28.704-6.336-39.744s-9.6-20.672-16.096-28.928c-6.592-8.256-13.728-15.36-21.472-21.28-7.712-5.92-15.040-11.456-21.984-16.704-6.912-5.248-12.928-10.368-18.048-15.36-5.12-5.024-8.256-10.656-9.504-16.864l-8.448-42.176h-63.904l-6.592 48.48c-0.192 1.216-0.352 2.432-0.448 3.616-0.096 1.184-0.128 2.432-0.128 3.584 0 8.832 2.080 16.576 6.304 23.232 4.224 6.624 9.536 12.672 16 18.24 6.4 5.504 13.344 10.848 20.8 15.968 7.36 5.12 14.304 10.656 20.768 16.576 6.4 5.92 11.744 12.576 15.968 19.872 4.224 7.36 6.336 16 6.336 26.048 0 12.064-4 21.632-11.904 28.768-7.968 7.136-18.848 10.72-32.704 10.72-10.656 0-19.552-1.12-26.656-3.328s-13.28-4.64-18.4-7.392c-5.12-2.688-9.6-5.184-13.408-7.392-3.84-2.176-7.648-3.264-11.456-3.264-8.64 0-15.072 3.68-19.264 11.104l-24.704 37.984zM55.424 83.52c0 7.264 1.344 13.984 4.064 20.192s6.4 11.648 11.136 16.288c4.704 4.64 10.304 8.288 16.704 11.008 6.464 2.688 13.472 4.032 21.12 4.032 7.392 0 14.304-1.344 20.8-4.032 6.4-2.72 12.032-6.368 16.864-11.008 4.8-4.64 8.576-10.048 11.296-16.288s4.096-12.928 4.096-20.192-1.376-14.016-4.096-20.352c-2.72-6.304-6.464-11.776-11.296-16.416-4.832-4.672-10.464-8.256-16.864-10.848-6.464-2.592-13.376-3.904-20.768-3.904-7.648 0-14.656 1.312-21.12 3.936-6.4 2.592-12 6.176-16.704 10.848-4.736 4.64-8.416 10.080-11.136 16.416-2.752 6.336-4.096 13.088-4.096 20.32z" />
<glyph unicode="&#xe026;" d="M35.543 77.967c29.604 125.778 26.245 252.201 7.465 378.87-1.935 13.036-21.668 7.475-19.753-5.437 18.237-123.024 21.299-245.832-7.465-367.985-3.021-12.851 16.732-18.299 19.753-5.448v0zM91.126 395.254c-16.189 26.829-28.16 67.41-57.221 83.405-5.090 2.795-10.875 1.065-14.009-3.677-16.752-25.374-8.693-55.070-19.159-82.186-4.772-12.329 15.043-17.623 19.743-5.437 9.708 25.129 1.833 54.159 17.101 77.281-4.67-1.229-9.339-2.447-14.009-3.666 12.646-6.963 20.234-22.323 27.167-34.376 7.895-13.711 14.531-28.129 22.712-41.687 6.81-11.294 24.525-1.003 17.675 10.343v0z" />
<glyph unicode="&#xe027;" d="M7.311 443.484c130.376-32.461 255.734-31.232 388.68-16.015 12.964 1.485 13.107 21.975 0 20.48-131.092-15.012-254.443-16.794-383.242 15.278-12.81 3.195-18.248-16.558-5.438-19.743v0zM334.285 382.116c27.894 15.247 69.366 25.713 86.825 54.436 3.031 4.987 0.901 10.947-3.666 14.008-23.030 15.411-49.705 18.504-74.926 28.652-12.257 4.936-17.531-14.889-5.437-19.753 23.542-9.472 48.558-12.216 70.031-26.583-1.229 4.669-2.447 9.339-3.666 14.008-7.793-12.831-25.293-20.132-38.124-26.726-13.66-7.035-27.873-12.995-41.359-20.367-11.612-6.329-1.28-24.014 10.322-17.675v0z" />
<glyph unicode="&#xe028;" d="M399.299 403.988c-126.024 5.755-247.645 9.667-370.607 42.456-12.769 3.409-18.186-16.354-5.437-19.753 124.805-33.28 248.013-37.345 376.044-43.182 13.209-0.594 13.148 19.886 0 20.479v0zM83.364 396.718c-18.657 13.599-57.344 24.402-63.314 49.142-1.567-3.85-3.144-7.701-4.7-11.561 29.225 13.599 61.809 18.135 92.908 25.62 12.841 3.092 7.393 22.835-5.437 19.753-33.035-7.946-66.786-13.25-97.814-27.689-4.198-1.956-5.704-7.404-4.7-11.561 7.875-32.635 48.62-43.817 72.724-61.379 10.691-7.802 20.89 9.985 10.333 17.675v0z" />
<glyph unicode="&#xe029;" d="M1.331 464.568c60.488-111.759 65.751-239.432 80.241-363.121 1.516-12.954 22.016-13.097 20.48 0-14.92 127.304-20.798 258.448-83.047 373.464-6.277 11.612-23.961 1.269-17.674-10.343v0zM24.3 160.635c29.655-23.46 34.806-65.505 65.065-88.852 3.676-2.836 9.359-1.249 12.411 1.597 23.050 21.484 22.723 65.434 30.915 93.932 3.656 12.718-16.108 18.115-19.753 5.437-3.912-13.609-6.38-27.628-9.513-41.431-3.031-13.332-5.622-33.659-16.138-43.459 4.137 0.532 8.274 1.065 12.411 1.597-28.15 21.729-32.471 63.15-60.918 85.647-10.241 8.111-24.833-6.286-14.48-14.468v0z" />
<glyph unicode="&#xe02a;" d="M256 480c-169.323 0-256.256-170.645-256.256-170.645s65.6-170.688 256.256-170.688c172.651 0 256.235 170.005 256.235 170.005s-84.246 171.328-256.235 171.328zM256.384 202.667c-61.909 0-106.667 46.677-106.667 106.688 0 59.989 44.757 106.645 106.667 106.645 61.909 0 106.667-46.656 106.667-106.645 0-60.011-44.758-106.688-106.667-106.688zM256.384 373.355c-35.371-0.064-64-29.739-64-64s28.629-64.022 64-64.022c35.413 0 64 29.76 64 64.021 0 34.283-28.587 64.065-64 64.001z" />
<glyph unicode="&#xe02b;" d="M358.1 480h-230.4c-28.16 0-51.2-23.040-51.2-51.2v-25.6h-25.6c-28.16 0-51.2-23.040-51.2-51.2v-230.4c0-28.16 23.040-51.2 51.2-51.2h307.2c28.16 0 51.2 23.040 51.2 51.2v307.2c0 28.16-23.040 51.2-51.2 51.2zM67.975 124.979c0-7.629-5.99-13.619-13.645-13.619-7.68 0-13.67 5.99-13.67 13.619v218.496c0 7.655 5.99 13.645 13.67 13.645 7.654 0 13.645-5.99 13.645-13.645v-218.496zM368.34 138.675c0-15.027-12.288-27.315-27.315-27.315h-191.155c-15.002 0-27.29 12.288-27.29 27.315v273.050c0 15.027 12.288 27.315 27.29 27.315h191.155c15.027 0 27.315-12.288 27.315-27.315v-273.050zM177.21 384.435h136.525v-54.656h-136.525zM177.21 302.49h136.525v-54.605h-136.525zM177.21 220.621h136.525v-54.656h-136.525z" horiz-adv-x="409" />
<glyph unicode="&#xe02c;" d="M162.9 428.8c65.638 0 118.861-53.197 118.861-118.861 0-95.104-118.861-213.939-118.861-213.939s-118.861 118.861-118.861 213.939c0 65.664 53.223 118.861 118.861 118.861zM162.9 480c-90.010 0-163.2-73.216-163.2-163.2 0-50.893 24.602-111.155 73.062-178.995 34.893-48.87 69.427-83.61 70.912-85.043 5.3-5.3 12.288-7.962 19.226-7.962s13.926 2.662 19.226 7.962c1.485 1.459 35.994 36.173 70.912 85.043 48.486 67.84 73.062 128.102 73.062 178.995 0 89.984-73.19 163.2-163.2 163.2v0zM162.9 377.6c-35.328 0-64-28.646-64-64s28.672-64 64-64 64 28.646 64 64-28.672 64-64 64v0z" horiz-adv-x="409" />
<glyph unicode="&#xe02d;" d="M412.416 462.88c-51.904 14.144-113.696 17.12-156.416 17.12s-104.512-2.976-156.448-17.12c-82.272-22.432-99.552-64-99.552-94.88v-64c0-17.696 14.304-32 32-32h52.224l-48.864-97.696c-2.208-4.416-3.36-9.344-3.36-14.304v-96c0-17.696 14.304-32 32-32h384c17.696 0 32 14.304 32 32v96c0 4.96-1.152 9.888-3.36 14.304l-48.864 97.696h52.224c17.696 0 32 14.304 32 32v64c0 30.88-17.28 72.448-99.584 94.88zM432 76h-352v88l88 176h176l88-176v-88zM464 309.12h-63.328l-28.928 57.888c-5.024 10.048-15.328 16.416-26.528 16.416h-178.4c-11.232 0-21.504-6.336-26.528-16.416l-28.96-57.888h-63.328v59.488c0 59.392 118.816 74.272 208 74.272s208-14.88 208-74.272v-59.488zM256 304c-44.192 0-80-35.808-80-80s35.808-80 80-80 80 35.808 80 80-35.808 80-80 80v0z" />
<glyph unicode="&#xe02e;" d="M494.304 412.64l-128 64c-4.48 2.24-9.376 3.36-14.304 3.36-3.392 0-6.816-0.576-10.112-1.632l-179.424-59.808-116.16 58.048c-4.512 2.272-9.44 3.392-14.304 3.392-5.856 0-11.68-1.632-16.8-4.8-9.44-5.824-15.2-16.128-15.2-27.2v-384c0-12.128 6.848-23.2 17.696-28.64l128-64c4.48-2.24 9.376-3.36 14.304-3.36 3.392 0 6.816 0.576 10.112 1.632l179.392 59.808 116.16-58.048c4.544-2.272 9.472-3.392 14.336-3.392 5.856 0 11.68 1.568 16.8 4.736 9.44 5.888 15.2 16.128 15.2 27.264v384c0 12.128-6.848 23.2-17.696 28.64zM192 370.368l128 45.632v-338.368l-128-45.632v338.368zM64 75.136v332.864l96-47.072v-336.928l-96 51.136zM448 40l-96 47.072v336.928l96-51.136v-332.864z" />
<glyph unicode="&#xe02f;" d="M426.048 433.376c15.552 0 28.384-12.736 28.384-28.352v-170.112c0-15.552-12.768-28.288-28.384-28.288h-340.096c-15.616 0-28.352 12.736-28.352 28.288v170.112c0 15.584 12.736 28.352 28.352 28.352h340.096zM448 480h-384c-35.328 0-64-28.704-64-64v-192c0-35.296 28.672-64 64-64h384c35.328 0 64 28.672 64 64v192c0 35.296-28.672 64-64 64v0zM379.52 327.456c4.832 7.456 5.056 16.96-0.256 24.896-7.904 11.776-25.344 15.648-38.752 8.704l-84.288-43.424-108.864 54.144c-13.536 6.72-30.848 2.592-38.624-9.312-7.744-11.904-2.976-27.008 10.56-33.76l123.2-61.28c8.768-4.352 19.744-4.288 28.48 0.224l98.336 50.752c4.352 2.336 7.808 5.408 10.208 9.056v0zM132.896 325.344c2.464-3.616 5.984-6.688 10.4-8.864l99.232-49.472c8.832-4.384 19.744-4.288 28.48 0.192l122.048 62.976c13.504 6.912 17.92 22.080 9.984 33.888-8.032 11.776-25.408 15.68-38.816 8.736l-107.84-55.584-85.056 42.24c-13.536 6.784-30.944 2.624-38.624-9.248-5.152-8-4.768-17.472 0.192-24.864v0z" />
<glyph unicode="&#xe030;" d="M509.504 303.328c-6.592 19.52-24.896 32.672-45.504 32.672h-116.448l-47.168 114.304c-7.456 17.984-24.96 29.696-44.384 29.696s-36.928-11.712-44.384-29.696l-47.168-114.304h-116.448c-20.608 0-38.912-13.152-45.504-32.672-6.56-19.52 0.064-41.088 16.448-53.536l99.552-75.648-34.624-111.936c-6.048-19.552 0.96-40.832 17.504-52.928 16.576-12.096 38.976-12.352 55.776-0.64l98.848 68.864 98.848-68.864c8.256-5.76 17.856-8.64 27.424-8.64 9.984 0 19.904 3.104 28.352 9.248 16.544 12.096 23.552 33.376 17.504 52.928l-34.624 111.936 99.552 75.648c16.384 12.48 23.008 34.048 16.448 53.568zM426.976 267.68l-92.128-70.112 32.352-104.672c1.664-5.12-0.224-10.72-4.544-13.888-2.208-1.632-4.8-2.432-7.52-2.432-2.368 0-4.928 0.736-7.104 2.272l-92.032 64.096-92.032-64.096c-4.352-3.104-10.272-2.976-14.624 0.16-4.32 3.168-6.176 8.736-4.544 13.888l32.352 104.672-92.128 70.112c-4.384 3.328-6.080 8.864-4.384 14.016s6.496 8.608 11.936 8.608h108.288l43.52 105.344c1.92 4.64 6.56 7.712 11.616 7.712s9.696-3.104 11.584-7.712l43.52-105.344h108.288c5.408 0 10.208-3.424 11.936-8.608s0-10.688-4.352-14.016z" />
<glyph unicode="&#xe031;" d="M128 368c0-8.8-7.2-16-16-16h-96c-8.8 0-16 7.2-16 16v96c0 8.8 7.2 16 16 16h96c8.8 0 16-7.2 16-16v-96zM320 464c0 8.8-7.2 16-16 16h-96c-8.8 0-16-7.2-16-16v-96c0-8.8 7.2-16 16-16h96c8.8 0 16 7.2 16 16v96zM512 464c0 8.8-7.2 16-16 16h-96c-8.8 0-16-7.2-16-16v-96c0-8.8 7.2-16 16-16h96c8.8 0 16 7.2 16 16v96zM128 272c0 8.8-7.2 16-16 16h-96c-8.8 0-16-7.2-16-16v-96c0-8.8 7.2-16 16-16h96c8.8 0 16 7.2 16 16v96zM320 272c0 8.8-7.2 16-16 16h-96c-8.8 0-16-7.2-16-16v-96c0-8.8 7.2-16 16-16h96c8.8 0 16 7.2 16 16v96zM512 272c0 8.8-7.2 16-16 16h-96c-8.8 0-16-7.2-16-16v-96c0-8.8 7.2-16 16-16h96c8.8 0 16 7.2 16 16v96zM128 80c0 8.8-7.2 16-16 16h-96c-8.8 0-16-7.2-16-16v-96c0-8.8 7.2-16 16-16h96c8.8 0 16 7.2 16 16v96zM320 80c0 8.8-7.2 16-16 16h-96c-8.8 0-16-7.2-16-16v-96c0-8.8 7.2-16 16-16h96c8.8 0 16 7.2 16 16v96zM512 80c0 8.8-7.2 16-16 16h-96c-8.8 0-16-7.2-16-16v-96c0-8.8 7.2-16 16-16h96c8.8 0 16 7.2 16 16v96z" />
<glyph unicode="&#xe040;" d="M4.672 36.672c-3.104 3.136-4.672 7.232-4.672 11.328s1.568 8.192 4.672 11.328l84.704 84.672-52.672 52.672c-3.072 3.072-4.704 7.136-4.704 11.328 0 2.048 0.416 4.128 1.216 6.112 2.464 5.984 8.32 9.888 14.784 9.888h192c8.832 0 16-7.2 16-16v-192c0-6.464-3.904-12.32-9.888-14.784-1.984-0.768-4.064-1.216-6.112-1.216-4.16 0-8.256 1.632-11.328 4.672l-52.672 52.704-84.672-84.672c-3.136-3.136-7.232-4.704-11.328-4.704s-8.192 1.568-11.328 4.672l-64 64zM272 224h192c6.464 0 12.32 3.904 14.784 9.888 0.768 1.952 1.216 4.064 1.216 6.112 0 4.16-1.632 8.256-4.672 11.328l-52.704 52.672 84.672 84.672c3.136 3.136 4.704 7.232 4.704 11.328s-1.568 8.192-4.672 11.328l-64 64c-3.136 3.104-7.232 4.672-11.328 4.672s-8.192-1.568-11.328-4.672l-84.672-84.704-52.672 52.672c-3.072 3.072-7.168 4.704-11.328 4.704-2.048 0-4.128-0.416-6.112-1.216-5.984-2.464-9.888-8.32-9.888-14.784v-192c0-8.832 7.2-16 16-16z" />
<glyph unicode="&#xe600;" d="M560 480h-400c-30.272 0-57.984-17.12-71.52-44.224l-80-160c-11.296-22.528-11.296-49.024 0-71.552l80-160c13.536-27.104 41.248-44.224 71.52-44.224h400c44.192 0 80 35.808 80 80v320c0 44.192-35.808 80-80 80zM600 80c0-22.080-17.888-40-40-40h-400c-15.136 0-28.992 8.576-35.744 22.112l-80 160c-5.632 11.264-5.632 24.512 0 35.776l80 160c6.752 13.536 20.608 22.112 35.744 22.112h400c22.112 0 40-17.92 40-40v-320zM140 288c-26.464 0-48-21.472-48-48 0-26.496 21.536-48 48-48 26.56 0 48 21.504 48 48 0 26.528-21.44 48-48 48v0z" horiz-adv-x="640" />
<glyph unicode="&#xe601;" d="M23.475 480.026c6.067 0 12.007-2.304 16.563-6.823l232.601-232.512c9.203-9.178 9.203-24.064 0.051-33.254l-232.653-232.589c-9.191-9.101-23.962-9.101-33.152 0-9.191 9.178-9.191 24.038 0 33.127l216.077 216.038-216.077 216.025c-9.139 9.088-9.139 24.077 0 33.216 4.505 4.467 10.521 6.771 16.589 6.771z" />
<glyph unicode="&#xe602;" d="M256.064-32c-6.067 0-12.006 2.304-16.563 6.822l-232.589 232.512c-9.203 9.178-9.203 24.064-0.051 33.255l232.653 232.589c9.191 9.101 23.961 9.101 33.152 0 9.19-9.178 9.19-24.038 0-33.127l-216.077-216.038 216.077-216.025c9.139-9.088 9.139-24.077 0-33.216-4.519-4.467-10.534-6.771-16.601-6.771z" />
<glyph unicode="&#xe603;" d="M183.565 224c0-1.508-0.345-2.926-0.433-4.426l157.767-78.861c13.504 11.438 30.786 18.575 49.879 18.575 42.918-0.007 77.701-34.791 77.701-77.704 0-42.962-34.783-77.745-77.701-77.745-42.957 0-77.704 34.782-77.704 77.745 0 1.546 0.346 2.928 0.43 4.426l-157.765 78.863c-13.548-11.394-30.789-18.532-49.879-18.532-42.916 0-77.701 34.742-77.701 77.658 0 42.954 34.785 77.747 77.701 77.747 19.093 0 36.337-7.184 49.879-18.578l157.765 78.864c-0.084 1.508-0.43 2.926-0.43 4.472 0 42.873 34.745 77.658 77.704 77.658 42.918-0.002 77.701-34.788 77.701-77.66 0-42.954-34.783-77.747-77.701-77.747-19.136 0-36.382 7.184-49.879 18.622l-157.768-78.904c0.082-1.508 0.433-2.926 0.433-4.472z" />
</font>
</defs>
</svg>
