<?xml version="1.0" standalone="no"?>
<!DOCTYPE svg PUBLIC "-//W3C//DTD SVG 1.1//EN" "http://www.w3.org/Graphics/SVG/1.1/DTD/svg11.dtd" >
<svg xmlns="http://www.w3.org/2000/svg">
<metadata>Generated by IcoMoon</metadata>
<defs>
<font id="icomoon" horiz-adv-x="1024">
<font-face units-per-em="1024" ascent="960" descent="-64" />
<missing-glyph horiz-adv-x="1024" />
<glyph unicode="&#x20;" d="" horiz-adv-x="512" />
<glyph unicode="&#xe000;" d="M449.024 596.288c106.56 0 193.024 81.344 193.024 181.888-0.064 100.416-86.464 181.824-193.024 181.824s-193.024-81.408-193.024-181.824c0-100.48 86.464-181.888 193.024-181.888zM600.32 583.68c-42.56-29.44-94.592-47.424-151.296-47.424-56.96 0-109.12 18.112-151.744 47.744-173.248-37.312-297.28-136.832-297.28-254.016v-258.88c0-17.152 14.4-31.104 32-31.104h64c17.6 0 32 12.608 32 28.096 0 8.96 0 201.856 0 201.856 0 16.64 9.536 9.984 21.376 9.984 11.776 0 21.312-9.024 21.312-19.968l0.32-179.968c0.896-10.368 9.6-84.416 20.544-86.592 0 0 66.56-57.344 256.448-57.344 191.232 0 256.448 57.344 256.448 57.344 10.944 2.112 19.712 76.16 20.544 86.592l0.32 179.968c0 11.008 9.536 19.968 21.376 19.968 11.776 0 21.312-9.024 21.312-19.968 0 0 0-182.912 0-191.872 0-15.488 14.4-28.096 32-28.096h64c17.6 0 32 14.016 32 31.104v258.88c0 116.864-123.392 216.128-295.68 253.696z" />
<glyph unicode="&#xe001;" d="M767.968 576c0-279.328-324.928-607.392-338.752-621.216-12.48-12.512-28.832-18.752-45.216-18.752s-32.736 6.24-45.248 18.752c-13.856 13.792-338.752 341.92-338.752 621.216 0 211.776 172.256 384 384 384s383.968-172.256 383.968-384zM384 384c106.016 0 192 85.952 192 192s-85.984 192-192 192-192-85.952-192-192 85.984-192 192-192z" />
<glyph unicode="&#xe002;" d="M0 960l768-448.064-768-447.872v895.936z" />
<glyph unicode="&#xe003;" d="M768 64.064l-768 447.872 768 448.064v-895.936z" />
<glyph unicode="&#xe004;" d="M0 960l384-512.384 384 512.384h-768z" />
<glyph unicode="&#xe005;" d="M1024-32c0-5.504-1.408-10.966-4.224-15.872-5.674-9.942-16.298-16.128-27.776-16.128h-960c-11.52 0-22.102 6.186-27.776 16.128-2.816 4.906-4.224 10.368-4.224 15.872 0 5.632 1.494 11.222 4.438 16.256l315.562 536.448v247.296h384v-247.296l315.562-536.448c2.944-5.034 4.438-10.624 4.438-16.256zM768 832v96c0 17.578-14.422 32-32 32h-448c-17.578 0-32-14.422-32-32v-96h512z" />
<glyph unicode="&#xe006;" d="M960.512 710.272c-21.76 35.968-48.576 71.168-81.344 103.808-33.216 32.896-68.992 59.968-105.6 81.6l64.32 64.32c0 0 93.056 0 139.648-46.528 46.464-46.592 46.464-139.648 46.464-139.648l-63.488-63.552zM387.2 128.768h-194.432v194.432l23.36 23.36c39.552-18.56 78.784-44.928 114.176-80.32 35.392-35.328 61.696-74.688 80.32-114.176l-23.424-23.296zM906.752 656.512l-440-448.32c-22.72 37.632-50.688 74.304-84.992 108.352-34.688 34.432-72.064 62.72-110.336 85.312l449.152 440.896c37.824-17.856 75.456-42.944 109.312-76.864s59.008-71.424 76.864-109.376zM128 832v-767.936h768v319.936l128 127.936v-482.88c0-51.392-41.6-93.056-93.056-93.056h-837.888c-51.392 0-93.056 41.664-93.056 93.056v837.824c0 51.456 41.664 93.12 93.056 93.12h482.944l-128-128h-320z" />
<glyph unicode="&#xe007;" d="M918.186 527.104c-17.408 2.518-36.010 18.304-41.43 35.030l-25.984 63.146c-8.234 15.574-6.23 39.936 4.266 53.974l42.24 56.234c10.496 14.080 9.686 36.394-2.006 49.578l-46.25 46.336c-13.27 11.606-35.498 12.458-49.664 1.92l-56.15-42.198c-14.080-10.538-38.314-12.502-53.93-4.31l-63.146 26.026c-16.854 5.334-32.598 23.978-34.986 41.386l-9.984 69.504c-2.432 17.45-18.816 33.194-36.266 35.072-0.086 0.046-10.966 1.198-32.896 1.198-21.974 0-32.854-1.152-32.854-1.152-17.494-1.834-33.878-17.622-36.31-35.072l-9.984-69.504c-2.474-17.408-18.176-36.054-34.986-41.386l-63.146-26.026c-15.574-8.236-39.85-6.274-53.888 4.266l-56.234 42.196c-14.080 10.582-36.394 9.728-49.578-1.92l-46.294-46.336c-11.606-13.226-12.502-35.498-1.962-49.578l42.154-56.234c10.582-14.038 12.502-38.358 4.352-53.974l-26.070-63.146c-5.334-16.768-23.978-32.512-41.43-35.030l-69.504-9.898c-17.408-2.518-33.152-18.858-35.030-36.394 0 0-1.152-10.838-1.152-32.81 0-21.93 1.152-32.854 1.152-32.854 1.834-17.494 17.622-33.878 35.030-36.352l69.504-9.898c17.45-2.474 36.096-18.262 41.43-34.986l26.112-63.146c8.15-15.574 6.23-39.936-4.352-53.93l-42.154-56.234c-10.582-14.080-13.098-33.194-5.632-42.41 7.466-9.216 28.842-32.086 28.928-32.17 0.042-0.086 7.254-6.656 16-14.678 8.746-8.022 44.458-19.158 58.538-8.618l56.234 42.198c14.080 10.538 38.314 12.458 53.93 4.266l63.146-25.984c16.81-5.376 32.554-23.978 34.986-41.43l9.984-69.504c2.432-17.45 18.816-33.238 36.31-35.072 0 0 10.88-1.11 32.854-1.11 21.93 0 32.81 1.11 32.81 1.11 17.45 1.834 33.834 17.622 36.266 35.072l9.984 69.504c2.432 17.45 18.176 36.054 34.986 41.43l63.146 26.026c15.574 8.192 39.85 6.23 53.93-4.266l56.234-42.24c14.166-10.538 36.438-9.686 49.664 1.962l46.166 46.25c11.648 13.27 12.502 35.584 2.006 49.664l-42.24 56.234c-10.496 13.994-12.502 38.314-4.266 53.93l25.984 63.146c5.418 16.768 23.978 32.554 41.43 34.986l69.504 9.898c17.494 2.474 33.152 18.816 35.072 36.352 0 0 1.152 10.922 1.152 32.854 0 21.974-1.152 32.81-1.152 32.81-1.92 17.536-17.578 33.878-35.072 36.394l-69.502 9.898zM512 320.042c-70.698 0-128 57.258-128 128 0 70.698 57.302 128 128 128 70.656 0 127.914-57.344 127.914-128 0-70.74-57.258-128-127.914-128z" />
<glyph unicode="&#xe008;" d="M1024-32c0-17.6-14.4-32-32-32h-960c-17.6 0-32 14.4-32 32v192c0 17.6 14.4 32 32 32h960c17.6 0 32-14.4 32-32v-192zM1024 544c0 17.6-14.4 32-32 32h-960c-17.6 0-32-14.4-32-32v-192c0-17.6 14.4-32 32-32h960c17.6 0 32 14.4 32 32v192zM1024 928c0 17.6-14.4 32-32 32h-960c-17.6 0-32-14.4-32-32v-192c0-17.6 14.4-32 32-32h960c17.6 0 32 14.4 32 32v192z" />
<glyph unicode="&#xe009;" d="M896 768v-768c0-35.328-28.672-64-64-64h-768c-35.328 0-64 28.672-64 64v768c0 35.328 28.672 64 64 64h64v64c0 35.328 28.672 64 64 64s64-28.672 64-64v-64h128v64c0 35.328 28.672 64 64 64s64-28.672 64-64v-64h128v64c0 35.328 28.672 64 64 64s64-28.672 64-64v-64h64c35.328 0 64-28.672 64-64zM768 576h-640v-64h640v64zM768 384h-640v-64h640v64zM768 192h-640v-64h640v64z" />
<glyph unicode="&#xe00a;" d="M0 0c0-35.328 28.672-64 64-64h768c35.328 0 64 28.672 64 64v576h-896v-576zM256 320h128v128h128v-128h128v-128h-128v-128h-128v128h-128v128zM896 768v-128h-896v128c0 35.328 28.672 64 64 64h64v64c0 35.328 28.672 64 64 64s64-28.672 64-64v-64h384v64c0 35.328 28.672 64 64 64s64-28.672 64-64v-64h64c35.328 0 64-28.672 64-64z" />
<glyph unicode="&#xe00b;" d="M896 512c0-16.64-6.528-33.024-18.752-45.248l-320-320c-11.968-12.032-28.288-18.752-45.248-18.752-17.024 0-33.28 6.72-45.248 18.752l-320 320c-12.224 12.224-18.752 28.608-18.752 45.248 0 8.256 1.6 16.576 4.864 24.512 9.92 23.872 33.28 39.488 59.136 39.488h160v320c0 35.392 28.672 64 64 64h192c35.392 0 64-28.608 64-64v-320h160c25.856 0 49.28-15.616 59.136-39.488 3.264-7.936 4.864-16.256 4.864-24.512zM896 64h-768v256h-128v-256c0-70.656 57.344-128 128-128h768c70.656 0 128 57.344 128 128v256h-128v-256z" />
<glyph unicode="&#xe00c;" d="M815.040 652.012l71.916 71.168c12.564 12.406 12.564 32.808 0 45.214l-45.764 45.252c-12.564 12.406-33.162 12.406-45.726 0l-71.916-71.128c-59.274 43.874-129.812 73.688-206.494 84.558l0.002 100.668c0 17.566-14.654 31.98-32.416 31.98h-64.708c-17.762 0-32.374-14.414-32.374-31.98v-100.628c-219.452-31.074-388.176-217.758-388.176-443.392 0-247.414 202.792-448 452.924-448s452.922 200.586 452.922 448c0 100.628-33.594 193.496-90.19 268.288zM355.264 379.234c0 53.012 43.442 96.020 97.044 96.020 31.98 0 60.18-15.4 77.902-38.912l280.93-25.246c16.66-1.496 29.38-15.36 29.38-31.862 0-16.58-12.722-30.404-29.38-31.94l-280.93-25.246c-17.684-23.592-45.922-38.834-77.902-38.834-53.604 0-97.044 42.93-97.044 96.020z" horiz-adv-x="944" />
<glyph unicode="&#xe00d;" d="M512 960c-282.752 0-512-229.184-512-511.936 0-282.816 229.248-512.064 512-512.064 282.752 0 512 229.248 512 512.064 0 282.752-229.248 511.936-512 511.936zM842.88 552.128l-367.296-367.232c-7.488-7.488-19.712-7.488-27.136 0l-54.272 54.784c-7.424 7.552-19.712 19.904-27.136 27.392l-126.336 132.8c-3.712 3.712-5.696 8.96-5.696 13.888 0 4.992 1.984 9.728 5.696 13.504l55.36 49.92c3.776 3.84 8.768 5.632 13.696 5.632 4.864-0.064 9.728-1.984 13.44-5.632l125.248-127.872c7.488-7.616 19.648-7.616 27.136 0l285.888 285.12c7.424 7.488 19.712 7.488 27.136 0l54.336-54.912c7.424-7.488 7.424-19.84-0.064-27.392z" />
<glyph unicode="&#xe00e;" d="M992 960c17.578 0 32-14.422 32-32v-960c0-17.622-14.422-32-32-32h-192c-17.578 0-32 14.378-32 32v960c0 17.578 14.422 32 32 32h192zM416 704c-17.578 0-32-14.422-32-32v-704c0-17.622 14.422-32 32-32h192c17.578 0 32 14.378 32 32v704c0 17.578-14.422 32-32 32h-192zM32 448c-17.578 0-32-14.422-32-32v-448c0-17.622 14.422-32 32-32h192c17.578 0 32 14.378 32 32v448c0 17.578-14.422 32-32 32h-192z" />
<glyph unicode="&#xe00f;" d="M944.256 650.304l-534.784-534.784c-10.944-11.008-28.8-11.008-39.552 0l-79.040 79.744c-10.816 11.072-28.736 29.056-39.552 39.872l-184 193.408c-5.376 5.44-8.32 13.12-8.32 20.224 0 7.232 2.944 14.208 8.32 19.712l80.576 72.704c5.504 5.568 12.8 8.192 19.968 8.192 7.104-0.064 14.208-2.816 19.584-8.192l182.464-186.24c10.88-11.136 28.608-11.136 39.552 0l416.384 415.232c10.688 10.944 28.672 10.944 39.488 0l79.104-79.936c10.816-10.944 10.816-28.928-0.192-39.936z" />
<glyph unicode="&#xe010;" d="M457.856 168.064l289.28-226.496c4.736-3.776 7.616-5.632 10.368-5.632 8 0 10.496 5.504 10.496 14.528v214.4c0 15.104 9.984 27.136 23.36 27.136h105.152c127.488 0 127.36 61.44 127.36 61.44v640.064c0 0 0 66.56-127.872 66.56h-767.936c-128 0-128-66.56-128-66.56v-640.064c0 0-0.064-61.44 128.448-61.44h256c0 0 53.568-1.472 73.344-23.936z" />
<glyph unicode="&#xe011;" d="M874.048 810.048c-199.936 200-524.096 199.936-724.096 0-199.936-199.872-199.936-524.096 0.064-724.032 199.936-199.936 524.096-199.936 724.032-0.064 200 199.936 200 524.16 0 724.096zM747.2 309.056c27.52-27.52 28.224-71.296 1.728-97.856-26.56-26.56-70.4-25.728-97.792 1.728l-139.072 139.008-139.584-139.584c-27.52-27.456-71.296-28.224-97.792-1.728-26.56 26.56-25.728 70.4 1.664 97.856l139.648 139.584-139.648 139.648c-27.456 27.392-28.224 71.168-1.664 97.728 26.496 26.56 70.336 25.792 97.792-1.664l139.584-139.584 139.072 139.072c27.456 27.456 71.232 28.224 97.792 1.664 26.496-26.56 25.728-70.336-1.728-97.792l-139.008-139.072 139.008-139.008z" />
<glyph unicode="&#xe012;" d="M896-32.384l-384 512.384-384-512 768-0.384z" />
<glyph unicode="&#xe013;" d="M703.872 819.008l-0.128-0.064c-0.896 0.64-1.6 1.536-2.624 2.24-29.184 20.032-68.992 12.608-89.024-16.704-19.968-29.312-12.48-69.312 16.64-89.344 0.768-0.64 1.536-0.896 2.24-1.28l-0.256-0.448c82.88-58.048 137.28-154.496 137.28-263.744 0-177.536-143.296-321.472-320-321.472s-320 143.936-320 321.472c0 109.248 54.4 205.696 137.28 263.744l-0.256 0.448c0.704 0.384 1.472 0.64 2.24 1.216 29.184 20.032 36.608 60.032 16.64 89.344-20.032 29.312-59.84 36.8-89.024 16.704-0.96-0.704-1.728-1.536-2.688-2.24l-0.064 0.128c-116.032-81.408-192.128-216.32-192.128-369.344 0-248.576 200.576-450.176 448-450.176s448 201.6 448 450.176c0 153.024-76.096 287.936-192.128 369.344zM448 384c35.392 0 64 28.608 64 64v447.936c0 35.392-28.608 64.064-64 64.064-35.328 0-64-28.672-64-64.064v-447.936c0-35.392 28.672-64 64-64z" />
<glyph unicode="&#xe014;" d="M262.912 704l21.334 64h455.51l21.334-64h-498.178zM241.578 640l-21.332-64h583.51l-21.334 64h-540.844zM1020.714 532.266l-128 384c-8.704 26.112-33.152 43.734-60.714 43.734h-640c-27.562 0-52.010-17.622-60.714-43.734l-128-384c-2.176-6.57-3.286-13.396-3.286-20.266v-512c0-35.328 28.672-64 64-64h896c35.328 0 64 28.672 64 64v512c0 6.87-1.066 13.696-3.286 20.266zM238.122 832h547.754l106.666-320h-761.086l106.666 320z" />
<glyph unicode="&#xe015;" d="M0 0c0-35.328 28.672-64 64-64h768c35.328 0 64 28.672 64 64v576h-896v-576zM274.73 301.27c25.002 25.002 65.494 25.002 90.496 0l47.616-47.616 178.944 204.544c23.254 26.582 63.702 29.27 90.326 6.016 26.582-23.254 29.27-63.702 6.016-90.326l-224-256c-11.648-13.312-28.33-21.206-46.038-21.802-0.682-0.086-1.364-0.086-2.090-0.086-16.938 0-33.238 6.742-45.27 18.73l-96 96c-24.96 25.004-24.96 65.536 0 90.54zM896 768v-128h-896v128c0 35.328 28.672 64 64 64h64v64c0 35.328 28.672 64 64 64s64-28.672 64-64v-64h384v64c0 35.328 28.672 64 64 64s64-28.672 64-64v-64h64c35.328 0 64-28.672 64-64z" />
<glyph unicode="&#xe016;" d="M398.86 960h-324.8c-40.832 0-74.074-33.524-74.074-74.688v-691.392l48.806 73.92 49.382-74.112 46.156 74.112 50.138-74.112 48.436 74.112 48.628-74.112 48.422 74.112 48.628-74.112 48.436 74.112 48.628-74.112 48.628 74.112 54.132-74.112v-1.728h0.372l-0.004 576.486h-189.914v191.514zM474.828 404.582c0-10.522-8.538-19.148-18.982-19.148h-322.892c-10.444 0-18.996 8.628-18.996 19.148v19.162c0 10.534 8.55 19.148 18.996 19.148h322.892c10.444 0 18.982-8.614 18.982-19.148v-19.162zM474.828 519.5c0-10.522-8.538-19.148-18.982-19.148h-322.892c-10.444 0-18.996 8.628-18.996 19.148v19.162c0 10.534 8.55 19.148 18.996 19.148h322.892c10.444 0 18.982-8.614 18.982-19.148v-19.162zM455.846 672.716c10.444 0 18.982-8.628 18.982-19.148v-19.162c0-10.522-8.538-19.148-18.982-19.148h-322.892c-10.444 0-18.996 8.628-18.996 19.148v19.162c0 10.522 8.55 19.148 18.996 19.148h322.892zM436.852 940.852v-134.068h132.954l-132.954 134.068zM436.852 940.852v-134.068h132.954l-132.954 134.068zM436.852 940.852v-134.068h132.954l-132.954 134.068z" />
<glyph unicode="&#xe017;" d="M472.666 960c144.986 0 262.528-116.762 262.528-260.788s-117.542-260.8-262.528-260.8-262.528 116.776-262.528 260.8c0 144.026 117.542 260.788 262.528 260.788zM476.314 742.132c117.338 0 212.454-94.49 212.454-211.072 0-116.556-95.13-211.046-212.454-211.046s-212.468 94.49-212.468 211.046c0 116.582 95.142 211.072 212.468 211.072zM714.060 719.616c100.492 0 181.926-80.934 181.926-180.748 0-99.802-81.446-180.71-181.926-180.71-100.506 0-181.94 80.908-181.94 180.71 0.002 99.814 81.448 180.748 181.94 180.748zM207.564 744.052c114.636 0 207.564-92.326 207.564-206.208 0-113.894-92.94-206.196-207.564-206.196-114.636 0-207.564 92.3-207.564 206.196 0 113.894 92.928 206.208 207.564 206.208zM245.786 873.42c78.554 0 142.234-63.258 142.234-141.324 0-78.016-63.68-141.3-142.234-141.3-78.554 0-142.246 63.27-142.246 141.3 0.012 78.068 63.692 141.324 142.246 141.324z" />
<glyph unicode="&#xe018;" d="M787.076 576c0-279.316-333.234-607.428-347.49-621.292-12.72-12.406-29.618-18.708-46.356-18.708-16.818 0-33.634 6.302-46.396 18.708-14.216 13.864-347.45 341.976-347.45 621.292 0 211.692 176.64 384 393.846 384s393.846-172.308 393.846-384zM393.23 384c108.78 0 196.924 85.976 196.924 192s-88.142 192-196.924 192c-108.74 0-196.924-85.976-196.924-192s88.184-192 196.924-192z" horiz-adv-x="944" />
<glyph unicode="&#xe019;" d="M886.4 852.48c13.354-13.354 13.354-35.242 0-48.64l-267.776-267.478c-13.354-13.354-13.354-35.242 0-48.682l267.648-267.562c13.354-13.398 13.354-35.242 0-48.64l-97.494-97.152c-13.398-13.312-35.328-13.312-48.726 0l-267.562 267.562c-13.354 13.312-35.328 13.312-48.682 0l-267.776-267.392c-13.354-13.354-35.328-13.354-48.682 0l-97.366 97.28c-13.354 13.312-13.354 35.242 0 48.598l267.862 267.478c13.354 13.312 13.354 35.242 0 48.64l-267.606 267.646c-13.354 13.398-13.354 35.328 0 48.64l97.45 97.194c13.354 13.354 35.286 13.354 48.682-0.042l267.562-267.52c13.398-13.44 35.328-13.44 48.682-0.042l267.776 267.392c13.312 13.312 35.286 13.312 48.682 0l97.326-97.28z" />
<glyph unicode="&#xe01a;" d="M166.014 960c45.416 0 82.252-37.086 82.252-82.806 0-45.734-36.836-82.806-82.252-82.806-45.43 0-82.252 37.072-82.252 82.806 0.014 45.72 36.836 82.806 82.252 82.806zM166.028 775.888c-91.538 0-172.904-40.752-172.904-40.752l10.17-358.816c0-22.638 18.21-40.96 40.684-40.96 1.938 0 3.764 0.304 5.59 0.608l24.922-359.008c0-22.638 16.536-40.96 39.008-40.96s39.008 18.322 39.008 40.96l0.002 342.57h20.342v-342.57c0-22.638 19.872-40.96 42.358-40.96 22.472 0 41.514 18.322 41.514 40.96l25.338 359.008c1.826-0.304 3.874-0.608 5.798-0.608 22.472 0 40.794 18.322 40.794 40.96l10.226 358.912c-0.002 0-81.312 40.656-172.85 40.656zM186.37 478.72l-20.342-20.48-20.342 20.48 10.17 245.76-10.17 20.466c0 0 0 10.24 20.342 10.24s20.342-10.24 20.342-10.24l-10.172-20.466 10.172-245.76z" horiz-adv-x="332" />
<glyph unicode="&#xe01b;" d="M324.958 650.060h-10.462l121.648-377.454h-115.92l-45.25-336.592h-65.286l-45.36 336.592-115.934-0.014 121.648 377.454h-11.568l-116.472-240.696-48.432 17.008 145.546 344.686h75.194l3.528 14.558c-58.244 3.556-91.164 18.086-101.626 55.296 13.436-1.564 41.402 15.098 43.824 30.748 0 0.442 0 0.442 0 0.442l0.002 4.996c0 45.72 36.892 82.916 82.668 82.916 44.378 0 81.256-37.196 81.256-82.916v-4.996c0 0 0 0 0-0.442 2.976-15.664 29.834-32.312 43.81-30.748-10.448-37.196-42.828-51.74-101.612-55.296l3.5-14.558h75.208l145.546-344.686-48.432-16.992-117.024 240.694z" horiz-adv-x="484" />
<glyph unicode="&#xe01c;" d="M362.666 960l108.842-108.842-253.908-253.824 253.91-253.824-108.844-108.844-362.666 362.668 362.666 362.666z" />
<glyph unicode="&#xe01d;" d="M108.842 234.666l-108.842 108.844 253.952 253.824-253.952 253.824 108.842 108.842 362.666-362.666-362.666-362.668z" />
<glyph unicode="&#xe01e;" d="M768 960h-682.666c-47.104 0-85.334-38.23-85.334-85.334v-853.334c0-47.104 38.23-85.334 85.334-85.334h682.666c47.104 0 85.334 38.23 85.334 85.334v853.334c0 47.104-38.23 85.334-85.334 85.334zM469.334 213.334c0-11.776-9.6-21.334-21.334-21.334h-298.666c-11.776 0-21.334 9.558-21.334 21.334v42.666c0 11.776 9.558 21.334 21.334 21.334h298.666c11.734 0 21.334-9.558 21.334-21.334v-42.666zM725.334 384c0-11.776-9.6-21.334-21.334-21.334h-554.666c-11.776 0-21.334 9.558-21.334 21.334v42.666c0 11.776 9.558 21.334 21.334 21.334h554.666c11.734 0 21.334-9.558 21.334-21.334v-42.666zM725.334 554.666c0-11.776-9.6-21.334-21.334-21.334h-554.666c-11.776 0.002-21.334 9.558-21.334 21.334v42.666c0 11.778 9.558 21.334 21.334 21.334h554.666c11.734 0 21.334-9.556 21.334-21.332v-42.668zM725.334 725.334c0-11.776-9.6-21.334-21.334-21.334h-554.666c-11.776 0-21.334 9.558-21.334 21.334v42.666c0 11.776 9.558 21.334 21.334 21.334h554.666c11.734 0 21.334-9.558 21.334-21.334v-42.666z" />
<glyph unicode="&#xe01f;" d="M409 867.84c84.736 0 164.506-33.024 224.46-92.928 59.956-60.006 92.98-139.724 92.98-224.512 0-84.736-33.076-164.506-92.98-224.46s-139.724-92.98-224.46-92.98-164.506 33.076-224.46 92.98-92.98 139.724-92.98 224.46c0 84.788 33.076 164.506 92.98 224.512 59.954 59.956 139.724 92.928 224.46 92.928zM409 960c-226.202 0-409.6-183.398-409.6-409.6s183.398-409.6 409.6-409.6 409.6 183.398 409.6 409.6-183.398 409.6-409.6 409.6v0zM567.72 414.362c15.718 0 31.028 8.244 39.424 22.836 12.442 21.708 4.864 49.51-16.896 61.85l-135.834 77.722v200.446c0 24.986-20.276 45.312-45.364 45.312s-45.364-20.276-45.364-45.312l0.002-226.816c0-16.23 8.756-31.284 22.836-39.424l158.772-90.676c7.064-3.992 14.692-5.938 22.424-5.938v0z" horiz-adv-x="818" />
<glyph unicode="&#xe020;" d="M502.656 310.656c6.208-6.272 9.344-14.464 9.344-22.656s-3.136-16.384-9.344-22.656l-169.408-169.344 105.344-105.344c6.144-6.144 9.408-14.272 9.408-22.656 0-4.096-0.832-8.256-2.432-12.224-4.928-11.968-16.64-19.776-29.568-19.776h-384c-17.664 0-32 14.336-32 32v384c0 12.928 7.808 24.64 19.776 29.568 3.968 1.6 8.128 2.432 12.224 2.432 8.32 0 16.512-3.264 22.656-9.344l105.344-105.408 169.344 169.344c6.272 6.272 14.464 9.408 22.656 9.408s16.384-3.136 22.656-9.344l128-128zM992 960h-384c-12.928 0-24.64-7.808-29.568-19.776-1.6-3.904-2.432-8.128-2.432-12.224 0-8.32 3.264-16.512 9.344-22.656l105.408-105.344-169.408-169.344c-6.208-6.272-9.344-14.464-9.344-22.656s3.136-16.384 9.344-22.656l128-128c6.272-6.208 14.464-9.344 22.656-9.344s16.384 3.136 22.656 9.344l169.344 169.408 105.344-105.344c6.144-6.144 14.336-9.408 22.656-9.408 4.096 0 8.256 0.832 12.224 2.432 11.968 4.928 19.776 16.64 19.776 29.568v384c0 17.664-14.336 32-32 32z" />
<glyph unicode="&#xe021;" d="M427.392 960c-236.032 0-427.392-191.318-427.392-427.35s191.36-427.35 427.392-427.35c236.032 0 427.392 191.318 427.392 427.35s-191.36 427.35-427.392 427.35zM641.024 489.942h-170.922v-170.922c0-23.638-19.114-42.752-42.752-42.752-23.594 0-42.752 19.114-42.752 42.752v170.922h-170.88c-23.638 0-42.752 19.114-42.752 42.752s19.114 42.752 42.752 42.752h170.922v170.922c0 23.594 19.158 42.71 42.752 42.71 23.638 0 42.752-19.114 42.752-42.71v-170.922h170.922c23.594 0 42.71-19.114 42.71-42.752s-19.158-42.752-42.752-42.752z" />
<glyph unicode="&#xe022;" d="M320 576c-35.328 0-64-28.608-64-64s28.672-64 64-64 64 28.608 64 64-28.672 64-64 64zM512 384c-35.328 0-64-28.608-64-64s28.672-64 64-64 64 28.608 64 64-28.672 64-64 64zM320 384c-35.328 0-64-28.608-64-64s28.672-64 64-64 64 28.608 64 64-28.672 64-64 64zM896 895.936h-128c0 35.392-28.608 64.064-64 64.064s-64-28.672-64-64.064h-256c0 35.392-28.672 64.064-64 64.064s-64-28.672-64-64.064h-128c-70.656 0-128-57.28-128-127.936v-640c0-70.72 57.344-128 128-128h768c70.656 0 128 57.28 128 128v640c0 70.656-57.344 127.936-128 127.936zM896 128h-768v640h128c0-35.392 28.672-64 64-64s64 28.608 64 64h256c0-35.392 28.608-64 64-64s64 28.608 64 64h128v-640zM704 576c-35.392 0-64-28.608-64-64s28.608-64 64-64 64 28.608 64 64-28.608 64-64 64zM512 576c-35.328 0-64-28.608-64-64s28.672-64 64-64 64 28.608 64 64-28.672 64-64 64zM704 384c-35.392 0-64-28.608-64-64s28.608-64 64-64 64 28.608 64 64-28.608 64-64 64z" />
<glyph unicode="&#xe023;" d="M819.2 320c141.184 0 256 114.88 256 256v128c0 141.12-114.816 256-256 256s-256-114.88-256-256v-128c0-141.12 114.816-256 256-256zM1331.2 320c84.672 0 153.536 68.864 153.536 153.6v76.8c0 84.736-68.864 153.6-153.536 153.6s-153.6-68.864-153.6-153.6v-76.8c0-84.736 68.928-153.6 153.6-153.6zM1617.152 200.768c-6.592 3.264-163.136 80.832-285.952 80.832-96.832 0-214.464-48.128-263.168-70.208-79.296 24.64-168.384 44.608-248.832 44.608s-169.536-19.968-248.832-44.544c-48.768 22.016-166.4 70.144-263.168 70.144-122.816 0-279.36-77.568-285.952-80.896-13.056-6.464-21.248-19.776-21.248-34.304v-38.4c0-21.184 17.216-38.4 38.4-38.4h274.112c-3.392-8-5.312-16.576-5.312-25.6v-64c0-35.392 28.672-64 64-64h896c35.328 0 64 28.608 64 64v64c0 9.024-1.92 17.6-5.376 25.6h274.176c21.184 0 38.4 17.216 38.4 38.4v38.4c0 14.528-8.192 27.84-21.248 34.368zM307.2 320c84.672 0 153.536 68.864 153.536 153.6v76.8c0 84.736-68.864 153.6-153.536 153.6s-153.6-68.864-153.6-153.6v-76.8c0-84.736 68.928-153.6 153.6-153.6z" horiz-adv-x="1664" />
<glyph unicode="&#xe024;" d="M256 576v128c0 141.12 114.88 256 256 256s256-114.88 256-256v-128c0-141.12-114.88-256-256-256s-256 114.88-256 256zM988.608 121.28c-11.008 5.44-271.872 134.72-476.608 134.72s-465.6-129.28-476.608-134.72c-21.696-10.88-35.392-33.024-35.392-57.28v-64c0-35.392 28.608-64 64-64h896c35.392 0 64 28.608 64 64v64c0 24.256-13.696 46.4-35.392 57.28z" />
<glyph unicode="&#xe025;" d="M0 870.272c14.848 12.416 30.976 24.064 48.512 34.944 17.472 10.816 36.224 20.352 56.384 28.608 19.968 8.256 41.6 14.656 64.704 19.2 23.104 4.672 48.128 6.976 75.072 6.976 37.696 0 71.808-4.992 102.144-15.040s56.064-24.384 77.376-43.008c21.312-18.688 37.696-41.216 49.152-67.52s17.216-55.488 17.216-87.68c0-30.912-4.224-57.408-12.672-79.488s-19.2-41.344-32.192-57.856c-13.184-16.512-27.456-30.72-42.944-42.56-15.424-11.84-30.080-22.912-43.968-33.408-13.824-10.496-25.856-20.736-36.096-30.72-10.24-10.048-16.512-21.312-19.008-33.728l-16.896-84.352h-127.808l-13.184 96.96c-0.384 2.432-0.704 4.864-0.896 7.232-0.192 2.368-0.256 4.864-0.256 7.168 0 17.664 4.16 33.152 12.608 46.464 8.448 13.248 19.072 25.344 32 36.48 12.8 11.008 26.688 21.696 41.6 31.936 14.72 10.24 28.608 21.312 41.536 33.152 12.8 11.84 23.488 25.152 31.936 39.744 8.448 14.72 12.672 32 12.672 52.096 0 24.128-8 43.264-23.808 57.536-15.936 14.272-37.696 21.44-65.408 21.44-21.312 0-39.104-2.24-53.312-6.656s-26.56-9.28-36.8-14.784c-10.24-5.376-19.2-10.368-26.816-14.784-7.68-4.352-15.296-6.528-22.912-6.528-17.28 0-30.144 7.36-38.528 22.208l-49.408 75.968zM110.848 167.040c0 14.528 2.688 27.968 8.128 40.384s12.8 23.296 22.272 32.576c9.408 9.28 20.608 16.576 33.408 22.016 12.928 5.376 26.944 8.064 42.24 8.064 14.784 0 28.608-2.688 41.6-8.064 12.8-5.44 24.064-12.736 33.728-22.016 9.6-9.28 17.152-20.096 22.592-32.576s8.192-25.856 8.192-40.384-2.752-28.032-8.192-40.704c-5.44-12.608-12.928-23.552-22.592-32.832-9.664-9.344-20.928-16.512-33.728-21.696-12.928-5.184-26.752-7.808-41.536-7.808-15.296 0-29.312 2.624-42.24 7.872-12.8 5.184-24 12.352-33.408 21.696-9.472 9.28-16.832 20.16-22.272 32.832-5.504 12.672-8.192 26.176-8.192 40.64z" />
<glyph unicode="&#xe026;" d="M71.086 155.934c59.208 251.556 52.49 504.402 14.93 757.74-3.87 26.072-43.336 14.95-39.506-10.874 36.474-246.048 42.598-491.664-14.93-735.97-6.042-25.702 33.464-36.598 39.506-10.896v0zM182.252 790.508c-32.378 53.658-56.32 134.82-114.442 166.81-10.18 5.59-21.75 2.13-28.018-7.354-33.504-50.748-17.386-110.14-38.318-164.372-9.544-24.658 30.086-35.246 39.486-10.874 19.416 50.258 3.666 108.318 34.202 154.562-9.34-2.458-18.678-4.894-28.018-7.332 25.292-13.926 40.468-44.646 54.334-68.752 15.79-27.422 29.062-56.258 45.424-83.374 13.62-22.588 49.050-2.006 35.35 20.686v0z" />
<glyph unicode="&#xe027;" d="M14.622 886.968c260.752-64.922 511.468-62.464 777.36-32.030 25.928 2.97 26.214 43.95 0 40.96-262.184-30.024-508.886-33.588-766.484 30.556-25.62 6.39-36.496-33.116-10.876-39.486v0zM668.57 764.232c55.788 30.494 138.732 51.426 173.65 108.872 6.062 9.974 1.802 21.894-7.332 28.016-46.060 30.822-99.41 37.008-149.852 57.304-24.514 9.872-35.062-29.778-10.874-39.506 47.084-18.944 97.116-24.432 140.062-53.166-2.458 9.338-4.894 18.678-7.332 28.016-15.586-25.662-50.586-40.264-76.248-53.452-27.32-14.070-55.746-25.99-82.718-40.734-23.224-12.658-2.56-48.028 20.644-35.35v0z" />
<glyph unicode="&#xe028;" d="M798.598 807.976c-252.048 11.51-495.29 19.334-741.214 84.912-25.538 6.818-36.372-32.708-10.874-39.506 249.61-66.56 496.026-74.69 752.088-86.364 26.418-1.188 26.296 39.772 0 40.958v0zM166.728 793.436c-37.314 27.198-114.688 48.804-126.628 98.284-3.134-7.7-6.288-15.402-9.4-23.122 58.45 27.198 123.618 36.27 185.816 51.24 25.682 6.184 14.786 45.67-10.874 39.506-66.070-15.892-133.572-26.5-195.628-55.378-8.396-3.912-11.408-14.808-9.4-23.122 15.75-65.27 97.24-87.634 145.448-122.758 21.382-15.604 41.78 19.97 20.666 35.35v0z" />
<glyph unicode="&#xe029;" d="M2.662 929.136c120.976-223.518 131.502-478.864 160.482-726.242 3.032-25.908 44.032-26.194 40.96 0-29.84 254.608-41.596 516.896-166.094 746.928-12.554 23.224-47.922 2.538-35.348-20.686v0zM48.6 321.27c59.31-46.92 69.612-131.010 130.13-177.704 7.352-5.672 18.718-2.498 24.822 3.194 46.1 42.968 45.446 130.868 61.83 187.864 7.312 25.436-32.216 36.23-39.506 10.874-7.824-27.218-12.76-55.256-19.026-82.862-6.062-26.664-11.244-67.318-32.276-86.918 8.274 1.064 16.548 2.13 24.822 3.194-56.3 43.458-64.942 126.3-121.836 171.294-20.482 16.222-49.666-12.572-28.96-28.936v0z" />
<glyph unicode="&#xe02a;" d="M512 960c-338.646 0-512.512-341.29-512.512-341.29s131.2-341.376 512.512-341.376c345.302 0 512.47 340.010 512.47 340.010s-168.492 342.656-512.47 342.656zM512.768 405.334c-123.818 0-213.334 93.354-213.334 213.376 0 119.978 89.514 213.29 213.334 213.29 123.818 0 213.334-93.312 213.334-213.29 0-120.022-89.516-213.376-213.334-213.376zM512.768 746.71c-70.742-0.128-128-59.478-128-128s57.258-128.044 128-128.044c70.826 0 128 59.52 128 128.042 0 68.566-57.174 128.13-128 128.002z" />
<glyph unicode="&#xe02b;" d="M716.2 960h-460.8c-56.32 0-102.4-46.080-102.4-102.4v-51.2h-51.2c-56.32 0-102.4-46.080-102.4-102.4v-460.8c0-56.32 46.080-102.4 102.4-102.4h614.4c56.32 0 102.4 46.080 102.4 102.4v614.4c0 56.32-46.080 102.4-102.4 102.4zM135.95 249.958c0-15.258-11.98-27.238-27.29-27.238-15.36 0-27.34 11.98-27.34 27.238v436.992c0 15.31 11.98 27.29 27.34 27.29 15.308 0 27.29-11.98 27.29-27.29v-436.992zM736.68 277.35c0-30.054-24.576-54.63-54.63-54.63h-382.31c-30.004 0-54.58 24.576-54.58 54.63v546.1c0 30.054 24.576 54.63 54.58 54.63h382.31c30.054 0 54.63-24.576 54.63-54.63v-546.1zM354.42 768.87h273.050v-109.312h-273.050zM354.42 604.98h273.050v-109.21h-273.050zM354.42 441.242h273.050v-109.312h-273.050z" horiz-adv-x="818" />
<glyph unicode="&#xe02c;" d="M325.8 857.6c131.276 0 237.722-106.394 237.722-237.722 0-190.208-237.722-427.878-237.722-427.878s-237.722 237.722-237.722 427.878c0 131.328 106.446 237.722 237.722 237.722zM325.8 960c-180.020 0-326.4-146.432-326.4-326.4 0-101.786 49.204-222.31 146.124-357.99 69.786-97.74 138.854-167.22 141.824-170.086 10.6-10.6 24.576-15.924 38.452-15.924s27.852 5.324 38.452 15.924c2.97 2.918 71.988 72.346 141.824 170.086 96.972 135.68 146.124 256.204 146.124 357.99 0 179.968-146.38 326.4-326.4 326.4v0zM325.8 755.2c-70.656 0-128-57.292-128-128s57.344-128 128-128 128 57.292 128 128-57.344 128-128 128v0z" horiz-adv-x="818" />
<glyph unicode="&#xe02d;" d="M824.832 925.76c-103.808 28.288-227.392 34.24-312.832 34.24s-209.024-5.952-312.896-34.24c-164.544-44.864-199.104-128-199.104-189.76v-128c0-35.392 28.608-64 64-64h104.448l-97.728-195.392c-4.416-8.832-6.72-18.688-6.72-28.608v-192c0-35.392 28.608-64 64-64h768c35.392 0 64 28.608 64 64v192c0 9.92-2.304 19.776-6.72 28.608l-97.728 195.392h104.448c35.392 0 64 28.608 64 64v128c0 61.76-34.56 144.896-199.168 189.76zM864 152h-704v176l176 352h352l176-352v-176zM928 618.24h-126.656l-57.856 115.776c-10.048 20.096-30.656 32.832-53.056 32.832h-356.8c-22.464 0-43.008-12.672-53.056-32.832l-57.92-115.776h-126.656v118.976c0 118.784 237.632 148.544 416 148.544s416-29.76 416-148.544v-118.976zM512 608c-88.384 0-160-71.616-160-160s71.616-160 160-160 160 71.616 160 160-71.616 160-160 160v0z" />
<glyph unicode="&#xe02e;" d="M988.608 825.28l-256 128c-8.96 4.48-18.752 6.72-28.608 6.72-6.784 0-13.632-1.152-20.224-3.264l-358.848-119.616-232.32 116.096c-9.024 4.544-18.88 6.784-28.608 6.784-11.712 0-23.36-3.264-33.6-9.6-18.88-11.648-30.4-32.256-30.4-54.4v-768c0-24.256 13.696-46.4 35.392-57.28l256-128c8.96-4.48 18.752-6.72 28.608-6.72 6.784 0 13.632 1.152 20.224 3.264l358.784 119.616 232.32-116.096c9.088-4.544 18.944-6.784 28.672-6.784 11.712 0 23.36 3.136 33.6 9.472 18.88 11.776 30.4 32.256 30.4 54.528v768c0 24.256-13.696 46.4-35.392 57.28zM384 740.736l256 91.264v-676.736l-256-91.264v676.736zM128 150.272v665.728l192-94.144v-673.856l-192 102.272zM896 80l-192 94.144v673.856l192-102.272v-665.728z" />
<glyph unicode="&#xe02f;" d="M852.096 866.752c31.104 0 56.768-25.472 56.768-56.704v-340.224c0-31.104-25.536-56.576-56.768-56.576h-680.192c-31.232 0-56.704 25.472-56.704 56.576v340.224c0 31.168 25.472 56.704 56.704 56.704h680.192zM896 960h-768c-70.656 0-128-57.408-128-128v-384c0-70.592 57.344-128 128-128h768c70.656 0 128 57.344 128 128v384c0 70.592-57.344 128-128 128v0zM759.040 654.912c9.664 14.912 10.112 33.92-0.512 49.792-15.808 23.552-50.688 31.296-77.504 17.408l-168.576-86.848-217.728 108.288c-27.072 13.44-61.696 5.184-77.248-18.624-15.488-23.808-5.952-54.016 21.12-67.52l246.4-122.56c17.536-8.704 39.488-8.576 56.96 0.448l196.672 101.504c8.704 4.672 15.616 10.816 20.416 18.112v0zM265.792 650.688c4.928-7.232 11.968-13.376 20.8-17.728l198.464-98.944c17.664-8.768 39.488-8.576 56.96 0.384l244.096 125.952c27.008 13.824 35.84 44.16 19.968 67.776-16.064 23.552-50.816 31.36-77.632 17.472l-215.68-111.168-170.112 84.48c-27.072 13.568-61.888 5.248-77.248-18.496-10.304-16-9.536-34.944 0.384-49.728v0z" />
<glyph unicode="&#xe030;" d="M1019.008 606.656c-13.184 39.040-49.792 65.344-91.008 65.344h-232.896l-94.336 228.608c-14.912 35.968-49.92 59.392-88.768 59.392s-73.856-23.424-88.768-59.392l-94.336-228.608h-232.896c-41.216 0-77.824-26.304-91.008-65.344-13.12-39.040 0.128-82.176 32.896-107.072l199.104-151.296-69.248-223.872c-12.096-39.104 1.92-81.664 35.008-105.856 33.152-24.192 77.952-24.704 111.552-1.28l197.696 137.728 197.696-137.728c16.512-11.52 35.712-17.28 54.848-17.28 19.968 0 39.808 6.208 56.704 18.496 33.088 24.192 47.104 66.752 35.008 105.856l-69.248 223.872 199.104 151.296c32.768 24.96 46.016 68.096 32.896 107.136zM853.952 535.36l-184.256-140.224 64.704-209.344c3.328-10.24-0.448-21.44-9.088-27.776-4.416-3.264-9.6-4.864-15.040-4.864-4.736 0-9.856 1.472-14.208 4.544l-184.064 128.192-184.064-128.192c-8.704-6.208-20.544-5.952-29.248 0.32-8.64 6.336-12.352 17.472-9.088 27.776l64.704 209.344-184.256 140.224c-8.768 6.656-12.16 17.728-8.768 28.032s12.992 17.216 23.872 17.216h216.576l87.040 210.688c3.84 9.28 13.12 15.424 23.232 15.424s19.392-6.208 23.168-15.424l87.040-210.688h216.576c10.816 0 20.416-6.848 23.872-17.216s0-21.376-8.704-28.032z" />
<glyph unicode="&#xe031;" d="M256 736c0-17.6-14.4-32-32-32h-192c-17.6 0-32 14.4-32 32v192c0 17.6 14.4 32 32 32h192c17.6 0 32-14.4 32-32v-192zM640 928c0 17.6-14.4 32-32 32h-192c-17.6 0-32-14.4-32-32v-192c0-17.6 14.4-32 32-32h192c17.6 0 32 14.4 32 32v192zM1024 928c0 17.6-14.4 32-32 32h-192c-17.6 0-32-14.4-32-32v-192c0-17.6 14.4-32 32-32h192c17.6 0 32 14.4 32 32v192zM256 544c0 17.6-14.4 32-32 32h-192c-17.6 0-32-14.4-32-32v-192c0-17.6 14.4-32 32-32h192c17.6 0 32 14.4 32 32v192zM640 544c0 17.6-14.4 32-32 32h-192c-17.6 0-32-14.4-32-32v-192c0-17.6 14.4-32 32-32h192c17.6 0 32 14.4 32 32v192zM1024 544c0 17.6-14.4 32-32 32h-192c-17.6 0-32-14.4-32-32v-192c0-17.6 14.4-32 32-32h192c17.6 0 32 14.4 32 32v192zM256 160c0 17.6-14.4 32-32 32h-192c-17.6 0-32-14.4-32-32v-192c0-17.6 14.4-32 32-32h192c17.6 0 32 14.4 32 32v192zM640 160c0 17.6-14.4 32-32 32h-192c-17.6 0-32-14.4-32-32v-192c0-17.6 14.4-32 32-32h192c17.6 0 32 14.4 32 32v192zM1024 160c0 17.6-14.4 32-32 32h-192c-17.6 0-32-14.4-32-32v-192c0-17.6 14.4-32 32-32h192c17.6 0 32 14.4 32 32v192z" />
<glyph unicode="&#xe040;" d="M9.344 73.344c-6.208 6.272-9.344 14.464-9.344 22.656s3.136 16.384 9.344 22.656l169.408 169.344-105.344 105.344c-6.144 6.144-9.408 14.272-9.408 22.656 0 4.096 0.832 8.256 2.432 12.224 4.928 11.968 16.64 19.776 29.568 19.776h384c17.664 0 32-14.4 32-32v-384c0-12.928-7.808-24.64-19.776-29.568-3.968-1.536-8.128-2.432-12.224-2.432-8.32 0-16.512 3.264-22.656 9.344l-105.344 105.408-169.344-169.344c-6.272-6.272-14.464-9.408-22.656-9.408s-16.384 3.136-22.656 9.344l-128 128zM544 448h384c12.928 0 24.64 7.808 29.568 19.776 1.536 3.904 2.432 8.128 2.432 12.224 0 8.32-3.264 16.512-9.344 22.656l-105.408 105.344 169.344 169.344c6.272 6.272 9.408 14.464 9.408 22.656s-3.136 16.384-9.344 22.656l-128 128c-6.272 6.208-14.464 9.344-22.656 9.344s-16.384-3.136-22.656-9.344l-169.344-169.408-105.344 105.344c-6.144 6.144-14.336 9.408-22.656 9.408-4.096 0-8.256-0.832-12.224-2.432-11.968-4.928-19.776-16.64-19.776-29.568v-384c0-17.664 14.4-32 32-32z" />
<glyph unicode="&#xe600;" d="M457.856 168.064l289.28-226.496c4.736-3.776 7.616-5.632 10.368-5.632 8 0 10.496 5.504 10.496 14.528v214.4c0 15.104 9.984 27.136 23.36 27.136h105.152c127.488 0 127.36 61.44 127.36 61.44v640.064c0 0 0 66.56-127.872 66.56h-767.936c-128 0-128-66.56-128-66.56v-640.064c0 0-0.064-61.44 128.448-61.44h256c0 0 53.568-1.472 73.344-23.936z" />
<glyph unicode="&#xe601;" d="M703.872 819.008l-0.128-0.064c-0.896 0.64-1.6 1.536-2.624 2.24-29.184 20.032-68.992 12.608-89.024-16.704-19.968-29.312-12.48-69.312 16.64-89.344 0.768-0.64 1.536-0.896 2.24-1.28l-0.256-0.448c82.88-58.048 137.28-154.496 137.28-263.744 0-177.536-143.296-321.472-320-321.472s-320 143.936-320 321.472c0 109.248 54.4 205.696 137.28 263.744l-0.256 0.448c0.704 0.384 1.472 0.64 2.24 1.216 29.184 20.032 36.608 60.032 16.64 89.344-20.032 29.312-59.84 36.8-89.024 16.704-0.96-0.704-1.728-1.536-2.688-2.24l-0.064 0.128c-116.032-81.408-192.128-216.32-192.128-369.344 0-248.576 200.576-450.176 448-450.176s448 201.6 448 450.176c0 153.024-76.096 287.936-192.128 369.344zM448 384c35.392 0 64 28.608 64 64v447.936c0 35.392-28.608 64.064-64 64.064-35.328 0-64-28.672-64-64.064v-447.936c0-35.392 28.672-64 64-64z" />
<glyph unicode="&#xe602;" d="M815.655 652.012l71.916 71.168c12.564 12.406 12.564 32.807 0 45.214l-45.765 45.253c-12.564 12.406-33.162 12.406-45.726 0l-71.916-71.129c-59.274 43.874-129.812 73.689-206.494 84.559v100.667c0 17.566-14.651 31.98-32.414 31.98h-64.709c-17.762 0-32.374-14.415-32.374-31.98v-100.628c-219.451-31.074-388.175-217.758-388.175-443.392 0-247.414 202.791-448 452.923-448s452.923 200.586 452.923 448c0 100.628-33.595 193.497-90.191 268.288zM355.879 379.234c0 53.012 43.441 96.020 97.044 96.020 31.98 0 60.18-15.399 77.903-38.912l280.93-25.246c16.66-1.497 29.381-15.36 29.381-31.862 0-16.581-12.721-30.405-29.381-31.941l-280.93-25.246c-17.684-23.591-45.922-38.833-77.903-38.833-53.602 0-97.044 42.929-97.044 96.020z" horiz-adv-x="945" />
<glyph unicode="&#xe603;" d="M787.692 576c0-279.316-333.233-607.429-347.49-621.292-12.721-12.406-29.617-18.708-46.356-18.708-16.817 0-33.634 6.302-46.395 18.708-14.218 13.863-347.451 341.977-347.451 621.292 0 211.692 176.64 384 393.846 384s393.846-172.308 393.846-384zM393.846 384c108.78 0 196.923 85.977 196.923 192s-88.143 192-196.923 192c-108.741 0-196.923-85.977-196.923-192s88.182-192 196.923-192z" horiz-adv-x="945" />
<glyph unicode="&#xe604;" d="M0 0c0-35.328 28.672-64 64-64h768c35.328 0 64 28.672 64 64v576h-896v-576zM274.731 301.269c25.003 25.003 65.493 25.003 90.496 0l47.616-47.616 178.944 204.544c23.253 26.581 63.701 29.269 90.325 6.016 26.581-23.253 29.269-63.701 6.016-90.325l-224-256c-11.648-13.312-28.331-21.205-46.037-21.803-0.683-0.085-1.365-0.085-2.091-0.085-16.939 0-33.237 6.741-45.269 18.731l-96 96c-24.96 25.003-24.96 65.536 0 90.539zM896 768v-128h-896v128c0 35.328 28.672 64 64 64h64v64c0 35.328 28.672 64 64 64s64-28.672 64-64v-64h384v64c0 35.328 28.672 64 64 64s64-28.672 64-64v-64h64c35.328 0 64-28.672 64-64z" />
<glyph unicode="&#xe605;" d="M0 0c0-35.328 28.672-64 64-64h768c35.328 0 64 28.672 64 64v576h-896v-576zM256 320h128v128h128v-128h128v-128h-128v-128h-128v128h-128v128zM896 768v-128h-896v128c0 35.328 28.672 64 64 64h64v64c0 35.328 28.672 64 64 64s64-28.672 64-64v-64h384v64c0 35.328 28.672 64 64 64s64-28.672 64-64v-64h64c35.328 0 64-28.672 64-64z" />
<glyph unicode="&#xe606;" d="M256 576v128c0 141.12 114.88 256 256 256s256-114.88 256-256v-128c0-141.12-114.88-256-256-256s-256 114.88-256 256zM988.608 121.28c-11.008 5.44-271.872 134.72-476.608 134.72s-465.6-129.28-476.608-134.72c-21.696-10.88-35.392-33.024-35.392-57.28v-64c0-35.392 28.608-64 64-64h896c35.392 0 64 28.608 64 64v64c0 24.256-13.696 46.4-35.392 57.28z" />
<glyph unicode="&#xe607;" d="M472.615 914.235c-257.733 0-466.983-207.557-466.983-463.793 0-255.961 209.25-463.596 466.983-463.596 258.048 0 466.983 207.596 466.983 463.596 0 256.236-208.935 463.793-466.983 463.793zM472.615 101.14c-193.812 0-350.523 156.554-350.523 349.263 0 192.788 156.711 349.302 350.523 349.302 193.497 0 350.562-156.554 350.562-349.302 0-192.709-157.066-349.263-350.562-349.263zM472.615 654.494c-113.231 0-205.194-91.609-205.194-204.367s91.963-204.052 205.194-204.052 205.194 91.254 205.194 204.052-91.963 204.367-205.194 204.367zM472.615 654.494c-113.231 0-205.194-91.609-205.194-204.367s91.963-204.052 205.194-204.052 205.194 91.254 205.194 204.052-91.963 204.367-205.194 204.367z" horiz-adv-x="945" />
<glyph unicode="&#xe608;" d="M859.687 860.16h-774.183c-32.768 0-59.55-26.86-59.55-59.589v-59.589c0-32.689 26.782-59.55 59.55-59.55h774.183c32.689 0 59.55 26.86 59.55 59.55v59.589c0 32.729-26.86 59.589-59.55 59.589zM859.687 502.863h-774.183c-32.768 0-59.55-26.86-59.55-59.589v-59.55c0-32.689 26.782-59.55 59.55-59.55h774.183c32.689 0 59.55 26.86 59.55 59.55v59.55c0 32.729-26.86 59.589-59.55 59.589zM859.687 145.526h-774.183c-32.768 0-59.55-26.821-59.55-59.589v-59.589c0-32.729 26.782-59.51 59.55-59.51h774.183c32.689 0 59.55 26.782 59.55 59.51v59.628c0 32.768-26.86 59.55-59.55 59.55z" horiz-adv-x="945" />
<glyph unicode="&#xe609;" d="M813.371 918.567h-41.826v-235.362c0-39.030-31.508-70.538-70.302-70.538h-328.98c-39.030 0-70.577 31.508-70.577 70.538v235.362h-182.666c-67.978 0-122.998-55.257-122.998-123.195v-694.351c0-67.978 55.020-122.998 122.998-122.998h694.351c67.978 0 123.234 55.020 123.234 122.998v694.351c0 67.938-55.296 123.195-123.234 123.195zM841.846 161.438c0-23.040-18.59-41.63-41.63-41.63h-668.042c-23.040 0-41.63 18.59-41.63 41.63v245.051c0 23.001 18.59 41.63 41.63 41.63h668.042c23.001 0 41.63-18.59 41.63-41.63v-245.051zM630.666 659.692h47.025c25.876 0 46.986 20.913 46.986 47.025v141.076c0 25.836-21.11 46.789-46.986 46.789h-47.025c-25.836 0-47.025-20.953-47.025-46.789v-141.076c-0.039-26.112 21.15-47.025 47.025-47.025zM677.691 894.582h-47.025c-25.836 0-47.025-20.953-47.025-46.789v-141.076c0-26.112 21.189-47.025 47.025-47.025h47.025c25.876 0 46.986 20.913 46.986 47.025v141.076c0 25.876-21.11 46.789-46.986 46.789z" horiz-adv-x="945" />
<glyph unicode="&#xe60a;" d="M407.997 280.003c-15.836 0-30.935 6.912-41.293 18.995l-163.205 190.397c-19.553 22.81-16.911 57.155 5.898 76.703 22.815 19.553 57.155 16.911 76.703-5.898l118.001-137.661 367.631 514.678c17.459 24.443 51.436 30.111 75.878 12.646 24.448-17.459 30.111-51.436 12.652-75.884l-407.997-571.192c-9.718-13.604-25.155-21.99-41.861-22.723-0.804-0.046-1.608-0.061-2.406-0.061v0zM652.8 89.605c59.996 0 108.8 48.809 108.8 108.8v271.995c0 15.022-12.18 27.197-27.197 27.197-15.027 0-27.197-12.18-27.197-27.197v-272c0-29.993-24.407-54.4-54.4-54.4h-544.005c-29.993 0-54.4 24.407-54.4 54.4v544c0 29.993 24.407 54.4 54.4 54.4h272c15.022 0 27.197 12.175 27.197 27.197 0 15.022-12.175 27.197-27.197 27.197h-272c-59.991 0.005-108.8-48.799-108.8-108.795v-544c0-59.991 48.809-108.8 108.8-108.8l544 0.005z" />
<glyph unicode="&#xe60b;" d="M320 576c-35.328 0-64-28.608-64-64s28.672-64 64-64 64 28.608 64 64-28.672 64-64 64zM512 384c-35.328 0-64-28.608-64-64s28.672-64 64-64 64 28.608 64 64-28.672 64-64 64zM320 384c-35.328 0-64-28.608-64-64s28.672-64 64-64 64 28.608 64 64-28.672 64-64 64zM896 895.936h-128c0 35.392-28.608 64.064-64 64.064s-64-28.672-64-64.064h-256c0 35.392-28.672 64.064-64 64.064s-64-28.672-64-64.064h-128c-70.656 0-128-57.28-128-127.936v-640c0-70.72 57.344-128 128-128h768c70.656 0 128 57.28 128 128v640c0 70.656-57.344 127.936-128 127.936zM896 128h-768v640h128c0-35.392 28.672-64 64-64s64 28.608 64 64h256c0-35.392 28.608-64 64-64s64 28.608 64 64h128v-640zM704 576c-35.392 0-64-28.608-64-64s28.608-64 64-64 64 28.608 64 64-28.608 64-64 64zM512 576c-35.328 0-64-28.608-64-64s28.672-64 64-64 64 28.608 64 64-28.672 64-64 64zM704 384c-35.392 0-64-28.608-64-64s28.608-64 64-64 64 28.608 64 64-28.608 64-64 64z" />
<glyph unicode="&#xe60c;" d="M100.076 250.919l177.979-178.058-266.91-88.93 88.93 266.988zM633.935 785.172l177.979-178.058-504.241-504.556-177.94 178.058 504.202 504.556zM826.644 889.029l89.049-88.97c24.537-24.615 24.537-64.473 0-89.049l-74.161-74.24-177.979 178.058 74.122 74.201c24.576 24.615 64.473 24.615 88.97 0z" horiz-adv-x="945" />
<glyph unicode="&#xe60d;" d="M229.14 58.289c-12.367-13.076-11.185-33.083 2.599-44.623l80.502-66.914c13.666-11.461 34.934-10.004 46.986 3.033l434.57 474.073c12.091 13.233 12.091 34.974 0 48.167l-434.53 473.994c-12.091 13.194-33.359 14.651-46.986 3.151l-80.502-66.954c-13.824-11.5-15.006-31.586-2.639-44.623l346.742-365.962c12.288-13.036 12.288-34.343 0-47.34l-346.742-366.001z" horiz-adv-x="945" />
<glyph unicode="&#xe60e;" d="M329.452 424.29c-12.288 13.036-12.288 34.343 0 47.34l346.742 365.962c12.367 13.036 11.185 33.122-2.599 44.623l-80.502 66.954c-13.666 11.5-34.934 10.043-46.986-3.19l-434.609-473.954c-12.091-13.194-12.091-34.895 0-48.167l434.57-474.073c12.091-13.036 33.359-14.494 46.986-3.033l80.502 66.914c13.824 11.54 15.006 31.547 2.599 44.623l-346.703 366.001z" horiz-adv-x="945" />
<glyph unicode="&#xe60f;" d="M599.985 810.22c-133.986 133.986-351.153 133.986-485.14 0-133.947-133.986-133.947-351.153 0-485.14 120.714-120.635 308.697-132.647 442.683-35.998 15.045 10.713 29.145 22.725 42.417 35.998 13.312 13.312 25.127 27.254 35.84 42.023 96.886 133.986 84.874 322.402-35.801 443.116zM190.11 400.345c-92.396 92.396-92.396 242.255 0 334.415 92.396 92.396 242.215 92.396 334.651 0 92.16-92.16 92.16-242.018 0-334.415-92.436-92.357-242.294-92.357-334.651 0zM918.292 97.634l-257.694 257.654c-6.853 6.853-15.636 10.91-24.852 11.855-12.642 1.93-26.191-1.93-35.801-11.855l-30.444-30.169c-9.846-9.886-13.942-23.158-12.012-36.037 0.866-9.019 5.12-17.762 12.012-24.655l257.694-257.654c16.975-16.738 43.993-16.738 60.652 0l30.444 30.208c16.738 16.699 16.738 43.993 0 60.652z" horiz-adv-x="945" />
<glyph unicode="&#xe610;" d="M362.667 846.222c145.863 0 264.135-118.215 264.135-264.135 0-211.342-264.135-475.42-264.135-475.42s-264.135 264.135-264.135 475.42c0 145.92 118.272 264.135 264.135 264.135zM362.667 960c-200.021 0-362.667-162.702-362.667-362.667 0-113.095 54.67-247.012 162.361-397.767 77.54-108.601 154.283-185.799 157.582-188.985 11.776-11.776 27.307-17.692 42.724-17.692s30.948 5.916 42.724 17.692c3.3 3.243 79.986 80.384 157.582 188.985 107.748 150.756 162.361 284.672 162.361 397.767 0 199.964-162.645 362.667-362.667 362.667v0zM362.667 732.444c-78.507 0-142.222-63.659-142.222-142.222s63.716-142.222 142.222-142.222 142.222 63.659 142.222 142.222-63.716 142.222-142.222 142.222v0z" horiz-adv-x="910" />
<glyph unicode="&#xe611;" d="M826.214 229.105l-299.776 299.75 288.133 288.113c17.295 17.362 17.295 45.43 0 62.792l-31.427 31.36c-17.275 17.352-45.43 17.352-62.725 0l-288.108-288.133-284.549 284.539c-17.469 17.51-45.875 17.51-63.345 0l-31.698-31.667c-17.5-17.469-17.5-45.865 0-63.345l284.559-284.57-288.819-288.804c-17.352-17.321-17.352-45.43 0-62.705l31.36-31.427c17.382-17.3 45.43-17.3 62.792 0l288.804 288.824 299.756-299.75c17.51-17.516 45.86-17.516 63.375 0l31.647 31.683c17.531 17.475 17.531 45.824 0.020 63.34z" />
<glyph unicode="&#xe612;" d="M472.615 889.108c-243.712 0-441.108-197.396-441.108-441.108s197.396-441.108 441.108-441.108c243.673 0 441.068 197.435 441.068 441.108 0 243.712-197.356 441.108-441.068 441.108zM697.856 322.009c22.922-22.882 22.922-60.062 0-82.983l-20.913-20.638c-22.922-23.158-60.14-23.158-83.062 0l-124.298 124.337-124.613-124.337c-22.882-23.158-60.14-23.158-83.298 0l-20.598 20.638c-22.882 22.922-22.882 60.101 0 82.983l124.652 124.652-124.652 124.298c-22.882 22.882-22.882 60.101 0 82.983l20.677 20.953c23.158 22.882 60.377 22.882 83.298 0l124.613-124.613 124.298 124.613c22.922 22.882 60.14 22.882 83.062 0l20.913-20.953c22.843-22.882 22.843-60.101 0-82.983l-124.692-124.337 124.613-124.613z" horiz-adv-x="945" />
<glyph unicode="&#xe613;" d="M273.802 198.38l517.081 517.081c15.36 15.36 40.251 15.36 55.611 0l27.845-27.766c15.36-15.439 15.36-40.29 0-55.69l-517.041-517.081c-15.36-15.399-40.251-15.399-55.69 0l-27.806 27.845c-15.36 15.321-15.36 40.212 0 55.611zM70.932 401.25l27.806 27.845c15.36 15.321 40.251 15.321 55.69 0l230.636-230.715c15.439-15.399 15.439-40.29 0-55.611l-27.766-27.845c-15.399-15.399-40.251-15.399-55.69 0l-230.676 230.676c-15.399 15.399-15.399 40.33 0 55.65z" horiz-adv-x="945" />
<glyph unicode="&#xe614;" d="M502.656 310.656c6.208-6.272 9.344-14.464 9.344-22.656s-3.136-16.384-9.344-22.656l-169.408-169.344 105.344-105.344c6.144-6.144 9.408-14.272 9.408-22.656 0-4.096-0.832-8.256-2.432-12.224-4.928-11.968-16.64-19.776-29.568-19.776h-384c-17.664 0-32 14.336-32 32v384c0 12.928 7.808 24.64 19.776 29.568 3.968 1.6 8.128 2.432 12.224 2.432 8.32 0 16.512-3.264 22.656-9.344l105.344-105.408 169.344 169.344c6.272 6.272 14.464 9.408 22.656 9.408s16.384-3.136 22.656-9.344l128-128zM992 960h-384c-12.928 0-24.64-7.808-29.568-19.776-1.6-3.904-2.432-8.128-2.432-12.224 0-8.32 3.264-16.512 9.344-22.656l105.408-105.344-169.408-169.344c-6.208-6.272-9.344-14.464-9.344-22.656s3.136-16.384 9.344-22.656l128-128c6.272-6.208 14.464-9.344 22.656-9.344s16.384 3.136 22.656 9.344l169.344 169.408 105.344-105.344c6.144-6.144 14.336-9.408 22.656-9.408 4.096 0 8.256 0.832 12.224 2.432 11.968 4.928 19.776 16.64 19.776 29.568v384c0 17.664-14.336 32-32 32z" />
<glyph unicode="&#xe615;" d="M934.833 468.165c0.079 21.78-17.566 39.503-39.463 39.503h-373.524v359.030c0 21.622-17.526 39.148-39.109 39.148h-39.109c-21.662 0.039-39.148-17.487-39.148-39.109v-359.070h-354.698c-21.78 0-39.463-17.684-39.424-39.503v-39.503c-0.039-21.819 17.684-39.463 39.424-39.463h354.698v-359.975c-0.039-21.622 17.487-39.109 39.148-39.148h39.109c21.583 0 39.070 17.447 39.109 39.109v360.015h373.524c21.898 0 39.542 17.684 39.542 39.503l-0.079 39.463z" horiz-adv-x="945" />
<glyph unicode="&#xe616;" d="M824.832 925.76c-103.808 28.288-227.392 34.24-312.832 34.24s-209.024-5.952-312.896-34.24c-164.544-44.864-199.104-128-199.104-189.76v-128c0-35.392 28.608-64 64-64h104.448l-97.728-195.392c-4.416-8.832-6.72-18.688-6.72-28.608v-192c0-35.392 28.608-64 64-64h768c35.392 0 64 28.608 64 64v192c0 9.92-2.304 19.776-6.72 28.608l-97.728 195.392h104.448c35.392 0 64 28.608 64 64v128c0 61.76-34.56 144.896-199.168 189.76zM864 152h-704v176l176 352h352l176-352v-176zM928 618.24h-126.656l-57.856 115.776c-10.048 20.096-30.656 32.832-53.056 32.832h-356.8c-22.464 0-43.008-12.672-53.056-32.832l-57.92-115.776h-126.656v118.976c0 118.784 237.632 148.544 416 148.544s416-29.76 416-148.544v-118.976zM512 608c-88.384 0-160-71.616-160-160s71.616-160 160-160 160 71.616 160 160-71.616 160-160 160v0z" />
<glyph unicode="&#xe617;" d="M555.264 343.232c11.2 23.168 1.408 50.88-21.696 62.016l-292.992 140.992c-23.104 11.136-50.88 1.472-61.952-21.696-11.136-23.104-1.408-50.944 21.696-62.016l292.928-140.928c23.168-11.136 50.88-1.472 62.016 21.632zM530.688 321.536l292.992 140.928c23.104 11.136 32.832 38.912 21.696 62.016-11.136 23.168-38.784 32.832-62.016 21.696l-292.928-140.928c-23.168-11.136-32.896-38.784-21.696-62.016 11.136-23.104 38.848-32.768 61.952-21.696zM815.488 650.304c27.648 0 50.496-22.72 50.496-50.624v-303.488c0-27.712-22.72-50.496-50.496-50.496h-606.848c-27.84 0-50.624 22.72-50.624 50.496v303.488c0 27.84 22.72 50.624 50.624 50.624h606.848zM854.656 733.504h-685.248c-62.976 0-114.24-51.2-114.24-114.176v-342.592c0-62.912 51.264-114.24 114.24-114.24h685.184c62.976 0 114.112 51.328 114.112 114.24v342.592c0.064 62.976-51.072 114.176-114.048 114.176v0z" />
<glyph unicode="&#xe618;" d="M512 960c-282.752 0-512-229.184-512-511.936 0-282.816 229.248-512.064 512-512.064 282.752 0 512 229.248 512 512.064 0 282.752-229.248 511.936-512 511.936zM842.88 552.128l-367.296-367.232c-7.488-7.488-19.712-7.488-27.136 0l-54.272 54.784c-7.424 7.552-19.712 19.904-27.136 27.392l-126.336 132.8c-3.712 3.712-5.696 8.96-5.696 13.888 0 4.992 1.984 9.728 5.696 13.504l55.36 49.92c3.776 3.84 8.768 5.632 13.696 5.632 4.864-0.064 9.728-1.984 13.44-5.632l125.248-127.872c7.488-7.616 19.648-7.616 27.136 0l285.888 285.12c7.424 7.488 19.712 7.488 27.136 0l54.336-54.912c7.424-7.488 7.424-19.84-0.064-27.392z" />
<glyph unicode="&#xe619;" d="M610.668 752.379l-156.513 156.477c-9.779 9.789-22.999 15.278-36.844 15.278h-365.143c-28.81 0.005-52.168-23.347-52.168-52.157v-730.209c0-28.851 23.357-52.178 52.168-52.178h521.58c28.846 0 52.163 23.332 52.163 52.178v573.742c0.005 13.829-5.473 27.090-15.242 36.869zM417.311 871.977l156.442-156.472h-156.442v156.472zM573.752 141.768h-521.585v730.209h339.062v-156.472c0-14.397 11.684-26.092 26.081-26.092h156.442v-547.645zM377.318 478.397c-8.801 7.368-24.55 12.908-43.244 16.538l-7.48 1.971v31.508c8.832-0.568 14.705-1.971 22.492-4.209 7.747-2.232 16.609-5.038 22.461-8.428h5.463c0 0 6.523 2.842 6.523 6.922 0 5.939 0.502 12.078 0.502 18.309 0 4.68-7.025 10.501-7.025 10.501-5.837 2.391-15.933 4.5-26.138 6.318-10.214 1.828-16.676 2.908-24.274 3.231 0 0 0 15.749 0 25.19 0 9.452-7.572 10.399-13.23 10.399-5.11 0-9.405-1.9-9.405-10.399 0-8.489 0-25.441 0-25.441-19.932-1.812-36.941-7.101-48.184-15.872-11.254-8.76-15.872-19.318-15.872-31.652 0-8.192 1.295-15.078 3.85-20.618 2.56-5.612 5.166-10.348 9.789-14.080 4.634-3.82 10.153-6.912 16.568-9.242 6.4-2.268 13.414-4.311 21.023-6.021l13.041-2.77v-33.961c-9.769 0.742-20.588 2.34-30.464 4.803-9.887 2.509-18.637 5.78-26.24 9.948h-5.586c0 0-6.502-4.408-6.502-9.098 0-6.758 0-12.918 0-18.949 0-3.43 6.502-8.172 6.502-8.172 6.866-3.261 16.369-5.898 28.534-8.059 12.145-2.161 24.279-3.261 33.541-3.389 0 0 0-23.921 0-32.732 0-4.669 4.142-7.009 9.779-6.881 5.12 0.169 12.856 2.401 12.856 6.881 0 9.421 0 33.469 0 33.469 19.405 1.352 34.606 7.009 46.362 17.039 11.689 9.969 17.603 21.96 17.603 35.922-0.010 13.302-4.449 23.572-13.245 31.022zM287.539 505.216c-2.816 2.161-4.219 5.181-4.219 9.062 0 4.311 2.176 7.639 6.508 9.989 4.352 2.371 8.627 3.758 14.085 4.152v-28.81c-8.52 1.608-13.563 3.446-16.374 5.606zM337.649 431.826c-3.891-2.401-6.093-3.988-11.571-4.741v30.751c4.393-0.681 6.333-2.14 10.767-4.552 4.424-2.319 6.641-5.908 6.641-10.701 0-4.736-1.94-8.3-5.837-10.757zM238.556 593.756c-25.334-8.899-52.956 3.948-62.167 29.261-0.317 0.998-0.655 2.309-0.983 3.62l-0.338-0.317-15.13 42.092-55.895 154.245-19.087 52.301c-0.333 1.321-0.66 2.632-0.978 3.61-9.544 31.908 7.229 66.12 39.137 77.619 31.575 11.52 66.442-3.948 79.59-34.54 0.666-0.988 0.988-2.289 1.321-3.599l20.716-24.018-36.634-2.739-4.48 17.551c0 0.66-0.333 1.311-0.333 1.638-0.323 0.65-0.645 1.3-0.983 1.971l-0.323 1.638h-0.333c-8.873 19.092-30.909 28.288-50.97 21.038-20.070-7.219-31.252-28.6-25.677-48.988h-0.317l0.655-1.649c0.323-0.64 0.323-1.3 0.66-1.961 0.323-0.338 0.323-0.998 0.666-1.649l18.406-50.647 10.199-27.95 60.841-168.079h0.338c0.323-1.3 0.666-2.299 0.973-3.589 4.936-13.512 19.748-20.731 33.234-15.811 13.819 4.941 20.721 20.070 15.78 33.562-0.333 1.321-0.978 2.299-1.644 3.282l0.338 0.338-12.513 34.852-2.621 6.912-53.617 147.978-2.309 6.252-0.666-0.317c0 1.3 0 2.632-0.64 3.61-1.987 5.601-7.895 8.55-13.491 7.25-0.317-0.338-0.317-0.338-0.66-0.338-0.317 0-0.64-0.317-0.983-0.317-5.258-2.309-7.89-8.561-5.924-14.162 0.666-0.968 1.311-2.289 1.976-3.282h-0.66l2.324-6.252 7.224-20.050 0.645-1.981 30.612-83.881-21.053-7.552-40.786 112.148h0.323c-0.323 0.671-0.65 1.311-0.968 1.992 0 0.302-0.338 0.978-0.338 1.3-2.954 7.24-2.632 15.119-0.317 22.031 2.954 9.211 10.194 17.428 20.372 21.038 9.871 3.64 20.726 1.992 28.959-3.282 6.246-3.62 11.167-9.539 13.814-16.758 0.307-0.66 0.307-0.998 0.645-1.659 0-0.65 0.323-1.311 0.323-1.971h0.333l71.035-196.009c0.323-1.321 0.645-2.289 1.311-3.62 8.883-25.001-3.942-52.951-28.933-62.162z" />
<glyph unicode="&#xe61a;" d="M512 844.8c105.92 0 205.632-41.28 280.576-116.16 74.944-75.008 116.224-174.656 116.224-280.64 0-105.92-41.344-205.632-116.224-280.576s-174.656-116.224-280.576-116.224-205.632 41.344-280.576 116.224-116.224 174.656-116.224 280.576c0 105.984 41.344 205.632 116.224 280.64 74.944 74.944 174.656 116.16 280.576 116.16zM512 960c-282.752 0-512-229.248-512-512s229.248-512 512-512 512 229.248 512 512-229.248 512-512 512v0zM710.4 277.952c19.648 0 38.784 10.304 49.28 28.544 15.552 27.136 6.080 61.888-21.12 77.312l-169.856 97.152v250.56c0 31.232-25.344 56.576-56.704 56.576s-56.704-25.344-56.704-56.576v-283.52c0-20.288 10.944-39.104 28.544-49.28l198.464-113.344c8.896-4.992 18.432-7.424 28.096-7.424v0z" />
<glyph unicode="&#xe61b;" d="M231.199 851.2c22.533 0 40.801-18.263 40.801-40.801s-18.263-40.801-40.801-40.801c-22.538 0-40.801 18.263-40.801 40.801s18.263 40.801 40.801 40.801zM231.199 878.397c-37.494 0-67.999-30.505-67.999-67.999s30.505-67.999 67.999-67.999c37.494 0 67.999 30.505 67.999 67.999s-30.505 67.999-67.999 67.999v0zM639.201 851.2c22.528 0 40.801-18.263 40.801-40.801s-18.268-40.801-40.801-40.801c-22.538 0-40.801 18.263-40.801 40.801s18.258 40.801 40.801 40.801zM639.201 878.397c-37.499 0-67.999-30.505-67.999-67.999s30.5-67.999 67.999-67.999c37.489 0 67.999 30.505 67.999 67.999s-30.51 67.999-67.999 67.999v0zM761.6 960h-652.8c-59.991 0-108.8-48.809-108.8-108.8v-652.8c0-59.991 48.809-108.8 108.8-108.8h652.8c59.991 0 108.8 48.809 108.8 108.8v652.8c0 59.991-48.809 108.8-108.8 108.8zM108.8 905.6h652.8c29.921 0 54.4-24.479 54.4-54.4v-135.997h-761.6v135.997c0 29.921 24.479 54.4 54.4 54.4zM761.6 144h-652.8c-29.921 0-54.4 24.479-54.4 54.4v489.6h761.6v-489.6c0-29.921-24.479-54.4-54.4-54.4zM571.197 470.4h-81.597v81.597c0 30.039-24.361 54.4-54.4 54.4-30.044 0-54.4-24.361-54.4-54.4v-81.603h-81.597c-30.044 0-54.4-24.361-54.4-54.4s24.356-54.4 54.4-54.4h81.603v-81.603c0-30.039 24.356-54.4 54.4-54.4 30.039 0 54.4 24.361 54.4 54.4v81.603h81.597c30.039 0 54.4 24.361 54.4 54.4s-24.361 54.405-54.405 54.405z" />
<glyph unicode="&#xe61c;" d="M423.168 533.345l-7.219-4.91c2.253 1.633 4.659 3.277 7.168 4.966l0.051-0.056zM1359.718 420.152v-31.749c0-28.82-23.398-52.219-52.173-52.219h-227.686l-0.102 52.219h227.784v31.749c-47.77 63.539-122.158 105.928-206.638 110.587l0.41 0.41c0 0 63.483 85.094 63.483 111.002v63.437c0 43.776-35.528 79.309-79.309 79.309-43.827 0-79.304-35.533-79.304-79.309v-63.442c0-25.907 63.437-111.002 63.437-111.002l0.461-0.41c-2.662-0.148-5.274-0.358-7.885-0.558-5.268-0.461-10.445-1.024-15.565-1.741-2.611-0.358-5.171-0.768-7.731-1.229-4.25-0.671-8.448-1.541-12.646-2.458-1.592-0.358-3.123-0.666-4.71-1.075-1.741-0.353-3.533-0.814-5.274-1.28-2.509-0.614-4.915-1.28-7.424-1.997-1.638-0.461-3.323-0.968-4.966-1.485-1.178-0.358-2.304-0.666-3.43-1.075-3.738-1.178-7.475-2.458-11.167-3.891-1.019-0.358-1.997-0.722-2.964-1.132-3.328 2.821-6.712 5.53-10.092 8.141-1.331 1.080-2.662 2.099-3.988 3.123-4.864 3.732-9.887 7.424-15.007 11.003-5.171 3.692-10.445 7.276-15.821 10.757-1.331 0.87-2.662 1.69-3.994 2.509 14.546 7.322 29.645 13.517 45.158 18.586-24.883 41.518-28.621 60.826-28.621 75.208v63.447c0 72.55 58.982 131.533 131.528 131.533 72.499 0 131.533-58.982 131.533-131.533v-63.442c0-14.433-3.789-33.69-28.672-75.208 63.795-20.941 120.166-61.235 160.922-115.456 6.774-8.96 10.455-20.122 10.455-31.329zM1054.828 389.53c-0.056 0.62-0.154 1.178-0.205 1.792l-1.536 7.322c-1.843 6.508-4.92 12.652-9.016 18.079-21.76 28.979-46.843 55.188-74.701 78.080l0.256 0.148-12.442 9.523-5.325 4.045h-0.051c-1.592 1.178-3.174 2.355-4.767 3.43-6.246 4.562-12.646 8.96-19.046 13.061-6.246 4.147-12.954 8.192-19.866 12.129-13.005 7.532-26.47 14.49-40.038 20.531-21.862 9.933-44.692 18.079-67.942 24.32 44.8 70.047 51.092 98.412 51.092 118.579v90.624c0.010 93.082-75.766 168.806-168.847 168.806s-168.806-75.725-168.806-168.806v-90.624c0-20.122 6.292-48.486 51.092-118.579-23.296-6.241-46.080-14.387-67.891-24.264-13.312-5.996-26.829-12.908-40.090-20.536-6.758-3.891-13.414-7.987-19.866-12.129-7.322-4.762-13.363-8.909-18.995-13.061-1.638-1.172-3.226-2.299-4.813-3.528l-0.051 0.051-5.325-4.045-12.442-9.574 0.256-0.148c-27.853-22.892-52.941-49.050-74.701-78.029-4.096-5.432-7.122-11.571-8.96-18.079l-1.741-8.392c-0.056-0.261-0.056-0.461-0.108-0.671-0.256-2.35-0.307-4.608-0.307-6.241v-45.322c0-0.87 0-1.792 0.051-2.248 1.229-29.901 25.6-53.35 55.501-53.35h634.419c29.901 0 54.272 23.45 55.45 52.941 0.102 0.87 0.102 1.792 0.102 2.662v45.322c0.010 2.079-0.092 4.132-0.343 6.18zM999.629 338.022h-634.419v45.322c1.28 1.741 2.56 3.369 3.948 5.059 24.008 30.981 52.582 58.368 84.685 81.055 9.062 6.349 18.324 12.447 27.955 18.028 6.246 3.686 12.646 7.163 19.144 10.491 48.23 24.94 102.252 40.197 159.488 43.32l-0.666 0.666c0 0-1.741 2.304-4.659 6.4-1.946 2.714-4.454 6.144-7.373 10.24-24.724 34.56-78.592 113.403-78.592 141.972v90.624c0 62.566 50.688 113.254 113.254 113.254s113.357-50.688 113.357-113.254v-90.624c0-28.57-53.862-107.412-78.592-141.972-2.918-4.096-5.432-7.526-7.373-10.24-2.913-4.096-4.659-6.4-4.659-6.4l-0.666-0.666c57.19-3.123 111.212-18.381 159.442-43.32 6.502-3.272 12.851-6.804 19.144-10.491 9.574-5.637 18.944-11.674 27.96-18.028 32.148-22.733 60.718-50.074 84.736-81.055 1.331-1.69 2.611-3.318 3.891-5.059v-45.322zM442.368 545.9l-8.858-5.74c-1.536-0.968-3.021-1.889-4.506-2.913-2.043-1.336-3.994-2.616-5.883-3.84-2.509-1.69-4.915-3.328-7.168-4.966-5.632-3.891-11.366-8.038-17.101-12.493-0.614-0.461-1.075-0.87-1.592-1.229l-2.458-2.053-2.918 1.331c-1.69 0.768-3.379 1.536-5.12 2.202-13.414 5.53-27.597 10.092-42.342 13.568l-35.84 8.346 21.402 32.256c0.614 0.922 1.229 1.838 1.792 2.765 21.965 33.946 33.024 57.083 33.024 69.012v63.442c0 47.099-38.349 85.453-85.448 85.453-47.104 0-85.407-38.349-85.407-85.448v-63.442c0-11.93 11.008-34.97 32.722-68.603l3.323-5.012 19.512-30.52-35.226-8.238c-64.41-15.104-121.861-52.741-161.797-105.938-0.819-1.070-1.28-2.452-1.28-3.681v-31.749c0-3.369 2.714-6.139 6.093-6.139h232.755v-44.242c0-0.461-0.051-6.958-0.051-6.958h-232.704c-31.59 0-57.293 25.702-57.293 57.339v31.749c0 12.288 4.096 24.468 11.52 34.401 40.197 53.504 94.464 93.235 157.338 115.2-22.835 39.327-26.117 58.066-26.117 72.397v63.432c0.005 75.366 61.297 136.653 136.612 136.653 75.361 0 136.648-61.286 136.648-136.653v-63.442c0-14.331-3.277-33.070-26.112-72.397 13.619-4.71 26.982-10.394 39.782-16.845 1.797-0.87 3.635-1.792 5.432-2.816l7.265-4.188z" horiz-adv-x="1536" />
<glyph unicode="&#xe61d;" d="M329.098 436.961c0 45.071 36.526 81.592 81.603 81.592 26.854 0 50.606-13.015 65.475-33.024l236.191-21.473c14.003-1.27 24.735-13.015 24.735-27.090 0-14.065-10.726-25.81-24.735-27.080l-236.191-21.478c-14.868-20.024-38.61-33.050-65.475-33.039-45.076-0.010-81.603 36.516-81.603 81.592zM385.915 819.548h-59.208v83.661c0 31.314 25.477 56.791 56.791 56.791h54.426c31.314 0 56.791-25.477 56.791-56.791v-83.558h-59.208v81.142h-49.592v-81.244zM411.044 31.007c-226.647 0-411.044 184.392-411.044 411.044 0 99.502 36.009 195.512 101.391 270.341 64.753 74.112 153.795 122.573 250.721 136.463 38.344 5.601 79.171 5.617 117.243 0.092 67.978-9.58 133.197-36.603 188.488-78.126 31.447-23.654 59.279-51.604 82.755-83.082 53.304-71.404 81.49-156.37 81.49-245.688 0-226.652-184.392-411.044-411.044-411.044zM411.044 793.887c-16.988 0-33.971-1.219-50.452-3.625-171.848-24.627-301.379-174.316-301.379-348.206 0-194.002 157.829-351.836 351.836-351.836s351.831 157.829 351.831 351.831c0 76.462-24.115 149.171-69.74 210.284-20.111 26.977-43.95 50.903-70.871 71.153-47.299 35.523-103.081 58.639-161.29 66.847-16.292 2.365-33.055 3.553-49.935 3.553zM737.802 649.108l-41.871 41.871 57.574 57.58-35.082 35.036-57.431-57.39-41.851 41.887 59.136 59.085c10.706 10.711 24.97 16.614 40.166 16.614 0.026 0 0.051 0 0.072 0 15.201-0.015 29.45-5.939 40.131-16.676l38.431-38.385c22.129-22.236 22.108-58.245 0.010-80.333l-59.284-59.29z" />
<glyph unicode="&#xe61e;" d="M480.22 451.548l-0.748-0.794c46.746-2.555 91.781-11.592 134.272-26.322h117.14v7.921c-47.324 27.812-98.688 48.44-152.561 61.097 1.915 2.929 3.881 5.903 5.852 8.934 57.748 89.334 65.567 124.375 65.567 146.918v112.993c-0.005 109.010-88.699 197.704-197.76 197.704-109.010 0-197.755-88.694-197.755-197.704v-112.993c0-22.543 7.813-57.585 65.567-146.918 1.971-3.031 3.937-6.006 5.847-8.934-124.585-29.245-235.873-101.299-314.312-205.676-7.342-9.784-11.331-21.693-11.331-33.925v-56.53c0-31.212 25.313-56.52 56.53-56.52h674.299l0.056 56.52h-674.355v56.53c85.018 113.208 217.528 188.662 368.020 196.905l-0.799 0.794c0 0-112.993 151.547-112.993 197.755v112.993c0 78.008 63.222 141.23 141.23 141.23s141.23-63.222 141.23-141.23v-112.993c-0.005-46.208-112.998-197.755-112.998-197.755zM1014.513 350.198v-46.531c0-12.872-10.424-23.291-23.235-23.291h-116.352v-116.291c0-10.322-6.702-19.041-15.954-22.118-0.051 0-0.102 0-0.102 0-3.671-0.799-7.501-1.172-11.382-1.172h-42.327c-12.877 0-23.296 10.419-23.296 23.291v116.291h-116.291c-12.872 0-23.291 10.419-23.291 23.291v46.531c0 12.82 10.419 23.24 23.291 23.24h116.291v116.347c0 12.815 10.419 23.235 23.296 23.235h46.525c12.815 0 23.235-10.419 23.235-23.235v-116.342h116.352c12.815 0 23.24-10.424 23.24-23.245zM858.875 141.972c-2.284-0.799-4.68-1.172-7.178-1.172h-4.198c3.876 0 7.706 0.369 11.377 1.172z" />
<glyph unicode="&#xe61f;" d="M571.203 905.6c135.194 0 244.797-109.599 244.797-244.797 0-135.194-109.599-244.792-244.797-244.797v-0.005h-108.805l-163.2-163.2v163.205c-135.199 0-244.797 109.599-244.797 244.797s109.599 244.797 244.797 244.797h272.005zM571.203 960h-272c-164.982 0-299.203-134.221-299.203-299.203 0-146.412 105.697-268.59 244.797-294.241v-113.761c0-22.006 13.256-41.836 33.582-50.253 6.728-2.79 13.798-4.147 20.803-4.147 14.162 0 28.068 5.524 38.487 15.933l147.261 147.267h86.277c164.977 0 299.197 134.231 299.197 299.203-0.005 164.982-134.226 299.203-299.203 299.203v0z" />
<glyph unicode="&#xe620;" d="M231.199 851.2c22.533 0 40.801-18.263 40.801-40.801s-18.263-40.801-40.801-40.801c-22.538 0-40.801 18.263-40.801 40.801 0 22.538 18.263 40.801 40.801 40.801zM231.199 878.397c-37.494 0-67.999-30.505-67.999-67.999s30.505-67.999 67.999-67.999c37.489 0 67.999 30.505 67.999 67.999 0 37.494-30.505 67.999-67.999 67.999v0zM639.201 851.2c22.533 0 40.801-18.263 40.801-40.801s-18.258-40.801-40.801-40.801-40.801 18.263-40.801 40.801c0 22.538 18.258 40.801 40.801 40.801zM639.201 878.397c-37.489 0-67.999-30.505-67.999-67.999s30.51-67.999 67.999-67.999 67.999 30.505 67.999 67.999c0 37.494-30.51 67.999-67.999 67.999v0zM761.6 960h-652.8c-59.991 0-108.8-48.809-108.8-108.8v-652.8c0-59.991 48.809-108.8 108.8-108.8h652.8c59.991 0 108.8 48.809 108.8 108.8v652.8c0 59.991-48.809 108.8-108.8 108.8zM108.8 905.6h652.8c29.921 0 54.4-24.479 54.4-54.4v-135.997h-761.6v135.997c0 29.921 24.479 54.4 54.4 54.4zM761.6 144h-652.8c-29.921 0-54.4 24.479-54.4 54.4v489.6h761.6v-489.6c0-29.921-24.479-54.4-54.4-54.4zM625.014 570.957c-1.859 11.177-7.956 20.956-17.178 27.53-7.235 5.171-15.744 7.905-24.622 7.905-13.686 0-26.588-6.641-34.529-17.761l-179.948-251.93-49.341 57.554c-8.064 9.416-19.804 14.817-32.21 14.817-10.107 0-19.907-3.63-27.576-10.209-8.602-7.363-13.814-17.644-14.684-28.938s2.714-22.241 10.086-30.838l84.572-98.673c8.064-9.4 19.799-14.797 32.189-14.797 0.671 0 1.352 0.020 1.869 0.036 13.112 0.573 25.006 7.025 32.635 17.71l211.415 295.982c6.579 9.206 9.18 20.434 7.322 31.611z" />
<glyph unicode="&#xe621;" d="M999.352 702.106h-32.241v193.418c0 21.56-10.772 41.692-28.708 53.647-10.742 7.168-23.219 10.829-35.773 10.829-8.392 0-16.814-1.633-24.791-4.956l-374.938-156.227h-438.426c-35.604 0-64.476-28.872-64.476-64.476v-257.894c0-35.604 28.872-64.476 64.476-64.476h64.532c0-5.222 0.573-10.465 1.869-15.642l64.476-257.894c7.168-28.698 32.963-48.835 62.546-48.835h128.947c19.85 0 38.605 9.144 50.821 24.801 12.211 15.647 16.543 36.050 11.73 55.311l-60.564 242.258h114.068l374.938-156.227c7.972-3.318 16.399-4.961 24.791-4.961 12.554 0 25.021 3.661 35.768 10.829 17.94 11.955 28.708 32.092 28.708 53.647v193.423h32.241c17.802 0 32.241 14.438 32.241 32.241v128.947c0 17.802-14.438 32.236-32.236 32.236zM64.476 734.341h193.423v-257.894h-193.423v257.894zM395.095 143.078h-139.95l-69.975 279.89h139.95l69.975-279.89zM290.135 476.447v257.894h225.659l290.135 120.888v-499.676l-290.135 120.888h-225.659zM902.641 315.259l-64.476 26.86v526.546l64.476 26.86v-580.265zM999.352 540.918h-32.241v128.952h32.241v-128.952z" horiz-adv-x="1536" />
<glyph unicode="&#xe622;" d="M761.6 960h-652.8c-59.991 0-108.8-48.809-108.8-108.8v-652.8c0-59.991 48.809-108.8 108.8-108.8h652.8c59.991 0 108.8 48.809 108.8 108.8v652.8c0 59.991-48.809 108.8-108.8 108.8zM816 198.4c0-29.921-24.479-54.4-54.4-54.4h-652.8c-29.921 0-54.4 24.479-54.4 54.4v652.8c0 29.921 24.479 54.4 54.4 54.4h652.8c29.921 0 54.4-24.479 54.4-54.4v-652.8zM761.6 456.806v367.196c0 15.022-12.18 27.197-27.197 27.197h-598.405c-15.022 0-27.197-12.18-27.197-27.197v-489.6c0-15.022 12.18-27.197 27.197-27.197h598.4c15.022 0 27.197 12.18 27.197 27.197v122.394c0.005 0 0.005 0.005 0.005 0.010zM734.403 824.003v-334.367l-99.19 99.18c-4.9 4.9-12.692 5.335-18.109 1.004l-126.49-101.192-154.598 154.588c-5.043 5.043-13.133 5.335-18.519 0.66l-181.499-157.297v337.423h598.405zM135.997 334.397v116.193l189.737 164.439 154.245-154.245c4.9-4.9 12.698-5.335 18.109-1.004l126.5 101.197 109.809-109.809v-116.767h-598.4zM584.801 633.6c37.489 0 67.999 30.505 67.999 67.999s-30.51 67.999-67.999 67.999c-37.499 0-67.999-30.505-67.999-67.999s30.5-67.999 67.999-67.999zM584.801 742.4c22.528 0 40.801-18.263 40.801-40.801s-18.268-40.801-40.801-40.801c-22.538 0-40.801 18.263-40.801 40.801s18.258 40.801 40.801 40.801z" />
<glyph unicode="&#xe623;" d="M518.432 900.116l142.108-287.954 317.78-46.176-229.95-224.146 54.29-316.46-284.228 149.396-284.224-149.396 54.292 316.46-229.952 224.146 317.782 46.176z" />
<glyph unicode="&#xe624;" d="M488.622 587.822c-13.512 26.44-31.718 50.586-53.422 70.989v139.699c23.46 6.042 40.801 27.341 40.801 52.69v54.4c0 30.044-24.361 54.4-54.4 54.4h-326.4c-30.044 0-54.4-24.356-54.4-54.4v-54.4c0-25.349 17.341-46.648 40.801-52.69v-139.699c-21.699-20.403-39.916-44.549-53.427-70.989-18.432-36.076-28.175-76.682-28.175-117.422 0-30.044 24.356-54.4 54.4-54.4h122.399v-108.8l81.603-217.6 81.603 217.6v108.8h122.399c30.039 0 54.4 24.356 54.4 54.4 0 40.74-9.743 81.347-28.18 117.422zM95.201 905.6h326.4v-54.4h-326.4v54.4zM380.8 660.797h-244.803v163.205h244.803v-163.205zM285.604 317.066l-27.197-72.535-27.197 72.535v98.934h54.4v-98.934zM54.4 470.4c0 66.734 32.051 125.798 81.597 163.2h244.803c49.541-37.402 81.603-96.466 81.603-163.2h-408.003z" />
<glyph unicode="&#xe625;" d="M1120 960h-800c-60.544 0-115.968-34.24-143.040-88.448l-160-320c-22.592-45.056-22.592-98.048 0-143.104l160-320c27.072-54.208 82.496-88.448 143.040-88.448h800c88.384 0 160 71.616 160 160v640c0 88.384-71.616 160-160 160zM1200 160c0-44.16-35.776-80-80-80h-800c-30.272 0-57.984 17.152-71.488 44.224l-160 320c-11.264 22.528-11.264 49.024 0 71.552l160 320c13.504 27.072 41.216 44.224 71.488 44.224h800c44.224 0 80-35.84 80-80v-640zM280 576c-52.928 0-96-42.944-96-96 0-52.992 43.072-96 96-96 53.12 0 96 43.008 96 96 0 53.056-42.88 96-96 96v0z" horiz-adv-x="1280" />
<glyph unicode="&#xe626;" d="M46.95 960.051c12.134 0 24.013-4.608 33.126-13.645l465.203-465.024c18.406-18.355 18.406-48.128 0.102-66.509l-465.306-465.178c-18.381-18.202-47.923-18.202-66.304 0-18.381 18.355-18.381 48.077 0 66.253l432.154 432.077-432.154 432.051c-18.278 18.176-18.278 48.154 0 66.432 9.011 8.934 21.043 13.542 33.178 13.542z" />
<glyph unicode="&#xe627;" d="M512.128-64c-12.134 0-24.013 4.608-33.126 13.645l-465.178 465.024c-18.406 18.355-18.406 48.128-0.102 66.509l465.306 465.178c18.381 18.202 47.923 18.202 66.304 0 18.381-18.355 18.381-48.077 0-66.253l-432.154-432.077 432.154-432.051c18.278-18.176 18.278-48.154 0-66.432-9.037-8.934-21.069-13.542-33.203-13.542z" />
<glyph unicode="&#xe628;" d="M367.13 448c0-3.016-0.691-5.852-0.865-8.852l315.535-157.722c27.008 22.876 61.573 37.151 99.758 37.151 85.837-0.015 155.402-69.581 155.402-155.407 0-85.924-69.565-155.489-155.402-155.489-85.914 0-155.407 69.565-155.407 155.489 0 3.092 0.691 5.857 0.86 8.852l-315.53 157.727c-27.095-22.789-61.578-37.064-99.758-37.064-85.832 0-155.402 69.484-155.402 155.315 0 85.908 69.571 155.494 155.402 155.494 38.185 0 72.673-14.367 99.758-37.156l315.53 157.727c-0.169 3.016-0.86 5.852-0.86 8.945 0 85.745 69.489 155.315 155.407 155.315 85.837-0.005 155.402-69.576 155.402-155.32 0-85.908-69.565-155.494-155.402-155.494-38.272 0-72.765 14.367-99.758 37.243l-315.535-157.809c0.164-3.016 0.865-5.852 0.865-8.945z" />
<glyph unicode="&#xe666;" d="M665.536 440c114.752 0 208 93.312 208 208v104c0 114.624-93.248 208-208 208-114.688 0-208-93.376-208-208v-104c0-114.688 93.312-208 208-208zM1081.536 440c68.736 0 124.736 55.936 124.736 124.736v62.464c0 68.8-56 124.8-124.736 124.8-68.8 0-124.736-56-124.736-124.8v-62.464c0-68.8 55.936-124.736 124.736-124.736zM1313.856 343.104c-5.312 2.624-132.544 65.664-232.32 65.664-78.656 0-174.272-39.104-213.888-57.088-64.384 19.968-136.768 36.224-202.112 36.224s-137.728-16.128-202.112-36.032c-39.616 17.792-135.232 56.96-213.888 56.96-99.776 0-226.944-63.040-232.32-65.728-10.56-5.248-17.216-16.128-17.216-27.904v-31.168c0-17.216 13.952-31.168 31.168-31.168h222.72c-2.752-6.528-4.352-13.504-4.352-20.8v-51.968c0-28.864 23.36-52.096 52.032-52.096h728c28.672 0 51.968 23.232 51.968 51.968v51.968c0 7.296-1.6 14.336-4.352 20.8h222.72c17.28 0 31.168 14.016 31.168 31.168v31.168c0.064 11.904-6.528 22.784-17.216 28.032zM249.536 440c68.8 0 124.736 55.936 124.736 124.736v62.464c0 68.8-55.936 124.8-124.736 124.8s-124.8-56-124.8-124.8v-62.464c0.064-68.8 56.064-124.736 124.8-124.736z" horiz-adv-x="1408" />
</font>
</defs>
</svg>
