<?xml version="1.0" encoding="utf-8"?>
<!-- Generator: Adobe Illustrator 16.0.0, SVG Export Plug-In . SVG Version: 6.00 Build 0)  -->
<!DOCTYPE svg PUBLIC "-//W3C//DTD SVG 1.1//EN" "http://www.w3.org/Graphics/SVG/1.1/DTD/svg11.dtd">
<svg version="1.1" id="Layer_1" xmlns="http://www.w3.org/2000/svg" xmlns:xlink="http://www.w3.org/1999/xlink" x="0px" y="0px"
	 width="80px" height="80px" viewBox="0 0 80 80" enable-background="new 0 0 80 80" xml:space="preserve">
<g>
	<path fill="#C0C0C0" d="M42.109,4.667c11.328,0,20.511,9.122,20.511,20.374s-9.183,20.375-20.511,20.375
		c-11.326,0-20.509-9.123-20.509-20.375S30.783,4.667,42.109,4.667z"/>
	<path fill="#C0C0C0" d="M42.395,21.688c9.168,0,16.599,7.382,16.599,16.49c0,9.106-7.433,16.488-16.599,16.488
		c-9.166,0-16.599-7.382-16.599-16.488C25.796,29.07,33.229,21.688,42.395,21.688z"/>
	<path fill="#C0C0C0" d="M60.969,23.447c7.852,0,14.213,6.323,14.213,14.121c0,7.797-6.363,14.118-14.213,14.118
		c-7.852,0-14.214-6.32-14.214-14.118C46.755,29.77,53.118,23.447,60.969,23.447z"/>
	<path fill="#C0C0C0" d="M21.399,21.538c8.956,0,16.216,7.213,16.216,16.11c0,8.898-7.261,16.109-16.216,16.109
		c-8.956,0-16.216-7.211-16.216-16.109S12.443,21.538,21.399,21.538z"/>
	<path fill="#C0C0C0" d="M24.385,11.431c6.137,0,11.112,4.942,11.112,11.041c0,6.095-4.975,11.039-11.112,11.039
		c-6.137,0-11.113-4.943-11.113-11.039C13.273,16.373,18.248,11.431,24.385,11.431z"/>
</g>
</svg>
