<?xml version="1.0" encoding="utf-8"?>
<!-- Generator: Adobe Illustrator 16.0.4, SVG Export Plug-In . SVG Version: 6.00 Build 0)  -->
<!DOCTYPE svg PUBLIC "-//W3C//DTD SVG 1.1//EN" "http://www.w3.org/Graphics/SVG/1.1/DTD/svg11.dtd">
<svg version="1.1" id="Layer_1" xmlns="http://www.w3.org/2000/svg" xmlns:xlink="http://www.w3.org/1999/xlink" x="0px" y="0px"
	 width="80px" height="80px" viewBox="0 0 80 80" enable-background="new 0 0 80 80" xml:space="preserve">
<g>
	<g>
		<path fill="#C0C0C0" d="M62.734,11.776C50.73-0.221,31.272-0.221,19.271,11.78C7.268,23.783,7.268,43.241,19.27,55.244
			c12,11.998,31.461,11.998,43.465,0C74.731,43.241,74.731,23.779,62.734,11.776z M55.381,47.892c-1.324,1.323-3.47,1.323-4.795,0
			L40.993,38.3l-9.592,9.592c-1.325,1.323-3.471,1.323-4.793,0c-1.325-1.331-1.328-3.47-0.003-4.794l9.595-9.594l-9.595-9.592
			c-1.325-1.326-1.325-3.471,0-4.792c1.325-1.326,3.474-1.326,4.796,0l9.589,9.588l9.59-9.588c1.325-1.326,3.471-1.326,4.795,0
			c1.324,1.321,1.327,3.47,0.003,4.792l-9.592,9.592l9.592,9.594C56.705,44.422,56.705,46.566,55.381,47.892z"/>
	</g>
</g>
</svg>
