<?xml version="1.0" encoding="iso-8859-1"?>
<!-- Generator: Adobe Illustrator 18.1.0, SVG Export Plug-In . SVG Version: 6.00 Build 0)  -->
<svg version="1.1" id="Isolation_Mode_1_" xmlns="http://www.w3.org/2000/svg" xmlns:xlink="http://www.w3.org/1999/xlink" x="0px"
	 y="0px" width="240px" height="160px" viewBox="0 0 240 160" style="enable-background:new 0 0 240 160;" xml:space="preserve">
<g id="Isolation_Mode">
	<g>
		<defs>
			<path id="SVGID_1_" d="M0,160V5c0-2.75,2.25-5,5-5h230c2.75,0,5,2.25,5,5v155"/>
		</defs>
		<clipPath id="SVGID_2_">
			<use xlink:href="#SVGID_1_"  style="overflow:visible;"/>
		</clipPath>
		<g style="clip-path:url(#SVGID_2_);">
			<rect style="fill:#CCCCCC;" width="240" height="160"/>
			<rect x="2" y="18" style="fill:#FFFFFF;" width="236" height="140"/>
			<g>
				<path style="fill:#CCCCCC;" d="M14,54.553c0-0.603,0.019-1.193,0.059-1.766c0.044-0.574,0.116-1.192,0.236-1.855
					c0.12-0.667,0.276-1.283,0.455-1.85c0.179-0.571,0.428-1.125,0.738-1.664c0.306-0.539,0.656-0.997,1.056-1.38
					c0.397-0.378,0.881-0.683,1.453-0.911c0.575-0.229,1.208-0.341,1.897-0.342c0.106,0,0.347,0.124,0.722,0.368
					c0.375,0.244,0.798,0.516,1.271,0.817c0.469,0.299,1.078,0.573,1.835,0.817c0.76,0.244,1.515,0.368,2.278,0.368
					s1.518-0.124,2.276-0.368c0.759-0.244,1.368-0.518,1.837-0.817c0.473-0.301,0.896-0.573,1.271-0.817
					c0.373-0.245,0.615-0.368,0.722-0.368c0.688,0,1.321,0.112,1.897,0.341c0.571,0.228,1.056,0.533,1.453,0.911
					c0.4,0.383,0.75,0.841,1.056,1.38c0.308,0.539,0.558,1.094,0.736,1.664c0.181,0.566,0.337,1.183,0.455,1.85
					c0.119,0.664,0.193,1.282,0.237,1.855C37.981,53.36,38,53.947,38,54.553c0,1.36-0.412,2.438-1.247,3.227
					c-0.829,0.793-1.928,1.186-3.308,1.186H18.555c-1.38,0-2.48-0.392-3.309-1.186C14.413,56.991,14.002,55.912,14,54.553L14,54.553
					z M19.45,39.331c0-1.805,0.642-3.351,1.922-4.63c1.279-1.276,2.818-1.915,4.625-1.915c1.808,0,3.349,0.639,4.631,1.916
					c1.276,1.279,1.918,2.825,1.918,4.63c0,1.805-0.642,3.35-1.918,4.628c-1.282,1.278-2.822,1.916-4.631,1.916
					c-1.808,0-3.346-0.638-4.626-1.916C20.092,42.682,19.45,41.136,19.45,39.331z"/>
				<circle style="fill:#FFFFFF;" cx="35.173" cy="56.712" r="8.5"/>
				<g>
					<g>
						<path style="fill:#CCCCCC;" d="M35.15,57.139l10.012-9.951c0.297-0.295,0.777-0.295,1.076,0l0.539,0.535
							c0.297,0.296,0.297,0.776,0,1.071l-10.012,9.95c-0.297,0.296-0.78,0.296-1.078,0l-0.537-0.536
							C34.854,57.911,34.854,57.433,35.15,57.139z"/>
						<path style="fill:#CCCCCC;" d="M31.224,53.234l0.538-0.535c0.297-0.295,0.779-0.295,1.076,0l4.467,4.44
							c0.298,0.294,0.298,0.772,0,1.069l-0.538,0.535c-0.297,0.296-0.78,0.296-1.078,0l-4.465-4.439
							C30.925,54.008,30.925,53.529,31.224,53.234z"/>
					</g>
					<g>
						<path style="fill:#CCCCCC;" d="M35.15,57.139l10.012-9.951c0.297-0.295,0.777-0.295,1.076,0l0.539,0.535
							c0.297,0.296,0.297,0.776,0,1.071l-10.012,9.95c-0.297,0.296-0.78,0.296-1.078,0l-0.537-0.536
							C34.854,57.911,34.854,57.433,35.15,57.139z"/>
						<path style="fill:#CCCCCC;" d="M31.224,53.234l0.538-0.535c0.297-0.295,0.779-0.295,1.076,0l4.467,4.44
							c0.298,0.294,0.298,0.772,0,1.069l-0.538,0.535c-0.297,0.296-0.78,0.296-1.078,0l-4.465-4.439
							C30.925,54.008,30.925,53.529,31.224,53.234z"/>
					</g>
				</g>
			</g>
			<g>
				<path style="fill:#CCCCCC;" d="M14,96.553c0-0.603,0.019-1.193,0.059-1.766c0.044-0.574,0.116-1.192,0.236-1.855
					c0.12-0.667,0.276-1.283,0.455-1.85c0.179-0.571,0.428-1.125,0.738-1.664c0.306-0.539,0.656-0.997,1.056-1.38
					c0.397-0.378,0.881-0.683,1.453-0.911c0.575-0.229,1.208-0.341,1.897-0.342c0.106,0,0.347,0.124,0.722,0.368
					c0.375,0.244,0.798,0.516,1.271,0.817c0.469,0.299,1.078,0.573,1.835,0.817c0.76,0.244,1.515,0.368,2.278,0.368
					s1.518-0.124,2.276-0.368c0.759-0.244,1.368-0.518,1.837-0.817c0.473-0.301,0.896-0.573,1.271-0.817
					c0.373-0.245,0.615-0.368,0.722-0.368c0.688,0,1.321,0.112,1.897,0.341c0.571,0.228,1.056,0.533,1.453,0.911
					c0.4,0.383,0.75,0.841,1.056,1.38c0.308,0.539,0.558,1.094,0.736,1.664c0.181,0.566,0.337,1.183,0.455,1.85
					c0.119,0.664,0.193,1.282,0.237,1.855C37.981,95.36,38,95.947,38,96.553c0,1.36-0.412,2.438-1.247,3.227
					c-0.829,0.793-1.928,1.186-3.308,1.186H18.555c-1.38,0-2.48-0.392-3.309-1.186C14.413,98.991,14.002,97.912,14,96.553L14,96.553
					z M19.45,81.331c0-1.805,0.642-3.351,1.922-4.63c1.279-1.276,2.818-1.915,4.625-1.915c1.808,0,3.349,0.639,4.631,1.916
					c1.276,1.279,1.918,2.825,1.918,4.63c0,1.805-0.642,3.35-1.918,4.628c-1.282,1.278-2.822,1.916-4.631,1.916
					c-1.808,0-3.346-0.638-4.626-1.916C20.092,84.682,19.45,83.136,19.45,81.331z"/>
				<circle style="fill:#FFFFFF;" cx="35.173" cy="98.712" r="8.5"/>
				<g>
					<g>
						<path style="fill:#CCCCCC;" d="M35.15,99.139l10.012-9.951c0.297-0.295,0.777-0.295,1.076,0l0.539,0.535
							c0.297,0.296,0.297,0.776,0,1.071l-10.012,9.95c-0.297,0.296-0.78,0.296-1.078,0l-0.537-0.536
							C34.854,99.911,34.854,99.433,35.15,99.139z"/>
						<path style="fill:#CCCCCC;" d="M31.224,95.234l0.538-0.535c0.297-0.295,0.779-0.295,1.076,0l4.467,4.44
							c0.298,0.294,0.298,0.772,0,1.069l-0.538,0.535c-0.297,0.296-0.78,0.296-1.078,0l-4.465-4.439
							C30.925,96.008,30.925,95.529,31.224,95.234z"/>
					</g>
					<g>
						<path style="fill:#CCCCCC;" d="M35.15,99.139l10.012-9.951c0.297-0.295,0.777-0.295,1.076,0l0.539,0.535
							c0.297,0.296,0.297,0.776,0,1.071l-10.012,9.95c-0.297,0.296-0.78,0.296-1.078,0l-0.537-0.536
							C34.854,99.911,34.854,99.433,35.15,99.139z"/>
						<path style="fill:#CCCCCC;" d="M31.224,95.234l0.538-0.535c0.297-0.295,0.779-0.295,1.076,0l4.467,4.44
							c0.298,0.294,0.298,0.772,0,1.069l-0.538,0.535c-0.297,0.296-0.78,0.296-1.078,0l-4.465-4.439
							C30.925,96.008,30.925,95.529,31.224,95.234z"/>
					</g>
				</g>
			</g>
			<g>
				<path style="fill:#CCCCCC;" d="M14,138.553c0-0.603,0.019-1.193,0.059-1.766c0.044-0.574,0.116-1.192,0.236-1.855
					c0.12-0.667,0.276-1.283,0.455-1.85c0.179-0.571,0.428-1.125,0.738-1.664c0.306-0.539,0.656-0.997,1.056-1.38
					c0.397-0.378,0.881-0.683,1.453-0.911c0.575-0.229,1.208-0.341,1.897-0.342c0.106,0,0.347,0.124,0.722,0.368
					c0.375,0.244,0.798,0.516,1.271,0.817c0.469,0.299,1.078,0.573,1.835,0.817c0.76,0.244,1.515,0.368,2.278,0.368
					s1.518-0.124,2.276-0.368c0.759-0.244,1.368-0.518,1.837-0.817c0.473-0.301,0.896-0.573,1.271-0.817
					c0.373-0.245,0.615-0.368,0.722-0.368c0.688,0,1.321,0.112,1.897,0.341c0.571,0.228,1.056,0.533,1.453,0.911
					c0.4,0.383,0.75,0.841,1.056,1.38c0.308,0.539,0.558,1.094,0.736,1.664c0.181,0.566,0.337,1.183,0.455,1.85
					c0.119,0.664,0.193,1.282,0.237,1.855c0.038,0.574,0.057,1.161,0.057,1.767c0,1.36-0.412,2.438-1.247,3.227
					c-0.829,0.793-1.928,1.186-3.308,1.186H18.555c-1.38,0-2.48-0.392-3.309-1.186C14.413,140.991,14.002,139.912,14,138.553
					L14,138.553z M19.45,123.331c0-1.805,0.642-3.351,1.922-4.63c1.279-1.276,2.818-1.915,4.625-1.915
					c1.808,0,3.349,0.639,4.631,1.916c1.276,1.279,1.918,2.825,1.918,4.63c0,1.805-0.642,3.35-1.918,4.628
					c-1.282,1.278-2.822,1.916-4.631,1.916c-1.808,0-3.346-0.638-4.626-1.916C20.092,126.682,19.45,125.136,19.45,123.331z"/>
				<circle style="fill:#FFFFFF;" cx="35.173" cy="140.712" r="8.5"/>
				<g>
					<g>
						<path style="fill:#CCCCCC;" d="M35.15,141.139l10.012-9.951c0.297-0.295,0.777-0.295,1.076,0l0.539,0.535
							c0.297,0.296,0.297,0.776,0,1.071l-10.012,9.95c-0.297,0.296-0.78,0.296-1.078,0l-0.537-0.536
							C34.854,141.911,34.854,141.433,35.15,141.139z"/>
						<path style="fill:#CCCCCC;" d="M31.224,137.234l0.538-0.535c0.297-0.295,0.779-0.295,1.076,0l4.467,4.44
							c0.298,0.294,0.298,0.772,0,1.069l-0.538,0.535c-0.297,0.296-0.78,0.296-1.078,0l-4.465-4.439
							C30.925,138.008,30.925,137.529,31.224,137.234z"/>
					</g>
					<g>
						<path style="fill:#CCCCCC;" d="M35.15,141.139l10.012-9.951c0.297-0.295,0.777-0.295,1.076,0l0.539,0.535
							c0.297,0.296,0.297,0.776,0,1.071l-10.012,9.95c-0.297,0.296-0.78,0.296-1.078,0l-0.537-0.536
							C34.854,141.911,34.854,141.433,35.15,141.139z"/>
						<path style="fill:#CCCCCC;" d="M31.224,137.234l0.538-0.535c0.297-0.295,0.779-0.295,1.076,0l4.467,4.44
							c0.298,0.294,0.298,0.772,0,1.069l-0.538,0.535c-0.297,0.296-0.78,0.296-1.078,0l-4.465-4.439
							C30.925,138.008,30.925,137.529,31.224,137.234z"/>
					</g>
				</g>
			</g>
			<g>
				<rect x="70" y="42.999" style="fill:#CCCCCC;" width="140" height="8"/>
			</g>
			<g>
				<rect x="70" y="85.999" style="fill:#CCCCCC;" width="125" height="8"/>
			</g>
			<g>
				<rect x="70" y="128.999" style="fill:#CCCCCC;" width="140" height="8"/>
			</g>
		</g>
	</g>
</g>
</svg>
