<?xml version="1.0" encoding="iso-8859-1"?>
<!-- Generator: Adobe Illustrator 18.1.0, SVG Export Plug-In . SVG Version: 6.00 Build 0)  -->
<svg version="1.1" id="Layer_1" xmlns="http://www.w3.org/2000/svg" xmlns:xlink="http://www.w3.org/1999/xlink" x="0px" y="0px"
	 width="148px" height="74px" viewBox="0 0 148 74" style="enable-background:new 0 0 148 74;" xml:space="preserve">
<g>
	<g>
		<path style="fill:#7FBBDB;" d="M5.805,3.484c0,0,0.347,0.01,0.752,0.142c0.408,0.116,0.882,0.363,1.186,0.86
			c0.673,1.003,1.66,2.474,2.916,4.346c0.628,0.944,1.339,1.98,2.067,3.135c0.167,0.259,0.337,0.523,0.511,0.792
			c0.205,0.29,0.414,0.585,0.627,0.886c0.426,0.602,0.867,1.225,1.323,1.87c0.451,0.648,0.916,1.316,1.395,2.005
			c0.486,0.676,0.985,1.37,1.498,2.084c0.509,0.713,1.024,1.424,1.568,2.109l0.388,0.47l0.478,0.524
			c0.32,0.351,0.644,0.707,0.971,1.066c0.654,0.718,1.322,1.451,2.002,2.198l0.445,0.488l0.536,0.55
			c0.36,0.367,0.724,0.738,1.09,1.112c0.734,0.747,1.48,1.507,2.237,2.278l0.142,0.145l0.071,0.072l0.036,0.036
			c0.027,0.028-0.113-0.109-0.036-0.035l0.304,0.271l0.612,0.546c0.41,0.365,0.822,0.733,1.238,1.103s0.834,0.743,1.255,1.118
			l0.634,0.565l0.318,0.284c-0.02-0.017,0.102,0.089-0.036-0.03l0.042,0.033l0.084,0.066l0.169,0.132
			c0.901,0.703,1.812,1.414,2.734,2.133c0.461,0.359,0.924,0.721,1.39,1.084l0.175,0.136l0.044,0.034
			c0.084,0.066-0.066-0.052-0.034-0.028l0.09,0.065l0.359,0.262l0.722,0.525c0.965,0.702,1.938,1.41,2.92,2.124
			c1.791,1.256,4.118,2.73,6.036,3.924c2.154,1.268,4.334,2.552,6.532,3.846c1.097,0.646,2.151,1.263,3.209,1.781
			c1.05,0.515,2.202,0.991,3.402,1.497c1.201,0.498,2.49,1.09,3.645,1.661c1.171,0.572,2.285,1.118,3.375,1.558l3.579,1.379
			l1.81,0.698l1.747,0.573c1.225,0.404,2.448,0.807,3.668,1.208c1.197,0.365,2.39,0.728,3.579,1.09l1.826,0.555l0.228,0.069
			l0.114,0.035c0.102,0.029-0.075-0.02-0.035-0.01l0.058,0.014l0.461,0.115l0.919,0.236c1.224,0.314,2.441,0.627,3.651,0.937
			c2.371,0.564,4.714,1.12,7.018,1.668c1.183,0.277,2.356,0.553,3.518,0.825l0.867,0.215l0.432,0.107l0.108,0.027
			c0.036,0.008-0.121-0.019-0.029-0.003l0.055,0.01l0.218,0.04c0.581,0.107,1.159,0.214,1.734,0.32
			c2.287,0.439,4.56,0.826,6.755,1.298c1.084,0.158,2.104,0.437,3.083,0.541c1.074,0.128,2.132,0.253,3.173,0.377
			c0.52,0.062,1.036,0.123,1.547,0.184l0.763,0.091l0.701,0.063c1.007,0.086,1.996,0.171,2.964,0.254
			c0.947,0.073,1.964,0.188,2.796,0.221c0.929,0.047,1.836,0.093,2.721,0.138c0.871,0.045,1.72,0.088,2.546,0.131
			c0.839,0.035,1.655,0.069,2.445,0.102c0.79,0.033,1.555,0.065,2.293,0.095c0.369,0.015,0.732,0.03,1.087,0.045
			c0.297,0.004,0.688-0.016,1.016-0.022c1.366-0.038,2.621-0.073,3.754-0.104c2.228-0.057,4.038-0.168,5.244-0.212
			c1.215-0.054,1.863-0.083,1.863-0.083l0.043,0.434c0,0-0.642,0.091-1.845,0.262c-1.213,0.163-2.945,0.44-5.237,0.722
			c-1.127,0.141-2.374,0.297-3.732,0.467c-0.353,0.04-0.656,0.091-1.069,0.125c-0.355,0.02-0.716,0.04-1.085,0.06
			c-0.736,0.041-1.499,0.083-2.288,0.126c-0.788,0.044-1.602,0.089-2.439,0.135c-0.852,0.039-1.728,0.079-2.627,0.12
			c-0.886,0.041-1.794,0.083-2.725,0.126c-1.027,0.051-1.91,0.032-2.905,0.052c-0.973,0.011-1.966,0.022-2.978,0.033l-0.821,0.003
			l-0.77-0.017c-0.515-0.011-1.035-0.022-1.56-0.034c-1.049-0.023-2.115-0.046-3.199-0.069c-1.179-0.049-2.328-0.136-3.439-0.339
			c-2.189-0.307-4.451-0.523-6.783-0.797c-0.581-0.067-1.165-0.134-1.752-0.201l-0.22-0.025l-0.055-0.006l-0.138-0.022l-0.109-0.019
			l-0.438-0.078l-0.878-0.156c-1.171-0.223-2.354-0.449-3.546-0.677c-2.594-0.537-4.745-1.023-7.401-1.631
			c-1.215-0.293-2.437-0.589-3.665-0.885l-0.922-0.223l-0.461-0.115l-0.32-0.094l-0.227-0.071l-1.82-0.573
			c-1.246-0.394-2.497-0.791-3.752-1.188c-1.215-0.414-2.434-0.829-3.655-1.245l-0.916-0.312l-0.458-0.157l-0.229-0.08l-0.114-0.04
			l-0.205-0.08l-1.792-0.743l-3.634-1.506c-1.298-0.564-2.495-1.194-3.635-1.784c-1.152-0.604-2.2-1.117-3.37-1.638
			c-1.164-0.526-2.384-1.059-3.62-1.713c-1.23-0.649-2.365-1.363-3.446-2.042c-2.158-1.357-4.3-2.704-6.415-4.034l-0.396-0.25
			l-0.279-0.18l-0.193-0.132l-0.77-0.527c-0.512-0.351-1.023-0.7-1.532-1.048c-0.511-0.345-1.02-0.689-1.527-1.032l-0.759-0.512
			l-0.811-0.602c-0.97-0.73-1.933-1.453-2.886-2.17l-0.713-0.536l-0.355-0.267l-0.426-0.336c-0.46-0.371-0.917-0.739-1.372-1.106
			c-0.91-0.733-1.809-1.459-2.698-2.176l-0.167-0.134l-0.083-0.067l-0.156-0.135l-0.314-0.289l-0.624-0.575
			c-0.415-0.382-0.827-0.761-1.236-1.138c-0.409-0.377-0.816-0.751-1.22-1.123l-0.603-0.555l-0.3-0.276l-0.144-0.142l-0.07-0.074
			l-0.14-0.147c-0.745-0.784-1.479-1.556-2.201-2.315c-0.361-0.379-0.719-0.755-1.074-1.128l-0.532-0.555l-0.577-0.641
			c-0.674-0.753-1.335-1.492-1.983-2.215c-0.324-0.362-0.644-0.72-0.962-1.074l-0.473-0.528c-0.223-0.26-0.335-0.406-0.501-0.614
			c-0.613-0.77-1.165-1.529-1.687-2.256c-0.522-0.723-1.031-1.428-1.526-2.112c-0.473-0.692-0.933-1.365-1.378-2.016
			c-0.44-0.655-0.866-1.289-1.277-1.902c-0.206-0.306-0.407-0.607-0.606-0.902c-0.205-0.332-0.405-0.658-0.602-0.977
			c-0.719-1.161-1.337-2.254-1.91-3.232c-0.143-0.245-0.281-0.483-0.416-0.715C7.295,9.762,7.22,9.634,7.147,9.508
			c-0.058-0.111-0.115-0.22-0.172-0.327C6.739,8.747,6.517,8.341,6.311,7.962c-0.431-0.783-0.797-1.45-1.094-1.99
			c-0.31-0.55-0.287-1.118-0.17-1.557c0.058-0.218,0.141-0.386,0.202-0.51c0.074-0.128,0.112-0.193,0.112-0.193L5.805,3.484z"/>
	</g>
	<g>
		<path style="fill:#7FBBDB;" d="M4.27,11.936c0.767-3.138,2.004-6.038,2.719-9.134C6.487,2.991,5.985,3.181,5.483,3.37
			C6.93,3.671,4.25,2.515,5.033,3.248c0.361,0.338,0.843,0.5,1.277,0.709c0.881,0.424,1.688,0.69,2.658,0.807
			C8.277,4.425,7.586,4.086,6.895,3.747c1.09,0.937,2.031,1.444,3.451,1.635c-0.693-0.34-1.386-0.68-2.079-1.02
			c0.965,0.989,2.015,1.551,3.317,1.961c0.174,0.055,0.368,0.17,0.549,0.179c0.647,0.032-1.106-0.703-0.256-0.143
			c0.601,0.396,1.246,0.755,1.93,0.97c1.386,0.437,2.991-0.701,1.523-1.993c-1.092-0.96-2.369-1.517-3.72-1.963
			c-0.786-0.26,0.344-0.109-0.473-0.173c0.638,0.05,0.913,0.607,0.213,0.032c-0.909-0.745-1.726-0.975-2.857-1.12
			c0.692,0.339,1.384,0.679,2.076,1.018C9.905,2.567,9.29,1.983,8.444,1.719c-0.259-0.081-0.662-0.192-0.938-0.16
			c-0.353,0.04,0.953,0.702,0.136,0.005C7.097,1.1,7.357,1.373,6.781,1.028C6.026,0.576,5.261,0.403,4.418,0.233
			C4.015,0.151,3.035,0.248,2.911,0.801c-0.727,3.267-1.59,6.432-2.18,9.741C0.494,11.869,3.936,13.302,4.27,11.936L4.27,11.936z"/>
	</g>
</g>
</svg>
