<?xml version="1.0" encoding="utf-8"?>
<!-- Generator: Adobe Illustrator 16.0.0, SVG Export Plug-In . SVG Version: 6.00 Build 0)  -->
<!DOCTYPE svg PUBLIC "-//W3C//DTD SVG 1.1//EN" "http://www.w3.org/Graphics/SVG/1.1/DTD/svg11.dtd">
<svg version="1.1" id="Layer_1" xmlns="http://www.w3.org/2000/svg" xmlns:xlink="http://www.w3.org/1999/xlink" x="0px" y="0px"
	 width="180px" height="65px" viewBox="0 0 180 65" enable-background="new 0 0 180 65" xml:space="preserve">
<g>
	<polyline fill="none" stroke="#DFDFDF" stroke-miterlimit="10" points="12.078,13.01 12.078,21.207 24.409,25.657 28.227,14.17 
		39.291,19.811 51.512,25.657 51.512,14.295 61.554,25.657 73.615,19.811 79.876,8.934 85.683,25.571 93.123,14.092 99.092,20.086 
		110.536,24.218 110.615,15.795 123.237,20.086 135.007,14.274 141.391,20.086 153.34,33.681 153.246,14.274 158.875,20.045 
		170.316,24.179 170.396,15.754 	"/>
	<path fill="#DFDFDF" d="M5.437,33.681h6.583c3.609,0,5.284,0.347,6.842,2.078c0.954,0.98,1.271,2.28,1.271,3.522
		c0,1.646-0.75,3.32-2.483,4.3c3.436,1.215,3.522,4.075,3.522,4.969c0,1.703-0.665,3.581-1.964,4.649
		c-1.962,1.645-3.377,1.847-6.986,1.847H5.437V33.681z M10.662,41.793h1.935c0.75,0,2.311,0,2.311-1.702
		c0-1.619-1.474-1.619-2.311-1.619h-1.935V41.793z M10.662,50.253h2.57c0.693,0,2.714,0,2.714-2.048
		c0-1.849-1.849-1.849-2.714-1.849h-2.57V50.253z M21.972,39.022h4.505v1.701h0.058c0.404-0.778,1.242-2.252,4.013-2.252v4.823
		c-2.224,0.058-3.782,0.519-3.782,2.944v8.807h-4.794V39.022z M48.083,55.046H43.29v-1.731h-0.058c-0.809,1.559-2.8,2.28-4.677,2.28
		c-5.083,0-8.057-3.985-8.057-8.575c0-5.255,3.783-8.548,8.057-8.548c2.627,0,4.1,1.271,4.677,2.252h0.058v-1.701h4.793V55.046z
		 M39.276,51.119c3.004,0,4.013-2.54,4.013-4.1c0-1.934-1.328-4.071-4.042-4.071c-2.743,0-3.956,2.311-3.956,4.129
		C35.292,48.579,36.389,51.119,39.276,51.119z M49.19,39.022h4.475v1.701h0.058c0.491-0.778,1.5-2.252,4.359-2.252
		c1.53,0,3.234,0.635,4.101,1.388c0.866,0.75,1.848,2.021,1.848,5.168v10.019h-4.793V46.3c0-1.129,0-3.324-2.511-3.324
		c-2.743,0-2.743,2.368-2.743,3.352v8.719H49.19V39.022z M82.334,55.046h-4.562v-1.731h-0.058c-0.404,0.663-1.559,2.252-4.793,2.252
		c-4.851,0-8.026-3.753-8.026-8.575c0-5.429,3.869-8.52,7.94-8.52c2.829,0,4.186,1.388,4.706,1.907v-6.698h4.793V55.046z
		 M73.701,51.09c3.003,0,4.101-2.453,4.101-4.128c0-1.935-1.387-4.014-4.042-4.014c-2.773,0-4.072,2.164-4.072,4.014
		C69.687,49.445,71.449,51.09,73.701,51.09z M91.001,43.524c-0.029-0.347-0.086-1.213-1.5-1.213c-1.011,0-1.357,0.637-1.357,1.07
		c0,0.864,1.184,1.356,2.454,1.73c2.713,0.754,5.601,1.562,5.601,5.025c0,3.379-2.973,5.457-6.526,5.457
		c-2.424,0-6.091-1.097-6.525-5.312h4.766c0.202,1.473,1.617,1.473,1.818,1.473c0.809,0,1.674-0.461,1.674-1.241
		c0-1.24-1.184-1.386-4.244-2.569c-2.079-0.665-3.812-2.021-3.812-4.188c0-3.177,2.889-5.284,6.208-5.284
		c2.107,0,5.745,0.837,6.15,5.053H91.001z M123.237,38.501c5.835,0,8.634,4.591,8.634,8.519s-2.799,8.518-8.634,8.518
		c-5.831,0-8.632-4.59-8.632-8.518S117.406,38.501,123.237,38.501z M123.237,51.062c2.08,0,3.842-1.705,3.842-4.043
		c0-2.341-1.762-4.044-3.842-4.044c-2.078,0-3.839,1.703-3.839,4.044C119.398,49.357,121.159,51.062,123.237,51.062z
		 M132.687,39.022h4.504v1.76h0.028h0.059c0.953-1.213,2.54-2.311,4.995-2.311c5.688,0,7.825,4.996,7.825,8.722
		c0,4.62-3.235,8.401-7.796,8.401c-2.888,0-4.244-1.385-4.822-1.992v6.784h-4.792V39.022z M145.304,47.049
		c0-1.907-1.386-4.101-4.013-4.101c-2.628,0-4.014,2.193-4.014,4.101c0,2.022,1.501,4.07,4.014,4.07
		C143.802,51.119,145.304,49.071,145.304,47.049z M155.718,55.046h-4.793V39.022h4.793V55.046z M113.75,48.954
		c-0.866,3.638-4.071,6.612-8.402,6.612c-4.852,0-8.576-3.812-8.576-8.575c0-4.707,3.666-8.52,8.459-8.52
		c4.246,0,7.682,2.803,8.489,6.729h-4.851c-0.52-1.098-1.471-2.252-3.464-2.252c-2.281-0.116-3.812,1.761-3.812,4.071
		c0,2.338,1.531,4.07,3.812,4.07c1.993,0,2.944-1.154,3.464-2.136H113.75z M173.532,48.954c-0.868,3.638-4.073,6.612-8.404,6.612
		c-4.85,0-8.574-3.812-8.574-8.575c0-4.707,3.666-8.52,8.458-8.52c4.245,0,7.681,2.803,8.488,6.729h-4.851
		c-0.519-1.098-1.472-2.252-3.464-2.252c-2.281-0.116-3.812,1.761-3.812,4.071c0,2.338,1.531,4.07,3.812,4.07
		c1.992,0,2.945-1.154,3.464-2.136H173.532z"/>
	<path fill="#DFDFDF" d="M14.399,13.011c0,1.282-1.041,2.32-2.322,2.32s-2.321-1.038-2.321-2.32s1.04-2.32,2.321-2.32
		S14.399,11.729,14.399,13.011z M12.078,18.887c-1.281,0-2.321,1.039-2.321,2.321c0,1.281,1.04,2.319,2.321,2.319
		s2.322-1.038,2.322-2.319C14.399,19.926,13.359,18.887,12.078,18.887z M24.409,23.337c-1.282,0-2.32,1.039-2.32,2.32
		c0,1.282,1.038,2.321,2.32,2.321c1.283,0,2.322-1.039,2.322-2.321C26.731,24.376,25.692,23.337,24.409,23.337z M28.227,11.85
		c-1.281,0-2.319,1.038-2.319,2.32c0,1.281,1.038,2.321,2.319,2.321c1.283,0,2.322-1.04,2.322-2.321
		C30.548,12.888,29.509,11.85,28.227,11.85z M39.292,17.49c-1.282,0-2.323,1.039-2.323,2.32s1.041,2.321,2.323,2.321
		c1.281,0,2.32-1.04,2.32-2.321S40.573,17.49,39.292,17.49z M51.51,23.337c-1.281,0-2.319,1.04-2.319,2.321
		c0,1.282,1.039,2.32,2.319,2.32c1.283,0,2.322-1.038,2.322-2.32C53.832,24.377,52.792,23.337,51.51,23.337z M51.51,11.975
		c-1.281,0-2.319,1.04-2.319,2.32c0,1.283,1.039,2.322,2.319,2.322c1.283,0,2.322-1.039,2.322-2.322
		C53.832,13.015,52.792,11.975,51.51,11.975z M61.554,23.337c-1.281,0-2.322,1.04-2.322,2.321c0,1.282,1.042,2.32,2.322,2.32
		c1.281,0,2.32-1.038,2.32-2.32C63.874,24.377,62.835,23.337,61.554,23.337z M73.614,17.49c-1.282,0-2.321,1.039-2.321,2.32
		s1.039,2.321,2.321,2.321c1.283,0,2.322-1.04,2.322-2.321S74.896,17.49,73.614,17.49z M79.875,6.613
		c-1.282,0-2.319,1.039-2.319,2.32s1.038,2.32,2.319,2.32s2.322-1.039,2.322-2.32S81.157,6.613,79.875,6.613z M93.123,11.771
		c-1.283,0-2.32,1.039-2.32,2.32s1.037,2.321,2.32,2.321c1.28,0,2.32-1.04,2.32-2.321S94.403,11.771,93.123,11.771z M85.683,23.251
		c-1.283,0-2.323,1.039-2.323,2.321c0,1.281,1.04,2.321,2.323,2.321c1.281,0,2.32-1.04,2.32-2.321
		C88.003,24.29,86.964,23.251,85.683,23.251z M123.237,17.765c-1.281,0-2.32,1.039-2.32,2.321c0,1.281,1.039,2.32,2.32,2.32
		c1.282,0,2.324-1.039,2.324-2.32C125.561,18.804,124.519,17.765,123.237,17.765z M141.391,17.765c-1.282,0-2.32,1.039-2.32,2.321
		c0,1.281,1.039,2.32,2.32,2.32c1.281,0,2.323-1.039,2.323-2.32C143.713,18.804,142.672,17.765,141.391,17.765z M135.007,11.954
		c-1.281,0-2.321,1.038-2.321,2.321c0,1.281,1.04,2.321,2.321,2.321c1.282,0,2.32-1.04,2.32-2.321
		C137.328,12.992,136.289,11.954,135.007,11.954z M153.34,31.358c-1.281,0-2.32,1.04-2.32,2.322c0,1.281,1.039,2.32,2.32,2.32
		c1.282,0,2.322-1.039,2.322-2.32C155.662,32.398,154.622,31.358,153.34,31.358z M153.246,11.954c-1.282,0-2.321,1.038-2.321,2.32
		s1.04,2.322,2.321,2.322c1.28,0,2.32-1.04,2.32-2.322S154.526,11.954,153.246,11.954z M110.615,13.473
		c-1.282,0-2.32,1.039-2.32,2.322c0,1.281,1.039,2.32,2.32,2.32c1.281,0,2.321-1.039,2.321-2.32
		C112.936,14.512,111.896,13.473,110.615,13.473z M99.092,17.764c-1.282,0-2.32,1.04-2.32,2.322c0,1.281,1.039,2.32,2.32,2.32
		c1.282,0,2.323-1.039,2.323-2.32C101.415,18.804,100.375,17.764,99.092,17.764z M110.536,21.897c-1.281,0-2.32,1.039-2.32,2.32
		c0,1.283,1.039,2.322,2.32,2.322c1.282,0,2.322-1.039,2.322-2.322C112.857,22.937,111.817,21.897,110.536,21.897z M170.396,13.434
		c-1.282,0-2.32,1.039-2.32,2.322c0,1.281,1.038,2.319,2.32,2.319s2.321-1.038,2.321-2.319
		C172.716,14.473,171.678,13.434,170.396,13.434z M158.875,17.725c-1.282,0-2.32,1.039-2.32,2.32c0,1.282,1.039,2.321,2.32,2.321
		c1.281,0,2.321-1.039,2.321-2.321C161.195,18.764,160.156,17.725,158.875,17.725z M170.316,21.857
		c-1.281,0-2.321,1.039-2.321,2.321s1.04,2.32,2.321,2.32c1.282,0,2.322-1.038,2.322-2.32S171.598,21.857,170.316,21.857z"/>
</g>
</svg>
