<?xml version="1.0" encoding="utf-8"?>
<!-- Generator: Adobe Illustrator 16.0.0, SVG Export Plug-In . SVG Version: 6.00 Build 0)  -->
<!DOCTYPE svg PUBLIC "-//W3C//DTD SVG 1.1//EN" "http://www.w3.org/Graphics/SVG/1.1/DTD/svg11.dtd">
<svg version="1.1" id="Layer_1" xmlns="http://www.w3.org/2000/svg" xmlns:xlink="http://www.w3.org/1999/xlink" x="0px" y="0px"
	 width="24px" height="24px" viewBox="0 0 24 24" enable-background="new 0 0 24 24" xml:space="preserve">
<path fill="#C0C0C0" d="M11,10.5c-0.552,0-1,0.447-1,1s0.448,1,1,1s1-0.447,1-1S11.551,10.5,11,10.5z M14,13.5c-0.553,0-1,0.447-1,1
	s0.447,1,1,1c0.551,0,1-0.447,1-1S14.551,13.5,14,13.5z M11,13.5c-0.552,0-1,0.447-1,1s0.448,1,1,1s1-0.447,1-1S11.551,13.5,11,13.5
	z M20,5.501h-2C18,4.948,17.553,4.5,17,4.5s-1,0.448-1,1.001h-4C12,4.948,11.551,4.5,11,4.5s-1,0.448-1,1.001H8
	c-1.104,0-2,0.895-2,1.999v10c0,1.105,0.896,2,2,2h12c1.104,0,2-0.895,2-2v-10C22,6.396,21.104,5.501,20,5.501z M20,17.5H8v-10h2
	c0,0.553,0.448,1,1,1s1-0.447,1-1h4c0,0.553,0.447,1,1,1s1-0.447,1-1h2V17.5z M17,10.5c-0.553,0-1,0.447-1,1s0.447,1,1,1
	s1-0.447,1-1S17.553,10.5,17,10.5z M14,10.5c-0.553,0-1,0.447-1,1s0.447,1,1,1c0.551,0,1-0.447,1-1S14.551,10.5,14,10.5z M17,13.5
	c-0.553,0-1,0.447-1,1s0.447,1,1,1s1-0.447,1-1S17.553,13.5,17,13.5z"/>
</svg>
