<?xml version="1.0" encoding="utf-8"?>
<!-- Generator: Adobe Illustrator 16.0.0, SVG Export Plug-In . SVG Version: 6.00 Build 0)  -->
<!DOCTYPE svg PUBLIC "-//W3C//DTD SVG 1.1//EN" "http://www.w3.org/Graphics/SVG/1.1/DTD/svg11.dtd">
<svg version="1.1" id="Layer_1" xmlns="http://www.w3.org/2000/svg" xmlns:xlink="http://www.w3.org/1999/xlink" x="0px" y="0px"
	 width="40px" height="40px" viewBox="-12 -12 40 40" enable-background="new -12 -12 40 40" xml:space="preserve">
<g>
	<g>
		<path d="M8,26.5c-10.201,0-18.5-8.299-18.5-18.5S-2.201-10.5,8-10.5S26.5-2.201,26.5,8S18.201,26.5,8,26.5z"/>
		<path fill="#FFFFFF" d="M8-9c9.374,0,17,7.626,17,17S17.374,25,8,25S-9,17.374-9,8S-1.374-9,8-9 M8-12C-3.046-12-12-3.046-12,8
			s8.954,20,20,20s20-8.954,20-20S19.046-12,8-12L8-12z"/>
	</g>
	<path fill="#FFFFFF" d="M9.5-2l3,3.001L5.498,8l7.002,6.999L9.5,18l-10-10L9.5-2z"/>
</g>
</svg>
