<?xml version="1.0" encoding="utf-8"?>
<!-- Generator: Adobe Illustrator 16.0.0, SVG Export Plug-In . SVG Version: 6.00 Build 0)  -->
<!DOCTYPE svg PUBLIC "-//W3C//DTD SVG 1.1//EN" "http://www.w3.org/Graphics/SVG/1.1/DTD/svg11.dtd">
<svg version="1.1" id="Layer_1" xmlns="http://www.w3.org/2000/svg" xmlns:xlink="http://www.w3.org/1999/xlink" x="0px" y="0px"
	 width="24px" height="24px" viewBox="-4 -4 24 24" enable-background="new -4 -4 24 24" xml:space="preserve">
<g>
	<g>
		<path d="M8,18.5C2.21,18.5-2.5,13.79-2.5,8C-2.5,2.21,2.21-2.5,8-2.5c5.79,0,10.5,4.71,10.5,10.5C18.5,13.79,13.79,18.5,8,18.5z"
			/>
		<path fill="#FFFFFF" d="M8-1c4.963,0,9,4.038,9,9c0,4.963-4.037,9-9,9c-4.962,0-9-4.037-9-9C-1,3.038,3.038-1,8-1 M8-4
			C1.372-4-4,1.373-4,8S1.372,20,8,20s12-5.373,12-12S14.628-4,8-4L8-4z"/>
	</g>
	<path fill="#FFFFFF" d="M12.888,4.199c0.149,0.149,0.149,0.395,0,0.543L9.9,7.729c-0.148,0.149-0.148,0.395,0,0.545l2.986,2.986
		c0.149,0.15,0.149,0.395,0,0.543l-1.088,1.086c-0.147,0.148-0.394,0.148-0.543,0L8.271,9.9c-0.148-0.148-0.393-0.148-0.543,0
		L4.74,12.886c-0.148,0.149-0.394,0.149-0.543,0l-1.086-1.087c-0.148-0.148-0.148-0.393,0-0.543L6.1,8.271
		c0.148-0.15,0.148-0.395,0-0.545L3.114,4.74c-0.149-0.15-0.149-0.395,0-0.543L4.2,3.111c0.149-0.148,0.395-0.148,0.543,0
		l2.984,2.987C7.878,6.248,8.122,6.248,8.271,6.1l2.987-2.986c0.15-0.148,0.395-0.148,0.543,0L12.888,4.199z"/>
</g>
</svg>
