<?xml version="1.0" encoding="utf-8"?>
<!-- Generator: Adobe Illustrator 16.0.0, SVG Export Plug-In . SVG Version: 6.00 Build 0)  -->
<!DOCTYPE svg PUBLIC "-//W3C//DTD SVG 1.1//EN" "http://www.w3.org/Graphics/SVG/1.1/DTD/svg11.dtd">
<svg version="1.1" id="Layer_1" xmlns="http://www.w3.org/2000/svg" xmlns:xlink="http://www.w3.org/1999/xlink" x="0px" y="0px"
	 width="16px" height="16px" viewBox="0 0 16 16" enable-background="new 0 0 16 16" xml:space="preserve">
<g>
	<path d="M8,1.8c1.655,0,3.213,0.645,4.384,1.815C13.555,4.787,14.2,6.344,14.2,8c0,1.655-0.646,3.213-1.816,4.384
		S9.655,14.2,8,14.2s-3.213-0.646-4.384-1.816S1.8,9.655,1.8,8c0-1.656,0.646-3.213,1.816-4.385C4.787,2.444,6.345,1.8,8,1.8 M8,0
		C3.582,0,0,3.582,0,8s3.582,8,8,8s8-3.582,8-8S12.418,0,8,0L8,0z M11.1,10.657c0.307,0,0.606-0.161,0.77-0.446
		c0.243-0.424,0.095-0.967-0.33-1.208L8.886,7.485V3.57C8.886,3.082,8.49,2.686,8,2.686S7.114,3.082,7.114,3.57V8
		c0,0.317,0.171,0.611,0.446,0.77l3.101,1.771C10.8,10.619,10.949,10.657,11.1,10.657L11.1,10.657z"/>
</g>
</svg>
