<?xml version="1.0" encoding="utf-8"?>
<!-- Generator: Adobe Illustrator 16.0.4, SVG Export Plug-In . SVG Version: 6.00 Build 0)  -->
<!DOCTYPE svg PUBLIC "-//W3C//DTD SVG 1.1//EN" "http://www.w3.org/Graphics/SVG/1.1/DTD/svg11.dtd">
<svg version="1.1" id="Layer_1" xmlns="http://www.w3.org/2000/svg" xmlns:xlink="http://www.w3.org/1999/xlink" x="0px" y="0px"
	 width="349px" height="285px" viewBox="0 0 349 285" enable-background="new 0 0 349 285" xml:space="preserve">
<path fill="#FFFFFF" d="M340,270.917c0,3.912-3.171,7.083-7.083,7.083H7.083C3.171,278,0,274.829,0,270.917v-255
	c0-3.913,3.171-7.084,7.083-7.084h325.833c3.912,0,7.083,3.171,7.083,7.084V270.917z"/>
<g>
	<g>
		<path fill="#CCCCCC" d="M89.091,29.087V16.913h18.262v12.174H89.091z"/>
		<path fill="#CCCCCC" d="M106.799,29.087V16.913h18.262v12.174H106.799z"/>
		<path fill="#CCCCCC" d="M124.508,29.087V16.913h18.262v12.174H124.508z"/>
		<path fill="#CCCCCC" d="M142.216,29.087V16.913h18.262v12.174H142.216z"/>
		<path fill="#CCCCCC" d="M159.924,29.087V16.913h18.262v12.174H159.924z"/>
		<path fill="#CCCCCC" d="M177.633,29.087V16.913h18.262v12.174H177.633z"/>
		<path fill="#CCCCCC" d="M195.341,29.087V16.913h18.262v12.174H195.341z"/>
		<path fill="#CCCCCC" d="M213.049,29.087V16.913h18.262v12.174H213.049z"/>
		<path fill="#CCCCCC" d="M230.758,29.087V16.913h18.262v12.174H230.758z"/>
		<path fill="#CCCCCC" d="M248.466,29.087V16.913h18.262v12.174H248.466z"/>
		<path fill="#CCCCCC" d="M266.174,29.087V16.913h18.262v12.174H266.174z"/>
		<path fill="#CCCCCC" d="M283.883,29.087V16.913h18.262v12.174H283.883z"/>
		<path fill="#CCCCCC" d="M301.591,29.087V16.913h18.262v12.174H301.591z"/>
		<path fill="#CCCCCC" d="M89.091,54.587V42.413h18.262v12.174H89.091z"/>
		<path fill="#CCCCCC" d="M106.799,54.587V42.413h18.262v12.174H106.799z"/>
		<path fill="#CCCCCC" d="M124.508,54.587V42.413h18.262v12.174H124.508z"/>
		<path fill="#CCCCCC" d="M142.216,54.587V42.413h18.262v12.174H142.216z"/>
		<path fill="#CCCCCC" d="M159.924,54.587V42.413h18.262v12.174H159.924z"/>
		<path fill="#CCCCCC" d="M177.633,54.587V42.413h18.262v12.174H177.633z"/>
		<path fill="#CCCCCC" d="M195.341,54.587V42.413h18.262v12.174H195.341z"/>
		<path fill="#CCCCCC" d="M213.049,54.587V42.413h18.262v12.174H213.049z"/>
		<path fill="#CCCCCC" d="M230.758,54.587V42.413h18.262v12.174H230.758z"/>
		<path fill="#CCCCCC" d="M248.466,54.587V42.413h18.262v12.174H248.466z"/>
		<path fill="#CCCCCC" d="M266.174,54.587V42.413h18.262v12.174H266.174z"/>
		<path fill="#CCCCCC" d="M283.883,54.587V42.413h18.262v12.174H283.883z"/>
		<path fill="#CCCCCC" d="M89.091,80.087V67.913h18.262v12.174H89.091z"/>
		<path fill="#CCCCCC" d="M106.799,80.087V67.913h18.262v12.174H106.799z"/>
		<path fill="#CCCCCC" d="M124.508,80.087V67.913h18.262v12.174H124.508z"/>
		<path fill="#CCCCCC" d="M142.216,80.087V67.913h18.262v12.174H142.216z"/>
		<path fill="#CCCCCC" d="M159.924,80.087V67.913h18.262v12.174H159.924z"/>
		<path fill="#CCCCCC" d="M177.633,80.087V67.913h18.262v12.174H177.633z"/>
		<path fill="#CCCCCC" d="M195.341,80.087V67.913h18.262v12.174H195.341z"/>
		<path fill="#CCCCCC" d="M213.049,80.087V67.913h18.262v12.174H213.049z"/>
		<path fill="#CCCCCC" d="M230.758,80.087V67.913h18.262v12.174H230.758z"/>
		<path fill="#CCCCCC" d="M248.466,80.087V67.913h18.262v12.174H248.466z"/>
		<path fill="#CCCCCC" d="M266.174,80.087V67.913h18.262v12.174H266.174z"/>
		<path fill="#CCCCCC" d="M283.883,80.087V67.913h18.262v12.174H283.883z"/>
	</g>
	<g>
		<path fill="#CCCCCC" d="M89.091,122.587v-12.174h18.262v12.174H89.091z"/>
		<path fill="#CCCCCC" d="M106.799,122.587v-12.174h18.262v12.174H106.799z"/>
		<path fill="#CCCCCC" d="M124.508,122.587v-12.174h18.262v12.174H124.508z"/>
		<path fill="#CCCCCC" d="M142.216,122.587v-12.174h18.262v12.174H142.216z"/>
		<path fill="#CCCCCC" d="M159.924,122.587v-12.174h18.262v12.174H159.924z"/>
		<path fill="#CCCCCC" d="M177.633,122.587v-12.174h18.262v12.174H177.633z"/>
		<path fill="#CCCCCC" d="M195.341,122.587v-12.174h18.262v12.174H195.341z"/>
		<path fill="#CCCCCC" d="M213.049,122.587v-12.174h18.262v12.174H213.049z"/>
		<path fill="#CCCCCC" d="M230.758,122.587v-12.174h18.262v12.174H230.758z"/>
		<path fill="#CCCCCC" d="M248.466,122.587v-12.174h18.262v12.174H248.466z"/>
		<path fill="#CCCCCC" d="M266.174,122.587v-12.174h18.262v12.174H266.174z"/>
		<path fill="#CCCCCC" d="M283.883,122.587v-12.174h18.262v12.174H283.883z"/>
		<path fill="#CCCCCC" d="M301.591,122.587v-12.174h18.262v12.174H301.591z"/>
		<path fill="#CCCCCC" d="M89.091,148.087v-12.174h18.262v12.174H89.091z"/>
		<path fill="#CCCCCC" d="M106.799,148.087v-12.174h18.262v12.174H106.799z"/>
		<path fill="#CCCCCC" d="M124.508,148.087v-12.174h18.262v12.174H124.508z"/>
		<path fill="#CCCCCC" d="M142.216,148.087v-12.174h18.262v12.174H142.216z"/>
		<path fill="#CCCCCC" d="M159.924,148.087v-12.174h18.262v12.174H159.924z"/>
		<path fill="#CCCCCC" d="M177.633,148.087v-12.174h18.262v12.174H177.633z"/>
		<path fill="#CCCCCC" d="M195.341,148.087v-12.174h18.262v12.174H195.341z"/>
		<path fill="#CCCCCC" d="M213.049,148.087v-12.174h18.262v12.174H213.049z"/>
		<path fill="#CCCCCC" d="M230.758,148.087v-12.174h18.262v12.174H230.758z"/>
		<path fill="#CCCCCC" d="M248.466,148.087v-12.174h18.262v12.174H248.466z"/>
		<path fill="#CCCCCC" d="M266.174,148.087v-12.174h18.262v12.174H266.174z"/>
		<path fill="#CCCCCC" d="M283.883,148.087v-12.174h18.262v12.174H283.883z"/>
		<path fill="#CCCCCC" d="M89.091,173.587v-12.174h18.262v12.174H89.091z"/>
		<path fill="#CCCCCC" d="M106.799,173.587v-12.174h18.262v12.174H106.799z"/>
		<path fill="#CCCCCC" d="M124.508,173.587v-12.174h18.262v12.174H124.508z"/>
		<path fill="#CCCCCC" d="M142.216,173.587v-12.174h18.262v12.174H142.216z"/>
		<path fill="#CCCCCC" d="M159.924,173.587v-12.174h18.262v12.174H159.924z"/>
		<path fill="#CCCCCC" d="M177.633,173.587v-12.174h18.262v12.174H177.633z"/>
		<path fill="#CCCCCC" d="M195.341,173.587v-12.174h18.262v12.174H195.341z"/>
		<path fill="#CCCCCC" d="M213.049,173.587v-12.174h18.262v12.174H213.049z"/>
		<path fill="#CCCCCC" d="M230.758,173.587v-12.174h18.262v12.174H230.758z"/>
		<path fill="#CCCCCC" d="M248.466,173.587v-12.174h18.262v12.174H248.466z"/>
		<path fill="#CCCCCC" d="M266.174,173.587v-12.174h18.262v12.174H266.174z"/>
	</g>
	<g>
		<path fill="#CCCCCC" d="M89.091,218.921v-12.175h18.262v12.175H89.091z"/>
		<path fill="#CCCCCC" d="M106.799,218.921v-12.175h18.262v12.175H106.799z"/>
		<path fill="#CCCCCC" d="M124.508,218.921v-12.175h18.262v12.175H124.508z"/>
		<path fill="#CCCCCC" d="M142.216,218.921v-12.175h18.262v12.175H142.216z"/>
		<path fill="#CCCCCC" d="M159.924,218.921v-12.175h18.262v12.175H159.924z"/>
		<path fill="#CCCCCC" d="M177.633,218.921v-12.175h18.262v12.175H177.633z"/>
		<path fill="#CCCCCC" d="M195.341,218.921v-12.175h18.262v12.175H195.341z"/>
		<path fill="#CCCCCC" d="M213.049,218.921v-12.175h18.262v12.175H213.049z"/>
		<path fill="#CCCCCC" d="M230.758,218.921v-12.175h18.262v12.175H230.758z"/>
		<path fill="#CCCCCC" d="M248.466,218.921v-12.175h18.262v12.175H248.466z"/>
		<path fill="#CCCCCC" d="M266.174,218.921v-12.175h18.262v12.175H266.174z"/>
		<path fill="#CCCCCC" d="M283.883,218.921v-12.175h18.262v12.175H283.883z"/>
		<path fill="#CCCCCC" d="M301.591,218.921v-12.175h18.262v12.175H301.591z"/>
		<path fill="#CCCCCC" d="M89.091,244.421v-12.175h18.262v12.175H89.091z"/>
		<path fill="#CCCCCC" d="M106.799,244.421v-12.175h18.262v12.175H106.799z"/>
		<path fill="#CCCCCC" d="M124.508,244.421v-12.175h18.262v12.175H124.508z"/>
		<path fill="#CCCCCC" d="M142.216,244.421v-12.175h18.262v12.175H142.216z"/>
		<path fill="#CCCCCC" d="M159.924,244.421v-12.175h18.262v12.175H159.924z"/>
		<path fill="#CCCCCC" d="M177.633,244.421v-12.175h18.262v12.175H177.633z"/>
		<path fill="#CCCCCC" d="M195.341,244.421v-12.175h18.262v12.175H195.341z"/>
		<path fill="#CCCCCC" d="M213.049,244.421v-12.175h18.262v12.175H213.049z"/>
		<path fill="#CCCCCC" d="M230.758,244.421v-12.175h18.262v12.175H230.758z"/>
		<path fill="#CCCCCC" d="M248.466,244.421v-12.175h18.262v12.175H248.466z"/>
		<path fill="#CCCCCC" d="M266.174,244.421v-12.175h18.262v12.175H266.174z"/>
		<path fill="#CCCCCC" d="M283.883,244.421v-12.175h18.262v12.175H283.883z"/>
		<path fill="#CCCCCC" d="M301.591,244.421v-12.175h18.262v12.175H301.591z"/>
		<path fill="#CCCCCC" d="M89.091,269.921v-12.175h18.262v12.175H89.091z"/>
		<path fill="#CCCCCC" d="M106.799,269.921v-12.175h18.262v12.175H106.799z"/>
		<path fill="#CCCCCC" d="M124.508,269.921v-12.175h18.262v12.175H124.508z"/>
		<path fill="#CCCCCC" d="M142.216,269.921v-12.175h18.262v12.175H142.216z"/>
		<path fill="#CCCCCC" d="M159.924,269.921v-12.175h18.262v12.175H159.924z"/>
		<path fill="#CCCCCC" d="M177.633,269.921v-12.175h18.262v12.175H177.633z"/>
		<path fill="#CCCCCC" d="M195.341,269.921v-12.175h18.262v12.175H195.341z"/>
		<path fill="#CCCCCC" d="M213.049,269.921v-12.175h18.262v12.175H213.049z"/>
		<path fill="#CCCCCC" d="M230.758,269.921v-12.175h18.262v12.175H230.758z"/>
		<path fill="#CCCCCC" d="M248.466,269.921v-12.175h18.262v12.175H248.466z"/>
		<path fill="#CCCCCC" d="M266.174,269.921v-12.175h18.262v12.175H266.174z"/>
		<path fill="#CCCCCC" d="M283.883,269.921v-12.175h18.262v12.175H283.883z"/>
	</g>
	<g>
		<ellipse fill="#CCCCCC" cx="37.147" cy="50.913" rx="28.333" ry="28.349"/>
		<path fill="#FCFCFC" d="M22.389,61.588c0-0.739,0.023-1.466,0.077-2.177c0.053-0.702,0.14-1.461,0.285-2.272
			c0.148-0.829,0.339-1.586,0.562-2.28c0.219-0.707,0.527-1.384,0.905-2.048c0.38-0.662,0.808-1.229,1.3-1.703
			c0.488-0.459,1.083-0.832,1.79-1.114c0.703-0.281,1.484-0.423,2.327-0.424c0.135,0,0.43,0.153,0.89,0.452
			c0.465,0.306,0.982,0.641,1.567,1.009c0.576,0.366,1.325,0.704,2.253,1.009c0.934,0.293,1.864,0.451,2.802,0.451
			s1.868-0.158,2.799-0.451c0.931-0.305,1.681-0.643,2.256-1.009c0.581-0.368,1.101-0.703,1.564-1.009
			c0.459-0.299,0.754-0.452,0.891-0.452c0.844,0,1.623,0.14,2.328,0.424c0.705,0.282,1.301,0.655,1.789,1.114
			c0.494,0.474,0.92,1.041,1.3,1.703c0.376,0.664,0.685,1.342,0.904,2.048c0.221,0.694,0.414,1.451,0.56,2.28
			c0.146,0.812,0.235,1.571,0.289,2.272c0.053,0.711,0.078,1.435,0.078,2.177c0,1.674-0.509,2.999-1.534,3.969
			c-1.02,0.979-2.37,1.46-4.069,1.46H27.992c-1.699,0-3.049-0.48-4.069-1.46c-1.024-0.97-1.531-2.295-1.533-3.969H22.389z
			 M29.093,42.858c0-2.215,0.79-4.121,2.364-5.697c1.57-1.566,3.463-2.352,5.685-2.352c2.226,0,4.119,0.785,5.694,2.352
			c1.572,1.576,2.36,3.482,2.36,5.697c0,2.221-0.789,4.127-2.36,5.7c-1.576,1.568-3.468,2.354-5.694,2.354
			c-2.222,0-4.114-0.786-5.685-2.354C29.883,46.985,29.093,45.079,29.093,42.858z"/>
	</g>
	<g>
		<circle fill="#CCCCCC" cx="37.147" cy="144.413" r="28.333"/>
		<path fill="#FCFCFC" d="M22.39,155.082c0-0.74,0.023-1.467,0.073-2.172c0.054-0.706,0.141-1.465,0.289-2.278
			c0.146-0.823,0.339-1.58,0.56-2.277c0.219-0.702,0.527-1.384,0.906-2.046c0.378-0.663,0.807-1.228,1.301-1.698
			c0.485-0.463,1.082-0.838,1.786-1.12c0.705-0.279,1.487-0.417,2.331-0.418c0.131,0,0.429,0.152,0.89,0.452
			c0.46,0.301,0.98,0.635,1.564,1.005c0.576,0.369,1.325,0.705,2.256,1.007c0.933,0.298,1.861,0.451,2.8,0.451
			c0.938,0,1.866-0.153,2.797-0.451c0.932-0.302,1.682-0.638,2.259-1.007c0.581-0.37,1.101-0.704,1.563-1.005
			c0.459-0.3,0.755-0.452,0.89-0.452c0.845,0,1.623,0.136,2.331,0.418c0.703,0.282,1.301,0.657,1.788,1.12
			c0.493,0.47,0.921,1.035,1.3,1.698c0.376,0.662,0.685,1.346,0.904,2.046c0.221,0.697,0.414,1.454,0.559,2.277
			c0.146,0.813,0.238,1.574,0.292,2.278c0.048,0.705,0.073,1.428,0.073,2.172c0,1.673-0.506,2.998-1.531,3.969
			c-1.021,0.978-2.372,1.459-4.069,1.459H27.992c-1.698,0-3.049-0.481-4.069-1.459c-1.024-0.971-1.53-2.296-1.531-3.969H22.39z
			 M29.093,136.363c0-2.219,0.789-4.121,2.363-5.691c1.571-1.571,3.465-2.355,5.686-2.355c2.225,0,4.12,0.784,5.696,2.355
			c1.568,1.57,2.359,3.473,2.359,5.691c0,2.221-0.791,4.123-2.359,5.692c-1.576,1.571-3.471,2.357-5.696,2.357
			c-2.22,0-4.114-0.786-5.686-2.357C29.881,140.486,29.093,138.584,29.093,136.363z"/>
	</g>
	<g>
		<circle fill="#CCCCCC" cx="37.147" cy="237.913" r="28.333"/>
		<path fill="#FCFCFC" d="M22.39,248.582c0-0.74,0.023-1.467,0.073-2.172c0.054-0.706,0.141-1.465,0.289-2.278
			c0.146-0.823,0.339-1.58,0.56-2.277c0.219-0.702,0.527-1.384,0.906-2.046c0.378-0.663,0.807-1.228,1.301-1.698
			c0.485-0.463,1.082-0.838,1.786-1.12c0.705-0.279,1.487-0.417,2.331-0.418c0.131,0,0.429,0.152,0.89,0.452
			c0.46,0.301,0.98,0.635,1.564,1.005c0.576,0.369,1.325,0.705,2.256,1.007c0.933,0.298,1.861,0.451,2.8,0.451
			c0.938,0,1.866-0.153,2.797-0.451c0.932-0.302,1.682-0.638,2.259-1.007c0.581-0.37,1.101-0.704,1.563-1.005
			c0.459-0.3,0.755-0.452,0.89-0.452c0.845,0,1.623,0.136,2.331,0.418c0.703,0.282,1.301,0.657,1.788,1.12
			c0.493,0.47,0.921,1.035,1.3,1.698c0.376,0.662,0.685,1.346,0.904,2.046c0.221,0.697,0.414,1.454,0.559,2.277
			c0.146,0.813,0.238,1.574,0.292,2.278c0.048,0.705,0.073,1.428,0.073,2.172c0,1.673-0.506,2.998-1.531,3.969
			c-1.021,0.978-2.372,1.459-4.069,1.459H27.992c-1.698,0-3.049-0.481-4.069-1.459c-1.024-0.971-1.53-2.296-1.531-3.969H22.39z
			 M29.093,229.863c0-2.219,0.789-4.121,2.363-5.691c1.571-1.571,3.465-2.355,5.686-2.355c2.225,0,4.12,0.784,5.696,2.355
			c1.568,1.57,2.359,3.473,2.359,5.691c0,2.221-0.791,4.123-2.359,5.692c-1.576,1.571-3.471,2.357-5.696,2.357
			c-2.22,0-4.114-0.786-5.686-2.357C29.881,233.986,29.093,232.084,29.093,229.863z"/>
	</g>
</g>
</svg>
