<?xml version="1.0" encoding="UTF-8" standalone="no"?>
<svg width="10px" height="8px" viewBox="0 0 24 20" version="1.1" xmlns="http://www.w3.org/2000/svg" xmlns:xlink="http://www.w3.org/1999/xlink" xmlns:sketch="http://www.bohemiancoding.com/sketch/ns">
    <!-- Generator: Sketch 3.3.3 (12081) - http://www.bohemiancoding.com/sketch -->
    <title>divide</title>
    <desc>Created with Sketch.</desc>
    <defs></defs>
    <g id="Page-1" stroke="none" stroke-width="1" fill="none" fill-rule="evenodd" sketch:type="MSPage">
        <g id="Divide" sketch:type="MSArtboardGroup" transform="translate(0.000000, -2.000000)" fill="#7a7a7a">
            <path d="M0,11.0093689 C0,10.4519098 0.44746922,10 1.00069463,10 L22.9993054,10 C23.5519738,10 24,10.4433532 24,11.0093689 L24,12.9906311 C24,13.5480902 23.5525308,14 22.9993054,14 L1.00069463,14 C0.448026248,14 0,13.5566468 0,12.9906311 L0,11.0093689 Z M10,19.0093689 C10,18.4519098 10.4433532,18 11.0093689,18 L12.9906311,18 C13.5480902,18 14,18.4433532 14,19.0093689 L14,20.9906311 C14,21.5480902 13.5566468,22 12.9906311,22 L11.0093689,22 C10.4519098,22 10,21.5566468 10,20.9906311 L10,19.0093689 Z M10,3.0093689 C10,2.45190985 10.4433532,2 11.0093689,2 L12.9906311,2 C13.5480902,2 14,2.44335318 14,3.0093689 L14,4.9906311 C14,5.54809015 13.5566468,6 12.9906311,6 L11.0093689,6 C10.4519098,6 10,5.55664682 10,4.9906311 L10,3.0093689 Z" id="divide" sketch:type="MSShapeGroup"></path>
        </g>
    </g>
</svg>