<?xml version="1.0" encoding="utf-8"?>
<!-- Generator: Adobe Illustrator 16.0.4, SVG Export Plug-In . SVG Version: 6.00 Build 0)  -->
<!DOCTYPE svg PUBLIC "-//W3C//DTD SVG 1.1//EN" "http://www.w3.org/Graphics/SVG/1.1/DTD/svg11.dtd">
<svg version="1.1" id="Isolation_Mode_1_" xmlns="http://www.w3.org/2000/svg" xmlns:xlink="http://www.w3.org/1999/xlink" x="0px"
	 y="0px" width="240px" height="160px" viewBox="0 0 240 160" enable-background="new 0 0 240 160" xml:space="preserve">
<g id="Isolation_Mode">
	<g>
		<defs>
			<path id="SVGID_1_" d="M0,160V5c0-2.75,2.25-5,5-5h230c2.75,0,5,2.25,5,5v155"/>
		</defs>
		<clipPath id="SVGID_2_">
			<use xlink:href="#SVGID_1_"  overflow="visible"/>
		</clipPath>
		<g clip-path="url(#SVGID_2_)">
			<rect fill="#CCCCCC" width="240" height="160"/>
			<rect x="2" y="18" fill="#FFFFFF" width="236" height="140"/>
			<g>
				<rect x="20" y="44.999" fill="#CCCCCC" width="140" height="8"/>
			</g>
			<g>
				<rect x="20" y="86.999" fill="#CCCCCC" width="125" height="8"/>
			</g>
			<g>
				<rect x="20" y="128.999" fill="#CCCCCC" width="140" height="8"/>
			</g>
			<g>
				<path fill-rule="evenodd" clip-rule="evenodd" fill="#C0C0C0" d="M221.152,48.356c0,0-10.394-10.419-12.945-12.979
					c-1.333-1.311-3.211-1.339-3.309-1.324c-2.389,0.211-5.884,0.888-7.753,1.119c-0.897,0.128-1.853,1.077-2.007,2.105
					c-0.253,1.941-0.935,5.363-1.151,7.73c-0.02,0.295-0.02,1.976,1.249,3.253c2.429,2.434,13.006,13.035,13.006,13.035
					c1.107,1.107,2.885,1.114,3.988,0.015l8.929-8.961C222.264,51.252,222.254,49.464,221.152,48.356z M202.72,42.816
					c-0.82,0.825-2.16,0.825-2.987-0.005c-0.821-0.831-0.831-2.17-0.008-2.991c0.821-0.823,2.162-0.823,2.991,0.004
					C203.538,40.657,203.542,41.993,202.72,42.816z"/>
				<path fill="#FFFFFF" d="M213.328,49.865c-0.396-0.334-1.107-0.584-1.951-0.749l-0.337-0.089v-1.422
					c0.4,0.027,0.662,0.089,1.015,0.191c0.35,0.101,0.748,0.227,1.014,0.382h0.246c0,0,0.293-0.129,0.293-0.313
					c0-0.269,0.022-0.545,0.022-0.827c0-0.21-0.315-0.472-0.315-0.472c-0.266-0.109-0.719-0.205-1.179-0.287
					c-0.462-0.082-0.753-0.13-1.097-0.144c0,0,0-0.711,0-1.137c0-0.428-0.34-0.47-0.596-0.47c-0.23,0-0.424,0.085-0.424,0.47
					c0,0.383,0,1.146,0,1.146c-0.9,0.081-1.668,0.321-2.174,0.716c-0.507,0.396-0.718,0.872-0.718,1.428
					c0,0.369,0.061,0.68,0.175,0.932c0.116,0.252,0.233,0.464,0.441,0.636c0.211,0.172,0.458,0.311,0.749,0.415
					c0.288,0.103,0.604,0.195,0.948,0.273l0.588,0.123v1.534c-0.441-0.034-0.929-0.105-1.375-0.218
					c-0.447-0.113-0.84-0.263-1.185-0.448h-0.251c0,0-0.293,0.198-0.293,0.41c0,0.308,0,0.581,0,0.854
					c0,0.157,0.293,0.369,0.293,0.369c0.31,0.146,0.738,0.267,1.288,0.364c0.548,0.098,1.095,0.148,1.513,0.152c0,0,0,1.08,0,1.478
					c0,0.209,0.186,0.316,0.441,0.31c0.23-0.007,0.58-0.107,0.58-0.31c0-0.426,0-1.512,0-1.512c0.878-0.059,1.56-0.315,2.089-0.768
					c0.532-0.45,0.796-0.992,0.796-1.622C213.924,50.664,213.727,50.198,213.328,49.865z M209.277,48.652
					c-0.127-0.097-0.189-0.233-0.189-0.408c0-0.194,0.098-0.344,0.294-0.449c0.195-0.107,0.39-0.17,0.636-0.189v1.299
					C209.632,48.835,209.404,48.75,209.277,48.652z M211.54,51.965c-0.176,0.109-0.276,0.18-0.522,0.214v-1.388
					c0.197,0.03,0.286,0.098,0.484,0.205c0.199,0.104,0.301,0.268,0.301,0.483C211.803,51.693,211.715,51.854,211.54,51.965z"/>
			</g>
			<g>
				<path fill-rule="evenodd" clip-rule="evenodd" fill="#C0C0C0" d="M221.152,90.356c0,0-10.394-10.419-12.945-12.979
					c-1.333-1.311-3.211-1.339-3.309-1.324c-2.389,0.211-5.884,0.888-7.753,1.119c-0.897,0.128-1.853,1.077-2.007,2.105
					c-0.253,1.941-0.935,5.363-1.151,7.73c-0.02,0.295-0.02,1.976,1.249,3.253c2.429,2.434,13.006,13.035,13.006,13.035
					c1.107,1.107,2.885,1.114,3.988,0.015l8.929-8.961C222.264,93.252,222.254,91.464,221.152,90.356z M202.72,84.816
					c-0.82,0.825-2.16,0.825-2.987-0.005c-0.821-0.831-0.831-2.17-0.008-2.991c0.821-0.823,2.162-0.823,2.991,0.004
					C203.538,82.657,203.542,83.993,202.72,84.816z"/>
				<path fill="#FFFFFF" d="M213.328,91.865c-0.396-0.334-1.107-0.584-1.951-0.749l-0.337-0.089v-1.422
					c0.4,0.027,0.662,0.089,1.015,0.191c0.35,0.101,0.748,0.227,1.014,0.382h0.246c0,0,0.293-0.129,0.293-0.313
					c0-0.269,0.022-0.545,0.022-0.827c0-0.21-0.315-0.472-0.315-0.472c-0.266-0.109-0.719-0.205-1.179-0.287
					c-0.462-0.082-0.753-0.13-1.097-0.144c0,0,0-0.711,0-1.137c0-0.428-0.34-0.47-0.596-0.47c-0.23,0-0.424,0.085-0.424,0.47
					c0,0.383,0,1.146,0,1.146c-0.9,0.081-1.668,0.321-2.174,0.716c-0.507,0.396-0.718,0.872-0.718,1.428
					c0,0.369,0.061,0.68,0.175,0.932c0.116,0.252,0.233,0.464,0.441,0.636c0.211,0.172,0.458,0.311,0.749,0.415
					c0.288,0.103,0.604,0.195,0.948,0.273l0.588,0.123v1.534c-0.441-0.034-0.929-0.105-1.375-0.218
					c-0.447-0.113-0.84-0.263-1.185-0.448h-0.251c0,0-0.293,0.198-0.293,0.41c0,0.308,0,0.581,0,0.854
					c0,0.157,0.293,0.369,0.293,0.369c0.31,0.146,0.738,0.267,1.288,0.364c0.548,0.098,1.095,0.148,1.513,0.152c0,0,0,1.08,0,1.478
					c0,0.209,0.186,0.316,0.441,0.31c0.23-0.007,0.58-0.107,0.58-0.31c0-0.426,0-1.512,0-1.512c0.878-0.059,1.56-0.315,2.089-0.768
					c0.532-0.45,0.796-0.992,0.796-1.622C213.924,92.664,213.727,92.198,213.328,91.865z M209.277,90.652
					c-0.127-0.097-0.189-0.233-0.189-0.408c0-0.194,0.098-0.344,0.294-0.449c0.195-0.107,0.39-0.17,0.636-0.189v1.299
					C209.632,90.835,209.404,90.75,209.277,90.652z M211.54,93.965c-0.176,0.109-0.276,0.18-0.522,0.214v-1.388
					c0.197,0.03,0.286,0.098,0.484,0.205c0.199,0.104,0.301,0.268,0.301,0.483C211.803,93.693,211.715,93.854,211.54,93.965z"/>
			</g>
			<g>
				<path fill-rule="evenodd" clip-rule="evenodd" fill="#C0C0C0" d="M221.152,132.356c0,0-10.394-10.419-12.945-12.979
					c-1.333-1.311-3.211-1.339-3.309-1.324c-2.389,0.211-5.884,0.888-7.753,1.119c-0.897,0.128-1.853,1.077-2.007,2.105
					c-0.253,1.941-0.935,5.363-1.151,7.73c-0.02,0.295-0.02,1.976,1.249,3.253c2.429,2.434,13.006,13.035,13.006,13.035
					c1.107,1.107,2.885,1.114,3.988,0.015l8.929-8.961C222.264,135.252,222.254,133.464,221.152,132.356z M202.72,126.816
					c-0.82,0.825-2.16,0.825-2.987-0.005c-0.821-0.831-0.831-2.17-0.008-2.991c0.821-0.823,2.162-0.823,2.991,0.004
					C203.538,124.657,203.542,125.993,202.72,126.816z"/>
				<path fill="#FFFFFF" d="M213.328,133.865c-0.396-0.334-1.107-0.584-1.951-0.749l-0.337-0.089v-1.422
					c0.4,0.027,0.662,0.089,1.015,0.191c0.35,0.101,0.748,0.227,1.014,0.382h0.246c0,0,0.293-0.129,0.293-0.313
					c0-0.269,0.022-0.545,0.022-0.827c0-0.21-0.315-0.472-0.315-0.472c-0.266-0.109-0.719-0.205-1.179-0.287
					c-0.462-0.082-0.753-0.13-1.097-0.144c0,0,0-0.711,0-1.137c0-0.428-0.34-0.47-0.596-0.47c-0.23,0-0.424,0.085-0.424,0.47
					c0,0.383,0,1.146,0,1.146c-0.9,0.081-1.668,0.321-2.174,0.716c-0.507,0.396-0.718,0.872-0.718,1.428
					c0,0.369,0.061,0.68,0.175,0.932c0.116,0.252,0.233,0.464,0.441,0.636c0.211,0.172,0.458,0.311,0.749,0.415
					c0.288,0.103,0.604,0.195,0.948,0.273l0.588,0.123v1.534c-0.441-0.034-0.929-0.105-1.375-0.218
					c-0.447-0.113-0.84-0.263-1.185-0.448h-0.251c0,0-0.293,0.198-0.293,0.41c0,0.308,0,0.581,0,0.854
					c0,0.157,0.293,0.369,0.293,0.369c0.31,0.146,0.738,0.267,1.288,0.364c0.548,0.098,1.095,0.148,1.513,0.152c0,0,0,1.08,0,1.478
					c0,0.209,0.186,0.316,0.441,0.31c0.23-0.007,0.58-0.107,0.58-0.31c0-0.426,0-1.512,0-1.512c0.878-0.059,1.56-0.315,2.089-0.768
					c0.532-0.45,0.796-0.992,0.796-1.622C213.924,134.664,213.727,134.198,213.328,133.865z M209.277,132.652
					c-0.127-0.097-0.189-0.233-0.189-0.408c0-0.194,0.098-0.344,0.294-0.449c0.195-0.107,0.39-0.17,0.636-0.189v1.299
					C209.632,132.835,209.404,132.75,209.277,132.652z M211.54,135.965c-0.176,0.109-0.276,0.18-0.522,0.214v-1.388
					c0.197,0.03,0.286,0.098,0.484,0.205c0.199,0.104,0.301,0.268,0.301,0.483C211.803,135.693,211.715,135.854,211.54,135.965z"/>
			</g>
		</g>
	</g>
</g>
</svg>
