<?xml version="1.0" encoding="utf-8"?>
<!-- Generator: Adobe Illustrator 16.0.0, SVG Export Plug-In . SVG Version: 6.00 Build 0)  -->
<!DOCTYPE svg PUBLIC "-//W3C//DTD SVG 1.1//EN" "http://www.w3.org/Graphics/SVG/1.1/DTD/svg11.dtd">
<svg version="1.1" id="Layer_1" xmlns="http://www.w3.org/2000/svg" xmlns:xlink="http://www.w3.org/1999/xlink" x="0px" y="0px"
	 width="16px" height="16px" viewBox="0 0 16 16" enable-background="new 0 0 16 16" xml:space="preserve">
<path d="M16,15.5c0,0.275-0.225,0.5-0.5,0.5h-15C0.225,16,0,15.775,0,15.5v-3C0,12.225,0.225,12,0.5,12h15
	c0.275,0,0.5,0.225,0.5,0.5V15.5z M16,6.5C16,6.225,15.775,6,15.5,6h-15C0.225,6,0,6.225,0,6.5v3C0,9.775,0.225,10,0.5,10h15
	c0.275,0,0.5-0.225,0.5-0.5V6.5z M16,0.5C16,0.225,15.775,0,15.5,0h-15C0.225,0,0,0.225,0,0.5v3C0,3.775,0.225,4,0.5,4h15
	C15.775,4,16,3.775,16,3.5V0.5z"/>
</svg>
