<?xml version="1.0" encoding="UTF-8" standalone="no"?>
<svg width="8px" height="8px" viewBox="0 0 20 20" version="1.1" xmlns="http://www.w3.org/2000/svg" xmlns:xlink="http://www.w3.org/1999/xlink" xmlns:sketch="http://www.bohemiancoding.com/sketch/ns">
    <!-- Generator: Sketch 3.3.3 (12081) - http://www.bohemiancoding.com/sketch -->
    <title>multiply</title>
    <desc>Created with Sketch.</desc>
    <defs></defs>
    <g id="Page-1" stroke="none" stroke-width="1" fill="none" fill-rule="evenodd" sketch:type="MSPage">
        <g id="Multiply" sketch:type="MSArtboardGroup" transform="translate(-2.000000, -2.000000)" fill="#7a7a7a">
            <path d="M12,9.01814669 L5.24671983,2.26486652 C4.85590061,1.8740473 4.22898534,1.87989481 3.83870912,2.27017103 L2.27017103,3.83870912 C1.88262396,4.22625619 1.8775199,4.85937321 2.26486652,5.24671983 L9.01814669,12 L2.26486652,18.7532802 C1.8740473,19.1440994 1.87989481,19.7710147 2.27017103,20.1612909 L3.83870912,21.729829 C4.22625619,22.117376 4.85937321,22.1224801 5.24671983,21.7351335 L12,14.9818533 L18.7532802,21.7351335 C19.1440994,22.1259527 19.7710147,22.1201052 20.1612909,21.729829 L21.729829,20.1612909 C22.117376,19.7737438 22.1224801,19.1406268 21.7351335,18.7532802 L14.9818533,12 L21.7351335,5.24671983 C22.1259527,4.85590061 22.1201052,4.22898534 21.729829,3.83870912 L20.1612909,2.27017103 C19.7737438,1.88262396 19.1406268,1.8775199 18.7532802,2.26486652 L12,9.01814669 Z" id="multiply" sketch:type="MSShapeGroup"></path>
        </g>
    </g>
</svg>