<?xml version="1.0" encoding="utf-8"?>
<!-- Generator: Adobe Illustrator 16.0.4, SVG Export Plug-In . SVG Version: 6.00 Build 0)  -->
<!DOCTYPE svg PUBLIC "-//W3C//DTD SVG 1.1//EN" "http://www.w3.org/Graphics/SVG/1.1/DTD/svg11.dtd">
<svg version="1.1" id="Layer_1" xmlns="http://www.w3.org/2000/svg" xmlns:xlink="http://www.w3.org/1999/xlink" x="0px" y="0px"
	 width="240px" height="130px" viewBox="0 0 240 130" enable-background="new 0 0 240 130" xml:space="preserve">
<path fill="#FFFFFF" d="M240,125c0,2.762-2.239,5-5,5H5c-2.761,0-5-2.238-5-5V5c0-2.762,2.239-5,5-5h230c2.761,0,5,2.238,5,5V125z"
	/>
<g>
	<path fill="#CCCCCC" d="M79,74.5v45c0,2.494-2.021,4.5-4.5,4.5h-63c-2.478,0-4.5-2.006-4.5-4.5v-45c0-2.495,2.022-4.5,4.5-4.5h63
		C76.979,70,79,72.005,79,74.5z M56.268,111.729l-9-18c-0.328-0.629-0.946-1.08-1.652-1.191c-0.128-0.022-0.243-0.036-0.366-0.037
		c-0.588-0.002-1.169,0.244-1.596,0.666l-2.555,2.542l-7.471-11.195c-0.418-0.628-1.122-1.011-1.877-1.013
		c-0.052,0-0.088,0.003-0.14,0.008c-0.795,0.036-1.516,0.518-1.878,1.221l-13.5,27C16.084,112.07,16,112.41,16,112.749
		c0,0.405,0.117,0.808,0.334,1.176c0.417,0.684,1.131,1.075,1.916,1.075h36c0.784,0,1.499-0.392,1.916-1.075
		c0.217-0.368,0.334-0.771,0.334-1.176C56.5,112.41,56.416,112.07,56.268,111.729z M52,88c0,4.959,4.025,9,9,9s9-4.041,9-9
		s-4.025-9-9-9S52,83.041,52,88z"/>
	<path fill="#CCCCCC" d="M156,74.5v45c0,2.494-2.021,4.5-4.5,4.5h-63c-2.478,0-4.5-2.006-4.5-4.5v-45c0-2.495,2.022-4.5,4.5-4.5h63
		C153.979,70,156,72.005,156,74.5z M133.268,111.729l-9-18c-0.328-0.629-0.946-1.08-1.652-1.191
		c-0.128-0.022-0.243-0.036-0.366-0.037c-0.588-0.002-1.169,0.244-1.596,0.666l-2.555,2.542l-7.471-11.195
		c-0.418-0.628-1.122-1.011-1.877-1.013c-0.052,0-0.088,0.003-0.14,0.008c-0.795,0.036-1.516,0.518-1.878,1.221l-13.5,27
		C93.084,112.07,93,112.41,93,112.749c0,0.405,0.117,0.808,0.334,1.176c0.417,0.684,1.131,1.075,1.916,1.075h36
		c0.784,0,1.499-0.392,1.916-1.075c0.217-0.368,0.334-0.771,0.334-1.176C133.5,112.41,133.416,112.07,133.268,111.729z M129,88
		c0,4.959,4.025,9,9,9s9-4.041,9-9s-4.025-9-9-9S129,83.041,129,88z"/>
	<path fill="#CCCCCC" d="M233,74.5v45c0,2.494-2.021,4.5-4.5,4.5h-63c-2.478,0-4.5-2.006-4.5-4.5v-45c0-2.495,2.022-4.5,4.5-4.5h63
		C230.979,70,233,72.005,233,74.5z M210.268,111.729l-9-18c-0.328-0.629-0.946-1.08-1.652-1.191
		c-0.128-0.022-0.243-0.036-0.366-0.037c-0.588-0.002-1.169,0.244-1.596,0.666l-2.555,2.542l-7.471-11.195
		c-0.418-0.628-1.122-1.011-1.877-1.013c-0.052,0-0.088,0.003-0.14,0.008c-0.795,0.036-1.516,0.518-1.878,1.221l-13.5,27
		c-0.147,0.342-0.232,0.682-0.232,1.021c0,0.405,0.117,0.808,0.334,1.176c0.417,0.684,1.131,1.075,1.916,1.075h36
		c0.784,0,1.499-0.392,1.916-1.075c0.217-0.368,0.334-0.771,0.334-1.176C210.5,112.41,210.416,112.07,210.268,111.729z M206,88
		c0,4.959,4.025,9,9,9s9-4.041,9-9s-4.025-9-9-9S206,83.041,206,88z"/>
	<path fill="#CCCCCC" d="M79,10.5v45c0,2.494-2.021,4.5-4.5,4.5h-63C9.022,60,7,57.994,7,55.5v-45C7,8.005,9.022,6,11.5,6h63
		C76.979,6,79,8.005,79,10.5z M56.268,47.729l-9-18c-0.328-0.629-0.946-1.08-1.652-1.191c-0.128-0.022-0.243-0.036-0.366-0.037
		c-0.588-0.002-1.169,0.244-1.596,0.666l-2.555,2.542l-7.471-11.195c-0.418-0.628-1.122-1.011-1.877-1.013
		c-0.052,0-0.088,0.003-0.14,0.008c-0.795,0.036-1.516,0.518-1.878,1.221l-13.5,27C16.084,48.07,16,48.41,16,48.749
		c0,0.405,0.117,0.808,0.334,1.176C16.751,50.608,17.466,51,18.25,51h36c0.784,0,1.499-0.392,1.916-1.075
		c0.217-0.368,0.334-0.771,0.334-1.176C56.5,48.41,56.416,48.07,56.268,47.729z M52,24c0,4.959,4.025,9,9,9s9-4.041,9-9
		s-4.025-9-9-9S52,19.041,52,24z"/>
	<path fill="#CCCCCC" d="M156,10.5v45c0,2.494-2.021,4.5-4.5,4.5h-63c-2.478,0-4.5-2.006-4.5-4.5v-45C84,8.005,86.022,6,88.5,6h63
		C153.979,6,156,8.005,156,10.5z M133.268,47.729l-9-18c-0.328-0.629-0.946-1.08-1.652-1.191c-0.128-0.022-0.243-0.036-0.366-0.037
		c-0.588-0.002-1.169,0.244-1.596,0.666l-2.555,2.542l-7.471-11.195c-0.418-0.628-1.122-1.011-1.877-1.013
		c-0.052,0-0.088,0.003-0.14,0.008c-0.795,0.036-1.516,0.518-1.878,1.221l-13.5,27C93.084,48.07,93,48.41,93,48.749
		c0,0.405,0.117,0.808,0.334,1.176C93.751,50.608,94.466,51,95.25,51h36c0.784,0,1.499-0.392,1.916-1.075
		c0.217-0.368,0.334-0.771,0.334-1.176C133.5,48.41,133.416,48.07,133.268,47.729z M129,24c0,4.959,4.025,9,9,9s9-4.041,9-9
		s-4.025-9-9-9S129,19.041,129,24z"/>
	<path fill="#CCCCCC" d="M233,10.5v45c0,2.494-2.021,4.5-4.5,4.5h-63c-2.478,0-4.5-2.006-4.5-4.5v-45c0-2.495,2.022-4.5,4.5-4.5h63
		C230.979,6,233,8.005,233,10.5z M210.268,47.729l-9-18c-0.328-0.629-0.946-1.08-1.652-1.191c-0.128-0.022-0.243-0.036-0.366-0.037
		c-0.588-0.002-1.169,0.244-1.596,0.666l-2.555,2.542l-7.471-11.195c-0.418-0.628-1.122-1.011-1.877-1.013
		c-0.052,0-0.088,0.003-0.14,0.008c-0.795,0.036-1.516,0.518-1.878,1.221l-13.5,27C170.084,48.07,170,48.41,170,48.749
		c0,0.405,0.117,0.808,0.334,1.176c0.417,0.684,1.131,1.075,1.916,1.075h36c0.784,0,1.499-0.392,1.916-1.075
		c0.217-0.368,0.334-0.771,0.334-1.176C210.5,48.41,210.416,48.07,210.268,47.729z M206,24c0,4.959,4.025,9,9,9s9-4.041,9-9
		s-4.025-9-9-9S206,19.041,206,24z"/>
</g>
</svg>
