<?xml version="1.0" encoding="utf-8"?>
<!-- Generator: Adobe Illustrator 16.0.4, SVG Export Plug-In . SVG Version: 6.00 Build 0)  -->
<!DOCTYPE svg PUBLIC "-//W3C//DTD SVG 1.1//EN" "http://www.w3.org/Graphics/SVG/1.1/DTD/svg11.dtd">
<svg version="1.1" id="Layer_1" xmlns="http://www.w3.org/2000/svg" xmlns:xlink="http://www.w3.org/1999/xlink" x="0px" y="0px"
	 width="31.5px" height="24px" viewBox="0 0 31.5 24" enable-background="new 0 0 31.5 24" xml:space="preserve">
<path fill="#FFFFFF" d="M14.577,13.889c-0.166-0.169-0.221-0.479-0.122-0.695c0,0,0.691-1.498,0.691-2.599
	c0-3.083-2.495-5.582-5.573-5.582C6.495,5.013,4,7.511,4,10.595c0,3.082,2.496,5.581,5.573,5.581c1.101,0,2.597-0.693,2.597-0.693
	c0.215-0.098,0.527-0.043,0.692,0.125l4.264,4.27c0.168,0.167,0.44,0.167,0.606,0l1.108-1.107c0.167-0.17,0.167-0.441,0-0.608
	L14.577,13.889z M9.573,13.6c-1.654,0-3.001-1.35-3.001-3.005c0-1.657,1.347-3.005,3.001-3.005c1.654,0,3.001,1.347,3.001,3.004
	C12.574,12.25,11.228,13.6,9.573,13.6z"/>
</svg>
