<?xml version="1.0" encoding="utf-8"?>
<!-- Generator: Adobe Illustrator 16.0.0, SVG Export Plug-In . SVG Version: 6.00 Build 0)  -->
<!DOCTYPE svg PUBLIC "-//W3C//DTD SVG 1.1//EN" "http://www.w3.org/Graphics/SVG/1.1/DTD/svg11.dtd">
<svg version="1.1" id="Layer_1" xmlns="http://www.w3.org/2000/svg" xmlns:xlink="http://www.w3.org/1999/xlink" x="0px" y="0px"
	 width="31.5px" height="24px" viewBox="-7.5 0 31.5 24" enable-background="new -7.5 0 31.5 24" xml:space="preserve">
<path fill="#F2F2F2" d="M6.006,14.071c-0.188-0.19-0.25-0.543-0.138-0.787c0,0,0.784-1.698,0.784-2.947
	c0-3.496-2.829-6.328-6.318-6.328s-6.317,2.832-6.317,6.328c0,3.494,2.829,6.327,6.318,6.327c1.248,0,2.944-0.786,2.944-0.786
	c0.244-0.111,0.598-0.05,0.785,0.14l4.834,4.841c0.191,0.189,0.499,0.189,0.688,0l1.256-1.257c0.189-0.191,0.189-0.5,0-0.689
	L6.006,14.071z M0.333,13.744c-1.875,0-3.402-1.529-3.402-3.407c0-1.879,1.526-3.407,3.402-3.407s3.402,1.528,3.402,3.407
	C3.736,12.215,2.209,13.744,0.333,13.744z"/>
</svg>
