<?xml version="1.0" encoding="utf-8"?>
<!-- Generator: Adobe Illustrator 16.0.0, SVG Export Plug-In . SVG Version: 6.00 Build 0)  -->
<!DOCTYPE svg PUBLIC "-//W3C//DTD SVG 1.1//EN" "http://www.w3.org/Graphics/SVG/1.1/DTD/svg11.dtd">
<svg version="1.1" id="Layer_1" xmlns="http://www.w3.org/2000/svg" xmlns:xlink="http://www.w3.org/1999/xlink" x="0px" y="0px"
	 width="200px" height="200px" viewBox="0 0 200 200" enable-background="new 0 0 200 200" xml:space="preserve">
<path id="ShareThis" fill="#FFFFFF" d="M71.705,100c0,0.589-0.135,1.143-0.169,1.729l61.628,30.806
	c5.275-4.468,12.025-7.257,19.484-7.257C169.413,125.281,183,138.868,183,155.631C183,172.413,169.413,186,152.648,186
	c-16.78,0-30.354-13.587-30.354-30.369c0-0.604,0.135-1.145,0.168-1.729l-61.627-30.807c-5.292,4.451-12.027,7.239-19.484,7.239
	C24.588,130.335,11,116.764,11,100c0-16.779,13.588-30.37,30.352-30.37c7.458,0,14.194,2.806,19.484,7.257l61.627-30.806
	c-0.033-0.589-0.168-1.143-0.168-1.747c0-16.747,13.572-30.335,30.354-30.335C169.413,14,183,27.588,183,44.335
	c0,16.779-13.587,30.37-30.352,30.37c-7.476,0-14.213-2.806-19.484-7.274L71.536,98.253C71.568,98.842,71.705,99.396,71.705,100z"/>
</svg>
