<?xml version="1.0" encoding="utf-8"?>
<!-- Generator: Adobe Illustrator 16.0.4, SVG Export Plug-In . SVG Version: 6.00 Build 0)  -->
<!DOCTYPE svg PUBLIC "-//W3C//DTD SVG 1.1//EN" "http://www.w3.org/Graphics/SVG/1.1/DTD/svg11.dtd">
<svg version="1.1" id="Isolation_Mode_1_" xmlns="http://www.w3.org/2000/svg" xmlns:xlink="http://www.w3.org/1999/xlink" x="0px"
	 y="0px" width="349px" height="229px" viewBox="0 0 349 229" enable-background="new 0 0 349 229" xml:space="preserve">
<g id="Isolation_Mode">
	<g>
		<defs>
			<path id="SVGID_1_" d="M7.5,220V6.875C7.5,3.094,10.594,0,14.375,0h316.25c3.781,0,6.875,3.094,6.875,6.875V220"/>
		</defs>
		<clipPath id="SVGID_2_">
			<use xlink:href="#SVGID_1_"  overflow="visible"/>
		</clipPath>
		<g clip-path="url(#SVGID_2_)">
			<rect x="7.5" fill="#CCCCCC" width="330" height="220"/>
			<rect x="10.25" y="24.75" fill="#FFFFFF" width="324.5" height="192.5"/>
			<g>
				<rect x="103.75" y="59.123" fill="#CCCCCC" width="192.5" height="11"/>
			</g>
			<g>
				<path fill-rule="evenodd" clip-rule="evenodd" fill="#C0C0C0" d="M46.772,76.052L75.16,47.666c0.843-0.844,2.211-0.844,3.054,0
					l1.529,1.527c0.842,0.844,0.842,2.215,0,3.059l-28.39,28.386c-0.843,0.843-2.21,0.843-3.054,0l-1.527-1.528
					C45.929,78.266,45.929,76.896,46.772,76.052z"/>
				<path fill-rule="evenodd" clip-rule="evenodd" fill="#C0C0C0" d="M35.631,64.918l1.529-1.533c0.843-0.844,2.211-0.844,3.054,0
					l12.668,12.667c0.844,0.844,0.844,2.214,0,3.058l-1.528,1.528c-0.843,0.843-2.21,0.843-3.054,0L35.631,67.973
					C34.789,67.128,34.789,65.762,35.631,64.918z"/>
			</g>
			<g>
				<rect x="103.75" y="118.248" fill="#CCCCCC" width="171.875" height="11"/>
			</g>
			<g>
				<rect x="103.75" y="177.373" fill="#CCCCCC" width="192.5" height="11"/>
			</g>
			<g>
				<path fill-rule="evenodd" clip-rule="evenodd" fill="#C0C0C0" d="M46.772,190.178l28.388-28.386
					c0.843-0.843,2.211-0.843,3.054,0l1.529,1.528c0.842,0.844,0.842,2.214,0,3.058l-28.39,28.386c-0.843,0.844-2.21,0.844-3.054,0
					l-1.527-1.527C45.929,192.393,45.929,191.021,46.772,190.178z"/>
				<path fill-rule="evenodd" clip-rule="evenodd" fill="#C0C0C0" d="M35.631,179.044l1.529-1.533c0.843-0.843,2.211-0.843,3.054,0
					l12.668,12.667c0.844,0.844,0.844,2.215,0,3.059l-1.528,1.527c-0.843,0.844-2.21,0.844-3.054,0l-12.668-12.665
					C34.789,181.254,34.789,179.889,35.631,179.044z"/>
			</g>
			<g>
				<path fill-rule="evenodd" clip-rule="evenodd" fill="#C0C0C0" d="M46.772,133.114l28.388-28.386
					c0.843-0.844,2.211-0.844,3.054,0l1.529,1.527c0.842,0.844,0.842,2.216,0,3.06l-28.39,28.386c-0.843,0.844-2.21,0.844-3.054,0
					l-1.527-1.527C45.929,135.33,45.929,133.958,46.772,133.114z"/>
				<path fill-rule="evenodd" clip-rule="evenodd" fill="#C0C0C0" d="M35.631,121.98l1.529-1.533c0.843-0.844,2.211-0.844,3.054,0
					l12.668,12.667c0.844,0.844,0.844,2.216,0,3.06l-1.528,1.527c-0.843,0.844-2.21,0.844-3.054,0l-12.668-12.665
					C34.789,124.19,34.789,122.826,35.631,121.98z"/>
			</g>
		</g>
	</g>
</g>
</svg>
