<?xml version="1.0" encoding="utf-8"?>
<!-- Generator: Adobe Illustrator 16.0.0, SVG Export Plug-In . SVG Version: 6.00 Build 0)  -->
<!DOCTYPE svg PUBLIC "-//W3C//DTD SVG 1.1//EN" "http://www.w3.org/Graphics/SVG/1.1/DTD/svg11.dtd">
<svg version="1.1" id="Layer_1" xmlns="http://www.w3.org/2000/svg" xmlns:xlink="http://www.w3.org/1999/xlink" x="0px" y="0px"
	 width="24px" height="24px" viewBox="0 0 24 24" enable-background="new 0 0 24 24" xml:space="preserve">
<g>
	<path fill="#C0C0C0" d="M13.341,5.8c1.654,0,3.213,0.645,4.384,1.815c1.171,1.172,1.816,2.729,1.816,4.385
		c0,1.654-0.646,3.212-1.816,4.384c-1.17,1.17-2.729,1.816-4.384,1.816s-3.213-0.646-4.384-1.816S7.141,13.654,7.141,12
		c0-1.656,0.646-3.213,1.816-4.385C10.128,6.444,11.687,5.8,13.341,5.8 M13.341,4c-4.418,0-8,3.582-8,8c0,4.417,3.582,8,8,8
		s8-3.582,8-8C21.341,7.583,17.759,4,13.341,4L13.341,4z M16.44,14.658c0.308,0,0.606-0.162,0.771-0.447
		c0.243-0.424,0.095-0.967-0.33-1.207l-2.653-1.519V7.57c0-0.488-0.396-0.884-0.887-0.884s-0.887,0.396-0.887,0.884V12
		c0,0.317,0.172,0.611,0.447,0.769l3.101,1.771C16.141,14.619,16.29,14.658,16.44,14.658L16.44,14.658z"/>
</g>
</svg>
