<?xml version="1.0" encoding="utf-8"?>
<!-- Generator: Adobe Illustrator 16.0.0, SVG Export Plug-In . SVG Version: 6.00 Build 0)  -->
<!DOCTYPE svg PUBLIC "-//W3C//DTD SVG 1.1//EN" "http://www.w3.org/Graphics/SVG/1.1/DTD/svg11.dtd">
<svg version="1.1" id="Layer_1" xmlns="http://www.w3.org/2000/svg" xmlns:xlink="http://www.w3.org/1999/xlink" x="0px" y="0px"
	 width="24px" height="24px" viewBox="0 0 24 24" enable-background="new 0 0 24 24" xml:space="preserve">
<g>
	<g>
		<path fill="#C0C0C0" d="M13.341,4.184c-4.228,0-7.656,3.428-7.656,7.657s3.428,7.658,7.656,7.658c4.228,0,7.656-3.429,7.656-7.658
			S17.568,4.184,13.341,4.184z M16.156,14.848l-0.223,0.223c-0.187,0.186-0.499,0.195-0.695,0.019l-2.883-2.524
			c-0.197-0.175-0.346-0.535-0.333-0.797l0.266-4.552c0.016-0.264,0.241-0.479,0.504-0.479h0.313c0.265,0,0.49,0.215,0.503,0.479
			l0.22,3.786c0.014,0.263,0.166,0.638,0.341,0.835l2.006,2.315C16.351,14.348,16.344,14.66,16.156,14.848z"/>
	</g>
</g>
</svg>
